<svg width="162" height="93" viewBox="0 0 162 93" fill="none" xmlns="http://www.w3.org/2000/svg">
<path d="M40.5069 0.196609C39.9346 0.41671 39.3184 0.724846 39.1863 0.900928C39.0542 1.12103 34.5202 5.08282 29.0617 9.79295C23.6033 14.5031 18.1448 19.2572 16.9122 20.3577C15.7237 21.4582 11.4097 25.1999 7.3599 28.7215C-0.167509 35.2365 -0.915848 36.2049 0.712889 37.5695C1.50525 38.2298 11.3657 38.3179 12.5102 37.6576C12.8624 37.4815 14.9753 35.6767 17.2644 33.7398C26.6846 25.5521 40.1988 13.9308 40.727 13.5787C41.4753 13.0064 41.8275 13.3145 57.0144 26.4765L70.2204 37.9217H75.987C80.6971 37.9657 81.8856 37.8336 82.3258 37.2614C83.4704 35.9408 82.59 34.8843 75.4147 28.7215C72.7735 26.4325 66.6988 21.1501 54.1531 10.2332C47.9903 4.86272 42.6199 0.328667 42.2677 0.10857C41.9155 -0.0675125 41.1232 -0.0234909 40.5069 0.196609ZM50.8956 10.0131C55.9139 14.371 61.8566 19.5214 64.0576 21.4582C66.3026 23.3951 70.7486 27.2248 73.918 29.9981C77.0875 32.7273 79.6846 35.2805 79.6846 35.5886C79.6846 36.0728 78.7602 36.2049 75.4587 36.2049H71.2768L66.8308 32.3312C49.7071 17.5405 42.0476 11.1136 41.4313 11.1136C40.5509 11.1136 40.2428 11.3777 24.3076 25.0679L11.4097 36.2049H7.27186C4.10242 36.2049 3.08997 36.0728 3.08997 35.6326C3.08997 35.3245 9.64893 29.2938 17.7046 22.2946C25.7162 15.2954 34.3001 7.85608 36.7212 5.6991C39.1423 3.58614 41.2552 1.91339 41.4313 1.95741C41.6514 2.04544 45.8773 5.65508 50.8956 10.0131Z" fill="#B61EEF"/>
<path d="M20.0817 32.5953C19.4654 33.1675 19.9496 33.5637 21.6224 33.8278C22.5908 34.0039 23.8234 34.4881 24.3516 34.8843C25.3201 35.6767 25.3201 35.8968 25.4521 49.807C25.5402 59.0953 25.4081 64.5097 25.1 65.6982C24.5717 67.6351 23.5152 68.3394 21.0941 68.3394C20.2578 68.3394 19.8176 68.5595 19.8176 68.9997C19.8176 69.572 21.0941 69.66 28.6216 69.66C36.149 69.66 37.4255 69.572 37.4255 68.9997C37.4255 68.6036 37.0294 68.3394 36.325 68.3394C35.7088 68.3394 34.5202 68.0753 33.7279 67.7232C31.923 66.9748 31.7029 66.0064 31.7029 57.4225V51.1717H41.1672H50.6315L50.8956 52.3162C51.2478 53.6808 50.8516 65.6102 50.4114 66.6667C50.1033 67.459 47.9903 68.3394 46.4056 68.3394C45.7453 68.3394 45.3491 68.6036 45.3491 68.9997C45.3491 69.572 46.5817 69.66 53.933 69.66C61.2843 69.66 62.5169 69.572 62.5169 68.9997C62.5169 68.5155 62.0327 68.3394 60.9762 68.3394C59.8757 68.3394 59.0393 67.9873 58.291 67.2389L57.1905 66.1384L57.3225 50.6874C57.4546 33.3876 57.2785 34.3561 60.8001 33.7838C61.7245 33.6077 62.5169 33.2556 62.5169 32.9474C62.5169 32.5953 60.2279 32.4192 53.933 32.4192C47.4181 32.3752 45.3491 32.5072 45.3491 32.9474C45.3491 33.5637 46.3176 34.0039 47.7702 34.0039C48.2985 34.0039 49.2229 34.4001 49.7951 34.8403C50.8076 35.6767 50.8516 35.8527 50.8516 42.6758V49.631L41.2113 49.763L31.6149 49.8511L31.747 42.8519C31.9671 34.7963 32.1431 34.312 35.4887 33.7838C36.7212 33.6077 37.4255 33.2996 37.2935 32.9914C37.1614 32.5953 34.7403 32.4632 28.7096 32.4192C24.0875 32.3752 20.2137 32.4632 20.0817 32.5953ZM26.9048 34.4001L27.9613 35.2365V50.8635C27.9613 65.6102 27.9172 66.5346 27.1249 67.415C26.3325 68.2954 24.6598 68.6916 24.6598 67.9873C24.6598 67.8112 24.9679 67.283 25.3201 66.8428C25.8923 66.0944 25.9804 63.4532 25.9804 50.9075C25.9804 36.381 25.9363 35.8527 25.0559 34.7082C24.1755 33.6077 24.1755 33.5637 25.0119 33.5637C25.4961 33.5637 26.3325 33.9599 26.9048 34.4001ZM52.2162 34.18C53.0086 34.7963 53.0526 35.5446 53.1847 50.5114C53.3167 67.7672 53.2287 68.3394 50.8076 68.3394H49.7071L50.5875 67.1949C51.4679 66.0504 51.5119 65.5222 51.5119 51.2157C51.5119 37.2614 51.4679 36.337 50.6315 34.9723C49.7951 33.6517 49.7951 33.5637 50.5435 33.5637C50.9837 33.5637 51.732 33.8278 52.2162 34.18Z" fill="#37D2F4"/>
<path d="M73.742 47.0339C69.2959 48.6186 66.3026 53.0646 66.3026 58.1709C66.2586 62.0007 67.315 64.7299 69.7802 66.9749C72.3333 69.308 74.3142 70.1003 77.8798 70.1003C84.791 70.1003 89.5451 65.1261 89.5451 57.9949C89.5011 54.6053 88.6207 52.3603 86.2436 49.6751C83.6905 46.7698 77.9238 45.5372 73.742 47.0339ZM72.6855 49.1909C71.717 50.0713 70.3964 51.8761 69.7361 53.1967C68.7237 55.3096 68.5916 55.9699 68.7677 58.8312C69.0318 62.661 70.2644 65.2141 73.1697 67.6352C75.5908 69.6601 74.4463 69.7042 71.4529 67.6792C68.4155 65.6543 66.8308 62.4409 66.8308 58.5231C66.8308 55.6618 67.9313 52.3163 69.472 50.5555C70.3524 49.543 74.0501 47.1219 74.3142 47.3861C74.4023 47.5181 73.6979 48.3105 72.6855 49.1909ZM80.0368 48.2224C80.477 48.5746 80.7411 48.5306 80.9612 48.1784C81.1813 47.7822 81.7536 48.0904 82.8101 49.1028C86.7719 52.9326 87.168 62.9691 83.5144 66.8869C82.0617 68.4716 81.7976 68.0754 82.8541 66.0065C83.7345 64.3778 83.8665 63.5414 83.8225 58.8753C83.8225 54.0771 83.6905 53.3288 82.634 50.9957C81.9737 49.5871 81.3574 48.4866 81.2253 48.6186C81.1373 48.7067 81.4014 49.5871 81.8856 50.5555C82.678 52.1842 83.8665 59.2714 83.4263 59.9317C83.3383 60.1078 83.2062 61.1643 83.1622 62.3088C83.0302 64.818 81.5335 67.9434 80.0808 68.6477C78.276 69.5721 77.0434 69.308 75.4587 67.6352C73.4338 65.5223 72.4654 62.0887 72.4654 56.8944C72.4654 53.4168 72.5974 52.3603 73.4338 50.6876C74.9305 47.6502 77.9238 46.5497 80.0368 48.2224Z" fill="#37D2F4"/>
<path d="M97.1165 47.6061C95.1797 48.2664 93.5069 49.0587 93.4189 49.3228C93.3308 49.631 93.4629 49.8511 93.683 49.8511C93.9031 49.8511 94.6074 50.3793 95.2677 50.9956L96.4122 52.1841V59.5795C96.4122 67.5911 96.1921 68.3394 93.9471 68.3394C93.2868 68.3394 92.8906 68.6036 92.8906 68.9997C92.8906 69.572 93.9031 69.66 99.2735 69.66C104.644 69.66 105.656 69.572 105.656 68.9997C105.656 68.6036 105.26 68.3394 104.6 68.3394C102.311 68.3394 102.135 67.6351 102.135 59.0512V51.1717L104.204 49.8511C106.757 48.2223 108.738 47.8262 110.367 48.6185C112.215 49.4989 112.656 51.3918 112.656 59.0953C112.7 66.7107 112.347 68.0313 110.367 68.2514C109.706 68.3394 109.178 68.6476 109.178 69.0438C109.178 69.528 110.278 69.66 115.341 69.66C120.535 69.66 121.504 69.572 121.504 68.9997C121.504 68.6036 121.107 68.3394 120.447 68.3394C118.554 68.3394 118.378 67.6351 118.51 59.0512L118.642 50.9956L120.491 49.719C121.768 48.7946 122.868 48.3984 124.277 48.3544C125.377 48.3544 126.17 48.1783 126.038 47.9582C125.685 47.43 127.666 47.6061 128.943 48.3104C130.836 49.2788 131.188 50.9516 131.188 58.8311C131.188 66.0944 130.88 67.5471 129.339 68.5155C128.327 69.1318 127.842 68.5595 128.591 67.6351C129.031 67.0629 129.207 65.0379 129.207 58.8752C129.207 52.008 129.075 50.7315 128.415 49.719C127.975 49.0587 127.402 48.5305 127.138 48.5305C126.874 48.5305 127.006 48.9267 127.49 49.4549C128.239 50.2913 128.327 51.2597 128.459 58.6551C128.635 67.6351 128.459 68.3394 126.082 68.3394C125.421 68.3394 125.025 68.6036 125.025 68.9997C125.025 69.572 126.038 69.66 131.408 69.66C136.778 69.66 137.791 69.572 137.791 68.9997C137.791 68.6036 137.395 68.3394 136.823 68.3394C134.577 68.3394 134.489 68.0753 134.269 59.0072C134.049 50.9956 134.005 50.4233 133.037 49.0587C131.672 47.1659 129.911 46.3295 127.314 46.3295C124.717 46.3295 121.9 47.2539 119.611 48.8386L117.982 49.9831L116.926 48.8386C114.02 45.7132 109.354 45.4491 104.908 48.1783L102.355 49.8071L102.223 48.0463C102.047 45.9773 101.871 45.9773 97.1165 47.6061ZM113.624 48.9267L114.901 50.2032V58.523C114.901 67.1509 114.769 67.8992 112.964 68.5155C112.303 68.7356 112.215 68.6476 112.524 68.0313C112.744 67.5911 112.92 63.4532 112.92 58.7871V50.3353L111.643 49.0147C110.367 47.6941 110.367 47.6501 111.335 47.6501C111.863 47.6501 112.92 48.2223 113.624 48.9267ZM97.9969 50.3353C98.7453 51.1717 98.8333 52.0961 98.9214 59.0072C99.0094 65.6542 98.9214 66.8868 98.3051 67.5471C96.7644 69.2639 96.6323 68.5595 96.7644 60.2398L96.8964 52.1841L95.7519 50.7755L94.5634 49.4109H95.884C96.6323 49.4109 97.5127 49.8071 97.9969 50.3353Z" fill="#37D2F4"/>
<path d="M147.431 47.4299C143.249 49.5869 140.74 54.0769 140.784 59.2713C140.828 63.8054 143.337 67.8552 147.123 69.3959C149.764 70.4964 153.946 70.3203 156.631 68.9557C158.744 67.8992 161.562 65.0819 161.562 63.9814C161.562 63.2771 161.166 63.3652 158.744 64.5977C153.77 67.1068 148.576 64.9939 146.595 59.6675C144.966 55.3535 144.57 55.5736 153.682 55.5736H161.694L161.386 53.7688C160.417 47.8261 153.066 44.4806 147.431 47.4299ZM153.594 48.5745C154.783 49.675 155.399 51.2157 155.399 52.9764V54.253H150.601H145.803L146.155 52.8004C146.683 50.4673 147.563 48.9266 148.752 48.3103C150.425 47.3859 152.45 47.518 153.594 48.5745ZM155.663 48.3544C157.072 49.2788 158.04 51.1716 158.04 52.9324C158.04 54.0329 157.864 54.253 156.94 54.253C155.927 54.253 155.839 54.0769 155.839 52.3161C155.839 50.8635 155.531 50.0271 154.695 49.0147C153.462 47.518 153.902 47.2098 155.663 48.3544ZM144.614 51.7879C143.205 54.6492 142.765 58.523 143.47 61.2082C144.086 63.4092 146.419 66.1824 148.532 67.1949C150.645 68.2073 154.122 68.0753 156.764 66.9748C159.537 65.7862 160.021 66.1384 157.644 67.6351C152.318 71.0246 146.155 69.8361 142.809 64.8178C141.313 62.5288 140.916 58.4789 141.885 55.0894C142.545 52.8444 145.142 48.6625 145.582 49.1467C145.715 49.2788 145.274 50.4673 144.614 51.7879Z" fill="#37D2F4"/>
<path d="M129.427 75.9548C128.591 76.1749 127.71 76.5271 127.446 76.7912C127.138 77.0993 127.27 77.1433 127.886 76.9673C129.779 76.439 129.911 77.0113 129.779 84.5387L129.647 91.6699H130.968C131.76 91.6699 132.068 91.5379 131.76 91.3178C131.364 91.0536 131.188 88.7646 131.1 83.2621L130.968 75.5586L129.427 75.9548Z" fill="#B61EEF"/>
<path d="M86.8599 76.1309C87.036 76.2629 87.7844 76.395 88.4887 76.351L89.8533 76.307L89.7212 84.0105L89.5892 91.6699L91.5701 91.6259C93.1988 91.6259 93.3749 91.5379 92.5825 91.2297C91.6581 90.8335 91.5701 90.5254 91.5701 87.3119V83.7904L95.884 83.6143L100.154 83.4822L95.84 83.3942L91.5261 83.3061L91.6581 79.9166C91.7902 76.7031 91.8342 76.483 92.8907 76.2189C93.551 76.0428 92.4945 75.9108 90.2935 75.8668C88.2686 75.8228 86.7279 75.9548 86.8599 76.1309Z" fill="#B61EEF"/>
<path d="M97.8649 76.1309C98.041 76.2629 98.7453 76.395 99.4936 76.351L100.858 76.307L100.726 84.0105L100.594 91.6699H102.311C103.808 91.6699 103.94 91.5819 103.323 91.0977C102.619 90.6134 102.575 89.7771 102.663 83.5262L102.795 76.5271L103.896 76.2189C104.556 76.0428 103.499 75.9108 101.298 75.8668C99.2735 75.8228 97.7328 75.9548 97.8649 76.1309Z" fill="#B61EEF"/>
<path d="M128.591 79.6086C128.591 80.0928 128.723 80.2249 128.855 79.8727C128.987 79.5646 128.943 79.1684 128.811 79.0363C128.679 78.8602 128.547 79.1244 128.591 79.6086Z" fill="white"/>
<path d="M109.838 82.0297C108.958 82.4699 107.417 85.5512 107.417 86.9159C107.417 89.513 109.926 91.3619 112.612 90.7456C113.492 90.5695 114.328 90.4815 114.504 90.6135C114.68 90.7016 114.945 90.4815 115.077 90.0853C115.297 89.5571 115.165 89.425 114.592 89.6891C112.435 90.4815 111.511 90.3934 110.146 89.2489C109.178 88.4566 108.738 87.6642 108.738 86.8278V85.5953L112.039 85.6833C114.636 85.7713 115.341 85.6833 115.341 85.1991C115.341 83.9665 114.372 82.778 112.92 82.1617C111.203 81.4574 111.027 81.4574 109.838 82.0297ZM113.492 82.9981C113.756 83.2182 114.02 83.7905 114.02 84.2307C114.02 84.979 113.668 85.067 111.379 85.067C108.474 85.067 107.989 84.4948 109.618 82.866C110.543 81.9416 112.215 81.9856 113.492 82.9981Z" fill="#B61EEF"/>
<path d="M121.283 81.9857C121.416 82.2058 121.636 82.4259 121.768 82.4259C121.856 82.4259 121.944 82.2058 121.944 81.9857C121.944 81.7216 121.724 81.5455 121.46 81.5455C121.239 81.5455 121.151 81.7216 121.283 81.9857Z" fill="#B61EEF"/>
<path d="M137.307 82.0297C136.03 82.5139 135.15 84.5388 135.15 87.092C135.15 89.425 136.602 90.9217 138.847 90.7896C141.797 90.6576 142.149 90.6136 142.369 90.0853C142.501 89.6891 142.193 89.6451 141.092 89.9533C138.627 90.6576 136.734 89.469 136.206 87.0039L135.942 85.6833L139.288 85.7274C142.413 85.7714 142.633 85.7274 142.633 84.847C142.633 82.8661 139.552 81.2373 137.307 82.0297ZM140.784 82.9981C141.048 83.2182 141.313 83.7905 141.313 84.2307C141.313 84.979 140.96 85.0671 138.627 85.0671C136.338 85.0671 135.986 84.979 136.206 84.3627C136.338 83.9666 136.47 83.5264 136.47 83.3063C136.47 82.778 138.759 82.0737 139.552 82.3378C139.904 82.4699 140.476 82.734 140.784 82.9981Z" fill="#B61EEF"/>
<path d="M146.507 82.2058C145.626 82.4259 144.746 82.8221 144.526 83.0422C144.306 83.2623 144.526 83.3063 145.01 83.1302C146.551 82.602 147.035 83.6144 147.035 87.5322C147.035 91.1859 147.035 91.1859 145.847 91.3619C145.142 91.45 145.714 91.538 147.035 91.582C148.356 91.582 149.192 91.494 148.928 91.3619C148.092 91.0538 148.18 84.6709 149.016 83.5704C149.544 82.8661 149.852 82.8221 150.997 83.2623C152.229 83.6584 152.361 83.6144 152.229 82.9541C152.053 81.9417 150.249 81.7656 149.236 82.646C148.488 83.3503 148.4 83.3063 148.268 82.5579C148.136 81.8096 147.96 81.7656 146.507 82.2058Z" fill="#B61EEF"/>
<path d="M119.039 82.5139C118.422 83.4824 118.466 85.0231 119.083 84.803C119.435 84.6709 119.655 83.9666 119.655 83.2623C119.611 81.8536 119.523 81.7216 119.039 82.5139Z" fill="#B61EEF"/>
<path d="M123.264 82.8221C123.484 83.3063 123.705 85.3312 123.705 87.3561C123.705 91.3179 124.013 92.2864 125.157 91.8462C126.038 91.538 126.17 90.7457 125.377 90.8777C124.937 90.9658 124.761 89.9533 124.673 87.092C124.541 83.3943 124.145 81.9857 123.176 81.9857C122.956 81.9857 123 82.3819 123.264 82.8221Z" fill="#B61EEF"/>
<path d="M158.744 83.2182C158.744 83.8345 158.964 84.4067 159.229 84.4948C159.493 84.5828 159.581 84.1866 159.449 83.5263C159.185 82.0297 158.656 81.7655 158.744 83.2182Z" fill="#B61EEF"/>
<path d="M153.77 83.1302C153.33 84.3187 154.342 85.6833 156.455 86.7398C157.556 87.3121 158.788 88.0604 159.141 88.4126C159.933 89.2489 160.021 90.5255 159.273 90.0853C158.965 89.9092 158.832 89.9092 159.009 90.1293C159.449 90.5695 158.04 91.626 156.984 91.67C156.543 91.67 155.487 90.9217 154.695 90.0413C153.858 89.1609 153.198 88.6327 153.198 88.9408C153.198 89.2489 153.33 89.469 153.55 89.469C153.726 89.469 154.122 89.9092 154.475 90.3934C155.003 91.2738 154.959 91.3179 154.078 91.0978C153.374 90.9217 153.198 90.9657 153.506 91.2738C154.21 91.9782 157.38 92.2423 158.436 91.714C158.921 91.4059 159.669 90.7016 160.065 90.0853C161.033 88.6327 160.417 87.3121 158.216 86.1675C155.311 84.7149 153.99 83.7024 154.254 83.0421C154.386 82.69 154.386 82.4258 154.254 82.4258C154.166 82.4258 153.946 82.734 153.77 83.1302Z" fill="#B61EEF"/>
<path d="M128.679 85.9475C128.679 87.048 128.767 87.4882 128.855 86.9159C128.943 86.3877 128.943 85.5073 128.855 84.935C128.767 84.4068 128.679 84.847 128.679 85.9475Z" fill="#B61EEF"/>
<path d="M120.667 86.7838C119.391 87.4441 118.07 89.0729 117.982 89.9533C117.982 90.3935 119.611 92.1102 120.007 92.1102C120.227 92.1102 121.019 91.7141 121.724 91.2298L123.044 90.3054L121.812 90.6136C119.17 91.2298 118.774 88.9408 121.239 87.0479C122.868 85.7714 122.692 85.6833 120.667 86.7838Z" fill="#B61EEF"/>
<path d="M87.5202 91.5379C87.8283 91.67 88.2245 91.626 88.3566 91.4939C88.5326 91.3619 88.2685 91.2298 87.7843 91.2738C87.3001 91.2738 87.168 91.4059 87.5202 91.5379Z" fill="#B61EEF"/>
<path d="M98.085 91.538C98.3491 91.626 98.8774 91.626 99.1855 91.538C99.4496 91.4059 99.2295 91.3179 98.6132 91.3179C97.997 91.3179 97.7769 91.4059 98.085 91.538Z" fill="#B61EEF"/>
</svg>
