<svg width="241" height="217" viewBox="0 0 241 217" fill="none" xmlns="http://www.w3.org/2000/svg">
<g opacity="0.505">
<path opacity="0.505" d="M222.515 162.948C225.588 185.782 151.077 200.677 86.9442 190.282C22.8112 179.888 -6.6103 139.297 23.993 117.668C54.5963 96.0395 219.443 140.112 222.515 162.948Z" fill="#F2F2F2"/>
</g>
<g opacity="0.4">
<path d="M187.238 105.479C189.558 112.159 191.97 117.39 199.091 114.916C206.212 112.443 204.861 106.843 202.541 100.164" fill="#B61EEF"/>
<path d="M195.56 97.9173C195.456 98.4506 195.381 98.9891 195.337 99.5302C194.989 98.5656 194.716 97.5752 194.522 96.5681C194.19 94.8097 193.991 93.0141 193.771 91.2295C193.613 89.9481 192.851 87.8083 193.493 86.5194C193.689 86.2213 193.893 86.6023 193.954 86.7774C193.97 86.8132 193.705 86.0629 193.491 86.2839C192.227 87.6077 192.591 90.2626 192.53 91.6766C192.398 93.7185 192.515 95.768 192.878 97.78C192.979 98.2758 193.11 98.7653 193.268 99.2459C193.171 99.137 193.078 99.0257 192.98 98.9178C191.32 97.1027 189.42 95.5199 187.333 94.212C186.806 93.8829 180.611 90.9693 180.489 91.7869C180.569 91.8804 180.679 91.9418 180.801 91.9599C180.81 91.9652 180.809 91.961 180.801 91.9511C181.224 92.2926 182.23 92.6978 182.604 92.9961C183.514 93.7589 184.379 94.574 185.193 95.4372C186.938 97.2008 188.617 99.0114 190.269 100.836C190.654 101.262 191.047 101.681 191.443 102.097C187.97 99.5784 183.829 97.6376 178.971 97.3896C180.679 97.6202 182.115 98.6713 183.465 99.3892C185.093 100.255 186.772 101.065 188.403 101.929C190.326 102.949 192.523 103.961 194.448 105.159C196.697 107.426 198.91 109.709 200.686 112.298C200.023 111.421 199.844 109.953 199.429 108.936C199.096 108.127 198.718 107.337 198.299 106.568C198.583 106.856 198.833 107.176 199.044 107.52C198.786 106.965 198.519 106.417 198.25 105.873C198.251 105.275 198.261 104.715 198.243 104.263C198.121 101.923 198.211 99.5763 198.511 97.2505C198.825 95.0277 199.268 92.8243 199.836 90.6511C200.102 89.6284 200.376 88.6062 200.647 87.5835C200.823 86.9142 200.869 85.9239 201.197 85.2286C198.948 89.356 196.402 93.611 195.56 97.9172" fill="#B61EEF"/>
</g>
<path d="M177.999 174.991L102.328 199.97C99.4406 200.923 96.3112 199.336 95.3525 196.431L59.7753 88.6547C58.8166 85.7505 60.386 82.6121 63.2739 81.6589L138.945 56.6798C141.833 55.7265 144.962 57.3138 145.921 60.218L181.498 167.995C182.432 170.907 180.887 174.037 177.999 174.991Z" fill="#37D2F4"/>
<g filter="url(#filter0_f_59_3367)">
<path d="M143.552 77.0654L72.0654 102.204L77.472 118.364L100.901 189.589L105.106 181.808L127.333 179.414L150.16 171.034H159.772C163.777 170.236 172.267 168.52 174.19 168.042C176.112 167.563 170.585 156.67 167.582 151.283L162.776 142.903L161.574 132.13L154.966 110.583L143.552 77.0654Z" fill="black" fill-opacity="0.16"/>
</g>
<path d="M173.337 167.708C170.836 171.459 156.458 167.708 147.706 171.459C138.955 175.21 104.072 194.562 100.259 192.301C96.4459 190.039 93.3875 161.347 87.0689 142.078C80.5431 122.177 67.2329 92.2523 67.2329 92.2523C66.981 91.4893 67.3897 90.672 68.1484 90.4216L140.246 66.622C141.005 66.3716 141.82 66.7849 142.072 67.5479C142.072 67.5479 154.165 97.5357 158.334 117.698C160.284 127.132 159.584 126.45 162.084 142.078C164.585 157.706 175.837 163.958 173.337 167.708Z" fill="white"/>
<g opacity="0.12" filter="url(#filter1_f_59_3367)">
<path d="M99.5484 212.39C109.667 212.3 117.847 209.766 117.82 206.732C117.792 203.697 109.568 201.311 99.4499 201.401C89.3318 201.492 81.1514 204.025 81.1786 207.06C81.2058 210.094 89.4302 212.481 99.5484 212.39Z" fill="black" fill-opacity="0.51"/>
</g>
<g opacity="0.3">
<path d="M138.243 82.5183L121.454 88.0605L121.899 89.4096L138.689 83.8673L138.243 82.5183Z" fill="url(#paint0_linear_59_3367)"/>
<path d="M139.609 86.656L122.819 92.1982L123.265 93.5473L140.054 88.005L139.609 86.656Z" fill="url(#paint1_linear_59_3367)"/>
<path d="M140.969 90.777L124.179 96.3193L124.625 97.6684L141.414 92.1261L140.969 90.777Z" fill="url(#paint2_linear_59_3367)"/>
</g>
<g opacity="0.3">
<path d="M107.859 125.829L91.0693 131.371L91.5147 132.72L108.304 127.178L107.859 125.829Z" fill="url(#paint3_linear_59_3367)"/>
<path d="M109.225 129.966L92.4355 135.509L92.8809 136.858L109.671 131.316L109.225 129.966Z" fill="url(#paint4_linear_59_3367)"/>
<path d="M110.585 134.088L93.7949 139.63L94.2403 140.979L111.03 135.437L110.585 134.088Z" fill="url(#paint5_linear_59_3367)"/>
</g>
<g opacity="0.3">
<path d="M158.02 149.634L141.23 155.177L141.676 156.526L158.465 150.984L158.02 149.634Z" fill="url(#paint6_linear_59_3367)"/>
<path d="M159.386 153.772L142.596 159.314L143.042 160.664L159.831 155.121L159.386 153.772Z" fill="url(#paint7_linear_59_3367)"/>
<path d="M160.746 157.893L143.956 163.436L144.401 164.785L161.191 159.242L160.746 157.893Z" fill="url(#paint8_linear_59_3367)"/>
</g>
<path d="M123.906 58.3978L111.107 62.6229L110.498 60.777C108.645 55.1654 102.615 52.1067 97.0347 53.9486L96.8389 54.0133C91.2591 55.8552 88.2346 61.903 90.087 67.5146L90.6963 69.3605L77.8969 73.5856C77.2361 73.8037 76.8764 74.5229 77.0958 75.1875L81.3855 88.1827C81.6049 88.8472 82.322 89.211 82.9828 88.9928L129.017 73.797C129.678 73.5789 130.037 72.8597 129.818 72.1951L125.528 59.1999C125.284 58.5434 124.567 58.1797 123.906 58.3978ZM100.503 64.7857C98.6435 65.3997 96.6225 64.3746 96.005 62.5041C95.3876 60.6336 96.4012 58.6067 98.2611 57.9927C100.121 57.3788 102.142 58.4039 102.76 60.2744C103.377 62.1449 102.363 64.1717 100.503 64.7857Z" fill="#37D2F4"/>
<path d="M128.818 69.249L80.4102 85.2285L81.0845 87.2713L129.492 71.2918L128.818 69.249Z" fill="white" fill-opacity="0.17"/>
<path d="M129.743 72.7917L81.8249 88.6097C81.678 88.6581 81.515 88.5755 81.4663 88.4278L81.2632 87.8125L129.671 71.833L129.89 72.4975C129.931 72.6206 129.866 72.7513 129.743 72.7917Z" fill="white" fill-opacity="0.17"/>
<rect opacity="0.3" x="25.8057" y="107.714" width="44.8946" height="24.8466" rx="2" transform="rotate(-14.7679 25.8057 107.714)" fill="#B61EEF"/>
<rect opacity="0.4" x="165.835" y="137.27" width="44.8946" height="24.8466" rx="1" transform="rotate(-14.7679 165.835 137.27)" fill="#B61EEF"/>
<rect opacity="0.4" x="165.992" y="27.5059" width="44.8946" height="5.44854" rx="1" transform="rotate(71.2193 165.992 27.5059)" fill="#37D2F4"/>
<g opacity="0.4">
<path opacity="0.7" d="M75.8873 159.253C73.0623 160.407 71.8088 162.901 71.7918 165.835C71.7825 167.417 72.1988 168.905 72.4099 170.46C72.7271 172.799 72.4236 174.745 71.2867 176.847C70.9574 177.435 70.7337 178.076 70.6255 178.74C70.2482 179.461 70.0028 180.242 69.9007 181.048C69.7713 182.132 70.0122 183.308 70.8123 184.092C71.0273 184.303 71.5245 184.706 71.945 184.826C71.5245 187.986 71.7717 191.221 72.8115 194.198C73.4392 195.995 74.1076 197.78 74.7896 199.558C74.9728 200.035 75.3887 200.787 75.3676 199.895C75.3484 199.079 74.6997 197.996 74.4254 197.225C73.0893 193.47 71.8813 190.053 72.3208 186.005C72.3669 185.581 72.4231 185.156 72.4892 184.732C72.4977 184.722 72.5057 184.712 72.5132 184.702C72.5218 184.705 72.5294 184.709 72.5385 184.711C72.5437 184.687 72.5517 184.657 72.5615 184.624C72.5975 184.547 72.6238 184.466 72.6398 184.382C72.7182 184.146 72.8037 183.87 72.7651 183.746C72.7648 183.745 72.7643 183.744 72.764 183.743C73.2552 181.858 73.8489 180 74.5426 178.179C74.5375 178.192 75.2438 176.112 75.3487 177.104C75.3992 177.582 74.7572 178.728 74.5393 179.321C73.9977 180.801 73.5319 182.307 73.1435 183.834C73.0558 183.93 73.0003 184.279 72.9626 184.538C72.9383 184.671 72.9183 184.803 72.8948 184.921C76.0174 184.946 77.6188 182.375 78.4235 179.722C78.4245 179.719 78.4253 179.716 78.4262 179.713C78.6905 178.967 78.9673 178.221 79.3994 177.56C80.1204 176.456 81.1188 175.983 82.1426 175.226C84.9348 173.163 84.978 168.705 84.4449 165.577C83.8433 162.049 79.8557 157.618 75.8873 159.253Z" fill="url(#paint9_linear_59_3367)"/>
<path opacity="0.7" d="M67.1427 151.629C65.151 155.655 65.0771 160.38 65.2202 164.754C65.3804 169.639 65.9942 174.456 67.4503 179.123C68.4067 182.19 69.3065 185.295 70.4627 188.294C70.8706 189.362 71.3322 190.409 71.8458 191.43C71.8882 191.514 73.0415 193.788 73.2341 193.11C73.3434 192.725 72.0425 190.75 71.881 190.404C70.9932 188.443 70.2363 186.426 69.6153 184.366C68.5579 180.985 67.3849 177.659 66.6548 174.187C66.5277 173.664 66.4363 173.134 66.3811 172.599C66.3417 172.036 66.2522 172.315 66.6013 171.976C66.9404 171.646 67.448 171.516 67.786 171.13C69.1265 169.6 69.1543 166.76 69.2773 164.863C69.4174 162.694 69.2202 160.491 68.9391 158.346C68.736 156.777 68.4488 155.22 68.079 153.682C67.9382 153.195 67.8281 152.7 67.749 152.199C67.7341 152.065 67.79 151.801 67.7496 151.691C67.6643 151.458 67.4762 151.364 67.4009 151.169C67.3119 151.32 67.2262 151.473 67.1438 151.628" fill="url(#paint10_linear_59_3367)"/>
<path opacity="0.7" d="M64.0161 197.788C64.7965 200.231 66.5215 202.261 68.8117 203.433C71.1019 204.605 73.7696 204.822 76.2281 204.037C78.6865 203.251 80.7343 201.528 81.9209 199.245C83.1075 196.963 83.3357 194.308 82.5553 191.865" fill="url(#paint11_linear_59_3367)"/>
<path opacity="0.7" d="M84.3402 195.049C83.9888 195.174 83.6036 195.164 83.2604 195.02C82.9432 194.869 82.6709 194.639 82.4699 194.352C82.0136 193.746 81.7233 192.914 81.5311 192.364C81.0309 190.933 80.4005 189.475 78.7044 188.756C78.5047 188.671 78.2966 188.597 78.0954 188.524C77.9158 188.46 77.7304 188.393 77.5515 188.32L77.4661 188.285C76.8917 188.052 76.2978 187.81 76.0425 187.209C75.9005 186.875 75.8755 186.604 75.9681 186.404C76.0193 186.31 76.0902 186.227 76.1762 186.162C76.2621 186.097 76.3611 186.05 76.4663 186.027C76.6278 185.978 76.7939 185.946 76.9619 185.932C76.989 185.93 77.0642 185.933 77.1687 185.939C77.4674 185.954 77.9654 185.98 78.2033 185.904C78.2763 185.88 78.319 185.849 78.3303 185.809C78.3336 185.785 78.3309 185.761 78.3224 185.738C78.314 185.716 78.3001 185.696 78.282 185.679C78.1853 185.566 77.9602 185.511 77.6129 185.515C76.9544 185.649 76.3337 185.78 75.9757 185.894C75.8975 185.917 75.8217 185.947 75.7495 185.984C74.646 186.622 73.9581 187.818 73.7048 189.541C73.4549 191.24 73.7024 192.962 73.8722 193.837C73.9181 194.075 73.9728 194.33 74.0392 194.618L73.5494 194.775C73.3806 194.156 73.2467 193.527 73.1483 192.893C73.0263 192.031 72.8762 190.343 73.2413 188.716C73.3824 188.031 73.6453 187.376 74.0176 186.782C74.3848 186.204 74.9063 185.739 75.5236 185.439C75.615 185.4 75.7084 185.367 75.8034 185.338C75.9877 185.279 76.212 185.215 76.4346 185.158C76.6095 184.972 76.8241 184.827 77.0625 184.733C77.1571 184.695 77.2554 184.66 77.3546 184.628C77.9269 184.452 78.5248 184.375 79.1226 184.398C79.7508 184.42 80.3735 184.52 80.9762 184.695C81.5828 184.868 82.1685 185.105 82.723 185.404C83.2449 185.681 83.731 186.02 84.1706 186.413C84.8178 187.001 85.308 187.797 85.6275 188.778C85.9104 189.677 86.0448 190.617 86.0253 191.561C86.0248 192.25 85.9113 192.936 85.6892 193.59C85.4053 194.356 84.9591 194.844 84.3634 195.042L84.3402 195.049Z" fill="url(#paint12_linear_59_3367)"/>
</g>
<defs>
<filter id="filter0_f_59_3367" x="57.0654" y="62.0654" width="132.521" height="142.523" filterUnits="userSpaceOnUse" color-interpolation-filters="sRGB">
<feFlood flood-opacity="0" result="BackgroundImageFix"/>
<feBlend mode="normal" in="SourceGraphic" in2="BackgroundImageFix" result="shape"/>
<feGaussianBlur stdDeviation="7.5" result="effect1_foregroundBlur_59_3367"/>
</filter>
<filter id="filter1_f_59_3367" x="77.1787" y="197.398" width="44.6411" height="18.9941" filterUnits="userSpaceOnUse" color-interpolation-filters="sRGB">
<feFlood flood-opacity="0" result="BackgroundImageFix"/>
<feBlend mode="normal" in="SourceGraphic" in2="BackgroundImageFix" result="shape"/>
<feGaussianBlur stdDeviation="2" result="effect1_foregroundBlur_59_3367"/>
</filter>
<linearGradient id="paint0_linear_59_3367" x1="129.848" y1="85.2894" x2="130.294" y2="86.6385" gradientUnits="userSpaceOnUse">
<stop stop-color="#ABABAB" stop-opacity="0.73"/>
<stop offset="1" stop-color="#B7B6B6"/>
</linearGradient>
<linearGradient id="paint1_linear_59_3367" x1="131.214" y1="89.4271" x2="131.66" y2="90.7762" gradientUnits="userSpaceOnUse">
<stop stop-color="#ABABAB" stop-opacity="0.73"/>
<stop offset="1" stop-color="#B7B6B6"/>
</linearGradient>
<linearGradient id="paint2_linear_59_3367" x1="132.574" y1="93.5482" x2="133.019" y2="94.8973" gradientUnits="userSpaceOnUse">
<stop stop-color="#ABABAB" stop-opacity="0.73"/>
<stop offset="1" stop-color="#B7B6B6"/>
</linearGradient>
<linearGradient id="paint3_linear_59_3367" x1="99.4642" y1="128.6" x2="99.9095" y2="129.949" gradientUnits="userSpaceOnUse">
<stop stop-color="#ABABAB" stop-opacity="0.73"/>
<stop offset="1" stop-color="#B7B6B6"/>
</linearGradient>
<linearGradient id="paint4_linear_59_3367" x1="100.83" y1="132.738" x2="101.276" y2="134.087" gradientUnits="userSpaceOnUse">
<stop stop-color="#ABABAB" stop-opacity="0.73"/>
<stop offset="1" stop-color="#B7B6B6"/>
</linearGradient>
<linearGradient id="paint5_linear_59_3367" x1="102.19" y1="136.859" x2="102.635" y2="138.208" gradientUnits="userSpaceOnUse">
<stop stop-color="#ABABAB" stop-opacity="0.73"/>
<stop offset="1" stop-color="#B7B6B6"/>
</linearGradient>
<linearGradient id="paint6_linear_59_3367" x1="149.625" y1="152.406" x2="150.071" y2="153.755" gradientUnits="userSpaceOnUse">
<stop stop-color="#ABABAB" stop-opacity="0.73"/>
<stop offset="1" stop-color="#B7B6B6"/>
</linearGradient>
<linearGradient id="paint7_linear_59_3367" x1="150.991" y1="156.543" x2="151.436" y2="157.892" gradientUnits="userSpaceOnUse">
<stop stop-color="#ABABAB" stop-opacity="0.73"/>
<stop offset="1" stop-color="#B7B6B6"/>
</linearGradient>
<linearGradient id="paint8_linear_59_3367" x1="152.351" y1="160.664" x2="152.796" y2="162.013" gradientUnits="userSpaceOnUse">
<stop stop-color="#ABABAB" stop-opacity="0.73"/>
<stop offset="1" stop-color="#B7B6B6"/>
</linearGradient>
<linearGradient id="paint9_linear_59_3367" x1="72.4153" y1="160.345" x2="84.2653" y2="197.437" gradientUnits="userSpaceOnUse">
<stop stop-color="#EA96FF"/>
<stop offset="1" stop-color="#E45DDF"/>
</linearGradient>
<linearGradient id="paint10_linear_59_3367" x1="61.3557" y1="154.074" x2="78.8547" y2="190.489" gradientUnits="userSpaceOnUse">
<stop stop-color="#EA96FF"/>
<stop offset="1" stop-color="#E45DDF"/>
</linearGradient>
<linearGradient id="paint11_linear_59_3367" x1="73.2857" y1="194.827" x2="76.2281" y2="204.037" gradientUnits="userSpaceOnUse">
<stop stop-color="#EA96FF"/>
<stop offset="1" stop-color="#E45DDF"/>
</linearGradient>
<linearGradient id="paint12_linear_59_3367" x1="77.3094" y1="184.643" x2="80.9775" y2="196.124" gradientUnits="userSpaceOnUse">
<stop stop-color="#EA96FF"/>
<stop offset="1" stop-color="#E45DDF"/>
</linearGradient>
</defs>
</svg>
