<svg width="340" height="260" viewBox="0 0 340 260" fill="none" xmlns="http://www.w3.org/2000/svg">
<g clip-path="url(#clip0_12_1054)">
<path opacity="0.1" d="M113.036 259.854C129.594 259.854 143.016 257.526 143.016 254.655C143.016 251.784 129.594 249.457 113.036 249.457C96.4781 249.457 83.0554 251.784 83.0554 254.655C83.0554 257.526 96.4781 259.854 113.036 259.854Z" fill="#37D2F4"/>
<path opacity="0.1" d="M276.005 260C296.667 260 313.416 257.673 313.416 254.802C313.416 251.931 296.667 249.603 276.005 249.603C255.344 249.603 238.594 251.931 238.594 254.802C238.594 257.673 255.344 260 276.005 260Z" fill="#37D2F4"/>
<path opacity="0.1" d="M4.25826 112.339H35.4848V158.287H6.54434C6.46742 158.759 6.39357 159.234 6.31357 159.709H35.4848V196.765C35.4325 196.749 35.3864 196.729 35.3371 196.709C34.5126 196.357 33.6941 195.985 32.8757 195.586L32.3526 195.33C31.5322 194.912 30.7117 194.469 29.8912 194.002C29.605 193.839 29.3189 193.67 29.0358 193.497C24.4809 190.742 20.3429 187.252 16.7655 183.147C16.6609 183.037 16.5624 182.921 16.4578 182.814C15.9594 182.23 15.4702 181.639 14.9963 181.034L14.4733 180.37C13.9133 179.629 13.3718 178.868 12.8456 178.098C12.7687 177.985 12.6949 177.872 12.6149 177.766C10.4751 174.563 8.69841 171.094 7.32277 167.435C7.27969 167.326 7.24277 167.206 7.20277 167.103C6.78022 165.929 6.40588 164.745 6.07974 163.549C5.9382 163.047 5.80282 162.552 5.6859 162.031C5.64283 161.878 5.60591 161.729 5.57206 161.579C3.82443 154.215 3.61829 146.565 3.61829 138.968C3.61829 138.082 3.61829 137.191 3.61829 136.311C3.61829 133.239 3.65213 130.146 3.70136 127.057C3.70136 126.256 3.73213 125.459 3.74751 124.655C3.79059 122.616 3.85212 120.576 3.93212 118.537C3.95058 117.969 3.9752 117.404 4.00289 116.84C4.00289 116.514 4.01827 116.188 4.04904 115.863C4.12288 114.68 4.18442 113.508 4.25826 112.339Z" fill="#37D2F4"/>
<path opacity="0.1" d="M35.4848 61.1784H18.3562C21.1405 56.4735 24.1828 51.9525 27.4666 47.6393C30.0112 44.2645 32.6972 40.9761 35.4848 37.8072V61.1784Z" fill="#37D2F4"/>
<path opacity="0.1" d="M35.4849 62.6001V110.917H4.35681C4.35681 110.778 4.37835 110.635 4.38758 110.495C4.41527 110.113 4.44296 109.731 4.47373 109.353C4.50757 108.907 4.5445 108.459 4.58449 108.024C4.62449 107.589 4.66757 107.057 4.71372 106.576C4.75987 106.094 4.80295 105.606 4.85525 105.124C4.90756 104.642 4.95371 104.161 5.0091 103.682C5.06448 103.204 5.11371 102.719 5.17217 102.241C5.21832 101.842 5.26755 101.447 5.31678 101.048C5.38754 100.487 5.46139 99.9223 5.54138 99.3643C5.54138 99.2812 5.56292 99.1949 5.57523 99.1152C6.13681 95.0301 6.90199 90.9806 7.86745 86.9844C8.87806 82.7925 10.1686 78.685 11.7289 74.6943C13.3871 70.5195 15.3288 66.4827 17.5379 62.6167L35.4849 62.6001Z" fill="#37D2F4"/>
<path opacity="0.1" d="M42.9399 112.335V158.287H109.636V112.335H42.9399ZM42.9399 159.706V199.167C43.3215 199.253 43.6999 199.336 44.0753 199.406C44.586 199.512 45.0937 199.609 45.6137 199.692C45.7121 199.708 45.8137 199.725 45.9214 199.735C46.1244 199.772 46.3337 199.801 46.5367 199.831C47.0506 199.908 47.5613 199.971 48.0751 200.021C48.3182 200.047 48.5644 200.07 48.8105 200.09L49.4043 200.14C49.7274 200.167 50.0474 200.187 50.3643 200.197C50.5612 200.197 50.7581 200.217 50.9612 200.223C51.115 200.223 51.2689 200.223 51.4289 200.223C51.5889 200.223 51.8165 200.223 52.0104 200.223C52.275 200.223 52.5396 200.223 52.8011 200.223H53.155C53.4196 200.223 53.6842 200.223 53.9457 200.197H53.9642C54.1457 200.197 54.3303 200.197 54.5149 200.17C54.5661 200.173 54.6175 200.173 54.6687 200.17C54.8226 200.17 54.9764 200.17 55.1241 200.147H55.2318L56.2625 200.06C56.601 200.027 56.9425 199.984 57.2871 199.944L57.9886 199.855C60.8426 199.423 63.6649 198.775 66.4345 197.915C72.6558 196.041 78.7417 193.421 84.96 191.501C92.9997 189.026 101.882 187.81 109.651 190.836V159.706H42.9399ZM109.636 61.1784V0.00326545C102.334 -0.0821424 95.0516 0.839886 87.966 2.74696C71.0774 7.32754 55.9241 17.2626 42.9399 29.9514V61.175H46.2875V62.5934H42.9399V110.917H109.636V62.5967H60.0316V61.1784H109.636ZM195.304 40.5143C191.125 40.3549 186.972 38.9265 183.215 36.7209C176.031 32.5024 170.292 25.9886 163.88 20.4913C150.558 9.04152 134.035 2.13245 117.085 0.418474V61.1784H212.297L212.534 60.9093L195.304 40.5143ZM203.977 38.8535L213.174 49.7485V35.9968C210.094 36.4087 207.396 37.3886 203.99 38.8402L203.977 38.8535ZM213.174 208.966V159.706H193.578C193.525 159.496 193.473 159.284 193.411 159.071C193.47 159.284 193.519 159.496 193.575 159.706H117.097V195.33C117.823 195.912 118.54 196.523 119.251 197.144C120.017 197.808 120.774 198.509 121.534 199.197L122.3 199.881C122.666 200.213 123.035 200.545 123.408 200.858C124.146 201.504 124.892 202.142 125.645 202.771C126.017 203.103 126.398 203.402 126.777 203.714C132.785 208.673 139.123 213.149 145.739 217.104C147.222 217.99 148.719 218.854 150.228 219.698C151.234 220.253 152.247 220.804 153.262 221.339C154.788 222.143 156.327 222.918 157.877 223.664C172.174 230.593 187.292 235.347 202.799 237.791C206.243 238.34 209.7 238.772 213.171 239.087V208.963H213.478L213.174 208.966ZM117.097 62.5967V110.917H213.186V62.5967H117.097ZM117.097 112.335V158.287H213.186V112.335H117.097ZM220.644 35.937V51.2765L232.382 37.372C228.493 36.6944 224.581 36.2105 220.644 35.9204V35.937ZM220.644 112.352V158.287H314.102V112.335L220.644 112.352ZM313.761 212.613L314.09 159.706H220.644V239.615C226.664 239.888 232.693 239.81 238.705 239.382H238.81C241.682 239.187 244.54 238.904 247.385 238.532H247.449C262.628 236.625 277.469 232.35 291.509 225.84L313.761 212.613ZM332.123 119.902C331.773 119.009 331.406 118.122 331.034 117.245C330.339 115.584 329.603 113.97 328.847 112.355H321.555V158.287H339.991C339.982 145.28 336.932 131.993 332.133 119.885L332.123 119.902ZM321.555 159.722V205.229C326.748 199.855 331.136 193.706 334.296 186.678C338.095 178.214 339.834 169.049 339.975 159.716L321.555 159.722ZM321.555 98.9623V110.92H328.164C326.164 106.804 323.961 102.807 321.564 98.9457L321.555 98.9623ZM258.172 44.952C257.686 44.7527 257.2 44.5501 256.711 44.3541C251.551 42.2971 246.279 40.5865 240.924 39.2321L222.961 60.514L222.617 60.9093L222.847 61.1817H286.777C277.874 54.5651 268.275 49.1116 258.181 44.9354L258.172 44.952ZM288.651 62.6133H221.955L220.644 63.9088V110.917H232.133H232.152H314.115V88.147C306.7 78.4662 298.143 69.8763 288.66 62.5967L288.651 62.6133Z" fill="#37D2F4"/>
<path opacity="0.1" d="M35.4849 86.9712V110.917H4.35681C4.35681 110.778 4.37835 110.635 4.38758 110.495C4.41527 110.113 4.44296 109.731 4.47373 109.353C4.50757 108.907 4.5445 108.459 4.58449 108.024C4.62449 107.589 4.66757 107.057 4.71372 106.576C4.75987 106.094 4.80295 105.606 4.85525 105.124C4.90756 104.642 4.95371 104.161 5.0091 103.682C5.06448 103.204 5.11371 102.719 5.17217 102.241C5.21832 101.842 5.26755 101.447 5.31678 101.048C5.38754 100.487 5.46139 99.9223 5.54138 99.3643C5.54138 99.2812 5.56292 99.1949 5.57523 99.1152C6.13681 95.0301 6.90199 90.9806 7.86745 86.9845L35.4849 86.9712Z" fill="#37D2F4"/>
<path opacity="0.1" d="M4.25826 112.339H35.4848V158.287H6.54434C6.46742 158.759 6.39357 159.234 6.31357 159.709H35.4848V196.765C35.4325 196.749 35.3864 196.729 35.3371 196.709C34.5126 196.357 33.6941 195.985 32.8757 195.586L32.3526 195.33C31.5322 194.912 30.7117 194.469 29.8912 194.002C29.605 193.839 29.3189 193.67 29.0358 193.497C24.4809 190.742 20.3429 187.252 16.7655 183.147C16.6609 183.037 16.5624 182.921 16.4578 182.814C15.9594 182.23 15.4702 181.639 14.9963 181.034L14.4733 180.37C13.9133 179.629 13.3718 178.868 12.8456 178.098C12.7687 177.985 12.6949 177.872 12.6149 177.766C10.4751 174.563 8.69841 171.094 7.32277 167.435C7.27969 167.326 7.24277 167.206 7.20277 167.103C6.78022 165.929 6.40588 164.745 6.07974 163.549C5.9382 163.047 5.80282 162.552 5.6859 162.031C5.64283 161.878 5.60591 161.729 5.57206 161.579C3.82443 154.215 3.61829 146.565 3.61829 138.968C3.61829 138.082 3.61829 137.191 3.61829 136.311C3.61829 133.239 3.65213 130.146 3.70136 127.057C3.70136 126.256 3.73213 125.459 3.74751 124.655C3.79059 122.616 3.85212 120.576 3.93212 118.537C3.95058 117.969 3.9752 117.404 4.00289 116.84C4.00289 116.514 4.01827 116.188 4.04904 115.863C4.12288 114.68 4.18442 113.508 4.25826 112.339Z" fill="#37D2F4"/>
<path opacity="0.1" d="M66.4191 69.5158V110.917H42.9399V69.5158H46.2875V55.4984H60.0286V69.5158H66.4191Z" fill="#37D2F4"/>
<path opacity="0.1" d="M66.4192 112.335H42.9431V158.284H66.4192V112.335Z" fill="#37D2F4"/>
<path opacity="0.1" d="M42.9399 159.709H66.4191V197.908C63.6495 198.767 60.8272 199.414 57.9732 199.845L57.2717 199.938C56.9271 199.981 56.5856 200.017 56.2472 200.054C55.9087 200.09 55.5579 200.117 55.2164 200.14H55.1087C54.961 200.14 54.8011 200.16 54.6564 200.164H54.4995C54.3149 200.164 54.1303 200.183 53.9457 200.19C53.6842 200.207 53.4226 200.21 53.155 200.213C53.0411 200.213 52.9334 200.213 52.8196 200.213C52.555 200.213 52.2934 200.213 52.0288 200.213H51.4473C51.2904 200.213 51.1396 200.213 50.9766 200.213L50.3827 200.19C50.0751 200.19 49.7428 200.154 49.4228 200.13L48.832 200.084L48.0967 200.011C47.5798 199.961 47.0659 199.898 46.5583 199.821L45.9429 199.728L45.6352 199.682C45.1214 199.596 44.6137 199.503 44.0968 199.396C43.7184 199.326 43.343 199.24 42.9615 199.157L42.9399 159.709Z" fill="#37D2F4"/>
<path opacity="0.1" d="M213.186 64.6263H193.827V110.914H213.186V64.6263Z" fill="#37D2F4"/>
<path opacity="0.1" d="M213.189 112.335V158.287H117.097V138.467H168.28V150.159H193.827V112.335H213.189Z" fill="#37D2F4"/>
<path opacity="0.1" d="M213.494 208.976H213.186V239.12C209.72 238.803 206.263 238.373 202.817 237.828C187.303 235.376 172.179 230.611 157.877 223.671C153.748 221.665 149.703 219.475 145.742 217.101C139.126 213.144 132.787 208.668 126.777 203.711C125.267 202.462 123.777 201.184 122.306 199.878C121.288 198.971 120.276 198.041 119.251 197.138C118.54 196.516 117.823 195.905 117.097 195.321V159.709H193.571C193.519 159.496 193.467 159.284 193.411 159.075C193.47 159.284 193.525 159.496 193.578 159.709H213.186V208.956C213.291 208.959 213.392 208.969 213.494 208.976Z" fill="#37D2F4"/>
<path opacity="0.1" d="M263.677 61.1784H251.062V56.9466H256.717V44.3409C257.207 44.5336 257.695 44.7318 258.181 44.9355V56.9466H263.677V61.1784Z" fill="#37D2F4"/>
<path opacity="0.1" d="M294.069 110.917H232.139C232.139 110.917 232.139 110.917 232.161 110.934L232.133 110.917H220.644V64.6296H223.9V98.8428H238.776V78.5806H251.065V62.6001H263.68V78.5939H275.968V98.8561H294.069V110.917Z" fill="#37D2F4"/>
<path opacity="0.1" d="M220.644 112.335V158.287H294.069V112.335H220.644ZM314.001 212.377L314.102 176.005H294.069V159.729H220.644V239.615C226.664 239.888 232.693 239.81 238.705 239.382H238.81C241.681 239.188 244.54 238.904 247.385 238.532H247.449C262.628 236.625 277.469 232.35 291.509 225.84" fill="#37D2F4"/>
<path opacity="0.1" d="M322.859 159.709H339.988C339.837 169.04 338.102 178.204 334.305 186.668C331.145 193.7 326.754 199.848 321.567 205.219V175.988H322.859V159.709Z" fill="#37D2F4"/>
<path opacity="0.1" d="M339.997 158.287H322.859V119.885H332.133C336.932 131.993 339.982 145.28 339.997 158.287Z" fill="#37D2F4"/>
<path opacity="0.1" d="M213.189 77.4944H202.817V92.0068H213.189V77.4944Z" fill="#37D2F4"/>
<path opacity="0.1" d="M213.189 107.575H202.817V110.917H213.189V107.575Z" fill="#37D2F4"/>
<path opacity="0.1" d="M213.189 112.335H202.817V122.084H213.189V112.335Z" fill="#37D2F4"/>
<path opacity="0.1" d="M213.189 137.656H202.817V152.169H213.189V137.656Z" fill="#37D2F4"/>
<path opacity="0.1" d="M213.189 167.737H202.817V182.25H213.189V167.737Z" fill="#37D2F4"/>
<path opacity="0.1" d="M213.186 208.956C213.291 208.956 213.392 208.956 213.494 208.976H213.186V212.347H202.817V197.818H213.186V208.956Z" fill="#37D2F4"/>
<path opacity="0.1" d="M213.186 227.893V239.103C209.72 238.787 206.263 238.356 202.817 237.811V227.893H213.186Z" fill="#37D2F4"/>
<path opacity="0.1" d="M161.548 157.221H117.097V158.287H161.548V157.221Z" fill="#37D2F4"/>
<path opacity="0.1" d="M161.548 159.706H117.097V163.791H161.548V159.706Z" fill="#37D2F4"/>
<path opacity="0.1" d="M161.548 177.184H117.097V183.754H161.548V177.184Z" fill="#37D2F4"/>
<path opacity="0.1" d="M161.545 197.147V203.718H126.777C125.267 202.473 123.776 201.195 122.303 199.884C121.285 198.978 120.276 198.048 119.248 197.147H161.545Z" fill="#37D2F4"/>
<path opacity="0.1" d="M161.545 217.107V223.671H157.874C153.749 221.662 149.705 219.471 145.742 217.097L161.545 217.107Z" fill="#37D2F4"/>
<path opacity="0.1" d="M247.459 116.79H238.708V126.237H247.459V116.79Z" fill="#37D2F4"/>
<path opacity="0.1" d="M57.9948 72.7744H49.2444V82.2212H57.9948V72.7744Z" fill="#37D2F4"/>
<path opacity="0.1" d="M57.9948 94.7173H49.2444V104.164H57.9948V94.7173Z" fill="#37D2F4"/>
<path opacity="0.1" d="M57.9948 116.66H49.2444V126.107H57.9948V116.66Z" fill="#37D2F4"/>
<path opacity="0.1" d="M57.9948 138.6H49.2444V148.047H57.9948V138.6Z" fill="#37D2F4"/>
<path opacity="0.1" d="M57.9948 160.543H49.2444V169.99H57.9948V160.543Z" fill="#37D2F4"/>
<path opacity="0.1" d="M57.9948 182.486H49.2444V191.932H57.9948V182.486Z" fill="#37D2F4"/>
<path opacity="0.1" d="M280.864 116.79H272.113V126.237H280.864V116.79Z" fill="#37D2F4"/>
<path opacity="0.1" d="M247.459 140.091H238.708V149.538H247.459V140.091Z" fill="#37D2F4"/>
<path opacity="0.1" d="M280.864 140.091H272.113V149.538H280.864V140.091Z" fill="#37D2F4"/>
<path opacity="0.1" d="M247.459 163.389H238.708V172.836H247.459V163.389Z" fill="#37D2F4"/>
<path opacity="0.1" d="M280.864 163.389H272.113V172.836H280.864V163.389Z" fill="#37D2F4"/>
<path opacity="0.1" d="M247.459 186.691H238.708V196.138H247.459V186.691Z" fill="#37D2F4"/>
<path opacity="0.1" d="M280.864 186.691H272.113V196.138H280.864V186.691Z" fill="#37D2F4"/>
<path opacity="0.1" d="M247.459 209.992H238.708V219.439H247.459V209.992Z" fill="#37D2F4"/>
<path opacity="0.1" d="M280.864 209.992H272.113V219.439H280.864V209.992Z" fill="#37D2F4"/>
<path opacity="0.1" d="M238.708 239.382V233.291H247.456V238.515L238.708 239.382Z" fill="#37D2F4"/>
<path opacity="0.1" d="M5.53821 99.1085V104.513H35.4848V99.1085H5.53821ZM8.52272 104.174H6.07973V99.4407H8.54118L8.52272 104.174ZM11.5041 104.174H9.0427V99.4407H11.5041V104.174ZM14.4794 104.174H12.018V99.4407H14.4794V104.174ZM17.4609 104.174H15.0025V99.4407H17.4639L17.4609 104.174ZM20.4392 104.174H17.9778V99.4407H20.4392V104.174ZM23.4206 104.174H20.9592V99.4407H23.4206V104.174ZM26.4021 104.174H23.9406V99.4407H26.4021V104.174ZM29.3804 104.174H26.919V99.4407H29.3804V104.174ZM32.3588 104.174H29.8973V99.4407H32.3588V104.174ZM35.3371 104.174H32.8757V99.4407H35.3371V104.174Z" fill="#37D2F4"/>
<path opacity="0.1" d="M5.53821 114.833V120.238H35.4848V114.833H5.53821ZM8.52272 119.895H6.07973V115.175H8.54118L8.52272 119.895ZM11.5041 119.895H9.0427V115.175H11.5041V119.895ZM14.4794 119.895H12.018V115.175H14.4794V119.895ZM17.4609 119.895H15.0025V115.175H17.4639L17.4609 119.895ZM20.4392 119.895H17.9778V115.175H20.4392V119.895ZM23.4206 119.895H20.9592V115.175H23.4206V119.895ZM26.4021 119.895H23.9406V115.175H26.4021V119.895ZM29.3804 119.895H26.919V115.175H29.3804V119.895ZM32.3588 119.895H29.8973V115.175H32.3588V119.895ZM35.3371 119.895H32.8757V115.175H35.3371V119.895Z" fill="#37D2F4"/>
<path opacity="0.1" d="M5.53821 130.565V135.979H35.4848V130.565H5.53821ZM8.52272 135.627H6.07973V130.904H8.54118L8.52272 135.627ZM11.5041 135.627H9.0427V130.904H11.5041V135.627ZM14.4794 135.627H12.018V130.904H14.4794V135.627ZM17.4609 135.627H15.0025V130.904H17.4639L17.4609 135.627ZM20.4392 135.627H17.9778V130.904H20.4392V135.627ZM23.4206 135.627H20.9592V130.904H23.4206V135.627ZM26.4021 135.627H23.9406V130.904H26.4021V135.627ZM29.3804 135.627H26.919V130.904H29.3804V135.627ZM32.3588 135.627H29.8973V130.904H32.3588V135.627ZM35.3371 135.627H32.8757V130.904H35.3371V135.627Z" fill="#37D2F4"/>
<path opacity="0.1" d="M5.53821 146.296V151.694H35.4848V146.296H5.53821ZM8.52272 151.358H6.07973V146.632H8.54118L8.52272 151.358ZM11.5041 151.358H9.0427V146.632H11.5041V151.358ZM14.4794 151.358H12.018V146.632H14.4794V151.358ZM17.4609 151.358H15.0025V146.632H17.4639L17.4609 151.358ZM20.4392 151.358H17.9778V146.632H20.4392V151.358ZM23.4206 151.358H20.9592V146.632H23.4206V151.358ZM26.4021 151.358H23.9406V146.632H26.4021V151.358ZM29.3804 151.358H26.919V146.632H29.3804V151.358ZM32.3588 151.358H29.8973V146.632H32.3588V151.358ZM35.3371 151.358H32.8757V146.632H35.3371V151.358Z" fill="#37D2F4"/>
<path opacity="0.1" d="M5.66748 162.024C5.78748 162.532 5.92285 163.041 6.06439 163.542V162.363H8.52584V167.086H7.20896C7.24896 167.196 7.28896 167.316 7.32896 167.419H35.4849V162.024H5.66748ZM11.5134 167.086H9.05197V162.363H11.5134V167.086ZM14.4887 167.086H12.0273V162.363H14.4887V167.086ZM17.4701 167.086H15.0025V162.363H17.464L17.4701 167.086ZM20.4485 167.086H17.987V162.363H20.4485V167.086ZM23.4299 167.086H20.9685V162.363H23.4299V167.086ZM26.4113 167.086H23.9499V162.363H26.4113V167.086ZM29.3897 167.086H26.9283V162.363H29.3897V167.086ZM32.3681 167.086H29.9066V162.363H32.3681V167.086ZM35.3464 167.086H32.885V162.363H35.3464V167.086Z" fill="#37D2F4"/>
<path opacity="0.1" d="M12.6211 177.756C12.698 177.862 12.7719 177.981 12.8519 178.088H14.4795V180.356C14.6549 180.582 14.8272 180.808 15.0056 181.021V178.074H17.4671V182.815H16.4702C16.5686 182.924 16.664 183.04 16.7779 183.147H35.4941V177.756H12.6211ZM20.4393 182.815H17.9778V178.094H20.4393V182.815ZM23.4207 182.815H20.9593V178.094H23.4207V182.815ZM26.4021 182.815H23.9407V178.094H26.4021V182.815ZM29.3805 182.815H26.919V178.094H29.3805V182.815ZM32.3588 182.815H29.8974V178.094H32.3588V182.815ZM35.3372 182.815H32.8757V178.094H35.3372V182.815Z" fill="#37D2F4"/>
<path opacity="0.1" d="M29.0482 193.484C29.3282 193.656 29.6144 193.816 29.9036 193.989V193.822H32.365V195.317L32.8881 195.58V193.822H35.3495V196.696C35.3967 196.721 35.4462 196.741 35.4972 196.755V193.484H29.0482Z" fill="#37D2F4"/>
<path opacity="0.1" d="M232.139 110.917H232.158H232.139ZM213.186 208.953H213.494H213.186ZM193.411 159.071C193.47 159.284 193.519 159.496 193.575 159.706C193.525 159.496 193.473 159.284 193.411 159.071ZM232.139 110.907H232.158H232.139ZM46.2998 61.1685V62.5868H60.0439V61.1685H46.2998ZM213.186 208.953H213.494H213.186ZM193.411 159.071C193.47 159.284 193.519 159.496 193.575 159.706C193.525 159.496 193.473 159.284 193.411 159.071ZM232.139 110.907H232.158H232.139ZM213.186 208.943H213.494H213.186ZM193.411 159.071C193.47 159.284 193.519 159.496 193.575 159.706C193.525 159.496 193.473 159.284 193.411 159.071Z" fill="#37D2F4"/>
<path d="M142.026 126.114C142.026 126.114 140.813 125.931 140.813 124.024C140.813 122.118 139.946 118.557 139.946 118.557C139.946 118.54 139.195 112.355 138.158 111.372C137.121 110.389 135.789 104.616 135.789 104.616C135.789 104.616 135.561 101.484 135.097 100.809C134.632 100.135 134.004 98.484 133.078 96.129C132.152 93.7739 128.291 92.143 128.291 92.143C128.291 92.143 121.309 87.7717 119.331 86.3467C119.151 86.2296 118.983 86.0927 118.83 85.9381C118.485 85.4498 116.983 85.4399 116.983 85.4399C116.827 84.3703 116.676 83.1413 116.627 82.0285C116.627 81.9089 116.627 81.7893 116.611 81.6698C118.817 80.262 120.479 78.0423 121.291 75.4184C121.328 75.2922 121.359 75.1593 121.393 75.0331C121.525 74.9861 121.646 74.9098 121.75 74.8091C121.853 74.7085 121.936 74.5856 121.993 74.4485C122.171 74.02 122.174 73.5184 122.396 73.1198C122.654 72.6481 123.146 72.3957 123.534 72.0403C124.512 71.1434 124.765 69.6321 124.719 68.2569C124.688 67.1441 124.522 66.0214 124.586 64.9153L124.605 64.6363C124.623 64.4702 124.645 64.3041 124.672 64.1447C124.823 63.3209 125.152 62.5436 125.337 61.7265C125.522 60.9094 125.54 59.9893 125.109 59.2851C124.479 58.252 123.165 58.0461 122.011 57.9398C120.703 57.8202 119.534 57.9763 118.697 56.8038C118.306 56.1909 117.865 55.6163 117.38 55.0865C117.208 54.9138 115.534 53.811 115.534 53.7379C113.901 52.9211 112.049 52.7677 110.319 53.3061C109.451 53.5784 108.633 54.0235 107.753 54.2461C105.855 54.7311 103.67 54.2062 102.058 55.3788C101.159 56.0431 100.621 57.0994 100.116 58.1291C99.7062 58.9773 99.2898 59.8243 98.8672 60.6702C98.1872 62.062 97.495 63.477 97.2088 65.0183C97.1486 65.3536 97.1116 65.6934 97.0981 66.0347V66.0513C97.0981 66.1742 97.0981 66.2971 97.0981 66.42V66.5761C97.0981 66.6924 97.0981 66.8053 97.1165 66.9083C97.135 67.0113 97.1319 67.0445 97.1411 67.1142C97.1504 67.184 97.1657 67.3401 97.1842 67.4464C97.2027 67.5527 97.2396 67.7387 97.2765 67.8849C97.2919 67.948 97.3134 68.0078 97.3319 68.0675C97.3627 68.1805 97.3996 68.2901 97.4396 68.3997C97.4611 68.4562 97.4826 68.516 97.5073 68.5724C97.5534 68.6887 97.6088 68.8016 97.6642 68.9046C97.6888 68.9511 97.7073 68.9943 97.7319 69.0375C97.8177 69.1919 97.9122 69.3406 98.0149 69.4826C98.6734 70.3695 99.6426 70.9341 100.359 71.7646C100.359 71.7978 100.359 71.831 100.359 71.8609C100.359 71.9539 100.359 72.0436 100.359 72.1366C100.398 73.9886 100.854 75.8025 101.69 77.4206C102.525 79.0386 103.714 80.4118 105.153 81.4206C105.153 81.5469 105.169 81.6764 105.175 81.8026C105.235 82.7886 105.223 83.7782 105.141 84.7622C105.016 84.6029 104.859 84.476 104.682 84.391C104.505 84.3059 104.313 84.2647 104.119 84.2706C103.987 84.2637 103.855 84.276 103.725 84.3072L103.698 84.2839V84.3138C103.021 84.4932 102.187 85.2538 101.39 87.4162C101.39 87.4162 98.9657 90.3659 97.1196 90.243C95.2735 90.1201 90.5998 93.3122 90.5998 93.3122C90.5998 93.3122 86.04 96.5076 85.0616 99.7629C84.5147 101.609 83.859 103.415 83.0986 105.171L77.4618 117.71L76.4219 127.658C76.4219 127.658 76.9972 132.083 76.8834 132.757C76.7696 133.431 79.2495 139.513 79.2495 139.513C79.2495 139.513 87.443 155.055 90.7906 155.853L91.0306 155.67C91.1738 155.751 91.3257 155.812 91.4829 155.853L92.1721 155.328C92.2135 155.913 92.1959 156.501 92.1198 157.082C91.6583 158.616 92.2921 168.631 93.0982 170.594C93.9043 172.557 93.6182 198.297 93.6182 198.297L93.5043 200.569C93.5043 200.569 93.5043 200.642 93.532 200.768L93.5043 201.306L93.5874 201.353C93.6737 202.073 93.6456 202.805 93.5043 203.515C93.2151 204.512 93.0982 207.328 93.0982 207.328C93.0982 207.328 90.7937 223.232 91.8859 226.428C92.9782 229.623 93.9074 233.124 93.9074 233.124C93.9074 233.124 95.0612 237.11 93.9628 237.791C92.8644 238.472 89.7414 239.615 90.3844 241.276C90.969 242.81 93.1874 246.923 93.5166 247.524L93.4889 247.839L93.0367 253.131C93.1099 253.829 93.2854 254.511 93.5566 255.15C94.052 256.303 95.015 257.499 96.8458 257.369C97.1534 257.346 97.5103 257.306 97.8549 257.256C101.206 256.771 105.332 255.157 105.332 255.157C105.117 255.01 104.921 254.835 104.747 254.636C104.582 254.463 104.452 254.257 104.363 254.028C104.275 253.8 104.231 253.554 104.233 253.307C104.282 252.344 102.612 247.753 102.196 246.624C102.132 246.461 102.098 246.368 102.098 246.368C102.098 246.368 105.907 242.07 105.273 238.26C105.273 238.26 101.058 235.602 102.446 234.144C103.833 232.686 106.313 228.497 106.313 228.497C106.313 228.497 106.427 212.836 106.313 210.497C106.194 208.874 106.266 207.241 106.525 205.638C106.572 205.395 106.627 205.159 106.685 204.927C108.604 205.236 110.542 205.395 112.482 205.402C113.19 205.402 113.91 205.402 114.636 205.355C114.636 205.577 114.645 205.816 114.664 206.073C114.824 209.952 115.122 216.755 115.365 219.283C115.71 222.907 117.614 232.673 117.614 232.673C117.614 232.673 113.981 235.19 118.248 241.395C118.248 241.395 118.248 243.644 117.965 243.97C117.663 245.034 117.419 246.116 117.236 247.212C117.057 248.381 116.983 249.563 117.273 250.178C117.965 251.646 122.119 251.526 122.119 251.526L122.22 251.507C123.004 251.419 123.797 251.5 124.552 251.746C125.306 251.992 126.008 252.397 126.617 252.938C128.195 254.307 134.186 253.705 137.429 253.27C138.7 253.098 139.549 252.938 139.549 252.938C139.59 252.783 139.605 252.621 139.592 252.46C139.558 251.6 138.933 249.713 134.7 248.029C134.7 248.029 130.718 245.139 130.774 242.621H130.691H130.229C130.565 242.601 130.78 242.621 130.78 242.621C130.78 242.621 129.22 236.476 129.857 235.978C130.494 235.479 128.586 228.67 128.586 228.67C128.586 228.67 127.494 217.244 127.435 216.443C127.438 215.756 127.534 215.073 127.722 214.417L127.435 208.152C127.435 208.152 127.38 206.069 127.435 205.392C127.426 204.804 127.382 204.217 127.303 203.635C127.275 203.402 127.248 203.16 127.217 202.921C128.709 202.512 129.678 202.133 129.678 202.133L129.506 180.327C130.774 177.669 131.008 171.84 131.001 167.704C131.001 165.047 130.891 163.08 130.891 163.08L132.623 160.028C132.623 160.028 133.023 156.374 132.389 155.573C132.109 155.211 132.235 154.836 132.466 154.527C132.586 154.425 132.712 154.331 132.844 154.248C132.844 154.248 132.826 154.218 132.804 154.175C132.925 154.066 133.054 153.967 133.189 153.879C133.189 153.879 132.574 152.85 133.124 152.415C133.641 152.793 134.103 153.079 134.454 153.311C134.429 153.554 134.404 153.693 134.404 153.693L134.552 153.361C134.891 153.567 135.097 153.693 135.097 153.693C135.097 153.693 137.81 147.857 137.752 146.997C137.694 146.137 139.598 142.513 139.598 142.513C139.598 142.513 139.829 140.609 140.869 139.812C141.909 139.015 141.675 133.239 141.675 133.239C141.675 133.239 141.964 130.229 142.656 129C143.349 127.771 142.026 126.114 142.026 126.114ZM90.1014 123.553L90.1537 124.944C89.846 124.41 89.6245 124.024 89.6245 124.024L90.1014 123.553Z" fill="url(#paint0_linear_12_1054)"/>
<path d="M135.244 151.172L134.58 154.228C134.58 154.228 129.257 151.295 128.297 147.568C127.337 143.841 129.903 142.426 129.903 142.426L134.863 144.695L135.244 151.172Z" fill="white"/>
<path opacity="0.1" d="M135.244 151.172L134.58 154.228C134.58 154.228 129.257 151.295 128.297 147.568C127.337 143.841 129.903 142.426 129.903 142.426L134.863 144.695L135.244 151.172Z" fill="black"/>
<path d="M105.372 255.177C105.372 255.177 100.449 257.13 97.0642 257.376C95.2674 257.505 94.3228 256.316 93.8367 255.17C93.5711 254.533 93.3998 253.855 93.329 253.161L93.769 247.896L94.0028 245.092L101.193 243.076L102.212 246.438L102.307 246.693C102.716 247.816 104.356 252.383 104.307 253.337C104.305 253.581 104.349 253.823 104.435 254.048C104.522 254.274 104.65 254.478 104.812 254.649C104.977 254.85 105.165 255.027 105.372 255.177Z" fill="white"/>
<path d="M138.998 252.5C139.01 252.66 138.996 252.82 138.955 252.975C138.955 252.975 128.426 254.871 126.272 252.975C125.665 252.421 124.957 252.01 124.194 251.768C123.431 251.527 122.63 251.46 121.842 251.573C121.842 251.573 117.768 251.693 117.088 250.244C116.805 249.636 116.879 248.457 117.054 247.295C117.233 246.205 117.472 245.128 117.768 244.069L117.931 243.93L118.9 243.089L130.248 242.727H130.334C130.278 245.232 134.186 248.105 134.186 248.105C138.337 249.766 138.949 251.643 138.998 252.5Z" fill="white"/>
<path opacity="0.1" d="M138.998 252.5C139.009 252.66 138.993 252.821 138.952 252.975C138.952 252.975 128.426 254.871 126.272 252.975C125.665 252.421 124.958 252.01 124.196 251.769C123.433 251.528 122.633 251.461 121.845 251.573C121.845 251.573 117.768 251.692 117.091 250.244C116.808 249.633 116.879 248.457 117.054 247.295C118.623 247.464 121.1 247.886 122.072 248.892C123.543 250.424 126.035 251.952 127.565 252.071C128.761 252.154 135.921 252.4 138.998 252.5Z" fill="black"/>
<path opacity="0.1" d="M105.372 255.177C105.372 255.177 100.449 257.13 97.0642 257.376C95.2674 257.505 94.3228 256.316 93.8397 255.167C95.092 255.622 96.8304 256.1 97.7442 255.662C98.8272 255.144 102.667 254.808 104.821 254.665C104.985 254.859 105.17 255.031 105.372 255.177Z" fill="black"/>
<path d="M112.676 97.7798C108.615 96.0758 103.39 90.4456 104.695 87.8148C104.984 87.151 105.157 86.4345 105.202 85.7023C105.286 84.7083 105.299 83.7088 105.239 82.7128C105.148 81.0815 104.966 79.4576 104.695 77.8499C104.695 77.8499 117.374 78.1588 116.636 80.175C116.42 80.7663 116.387 81.7927 116.445 82.942C116.503 84.0913 116.657 85.39 116.817 86.4895C117.039 87.9975 117.26 89.1468 117.26 89.1468C117.26 89.1468 116.485 90.3194 116.03 90.3825C115.574 90.4456 118.503 100.208 112.676 97.7798Z" fill="#CF6F80"/>
<path opacity="0.1" d="M102.298 246.693L102.202 246.806C98.4118 241.857 93.8273 248.025 93.8273 248.025L93.7596 247.896L93.9935 245.092L101.184 243.076L102.202 246.438L102.298 246.693Z" fill="black"/>
<path opacity="0.1" d="M130.337 243.076C130.337 243.076 127.568 243.013 126.091 244.421C124.614 245.83 117.476 244.727 117.783 244.421C117.875 244.27 117.93 244.097 117.943 243.917L118.913 243.076L130.26 242.714C130.303 242.937 130.337 243.076 130.337 243.076Z" fill="black"/>
<path d="M107.015 204.209C106.808 204.76 106.652 205.33 106.547 205.913C106.29 207.51 106.219 209.134 106.335 210.75C106.448 213.075 106.335 228.657 106.335 228.657C106.335 228.657 103.901 232.812 102.544 234.277C101.187 235.742 105.313 238.373 105.313 238.373C105.928 242.159 102.199 246.438 102.199 246.438C98.4087 241.488 93.8243 247.66 93.8243 247.66C93.8243 247.66 91.332 243.01 90.7105 241.349C90.089 239.688 93.1443 238.539 94.2181 237.864C95.2919 237.19 94.1658 233.214 94.1658 233.214C94.1658 233.214 93.2581 229.73 92.1812 226.551C91.1044 223.372 93.3689 207.548 93.3689 207.548C93.3689 207.548 93.4858 204.737 93.7658 203.758C93.9071 203.05 93.9352 202.323 93.8489 201.605C93.8304 201.363 93.8089 201.16 93.7935 201.024C93.7781 200.888 93.7658 200.825 93.7658 200.825L93.8089 200.745L95.3473 197.649C95.3473 197.649 107.753 202.26 107.015 204.209Z" fill="#37D2F4"/>
<path d="M130.337 242.711C130.337 242.711 127.568 242.648 126.091 244.039C124.614 245.431 117.476 244.345 117.783 244.039C118.091 243.734 118.067 241.472 118.067 241.472C113.879 235.3 117.451 232.796 117.451 232.796C117.451 232.796 115.581 223.08 115.242 219.476C115.005 216.958 114.713 210.192 114.556 206.329C114.488 204.668 114.448 203.525 114.448 203.525L117.87 202.781L118.31 202.685L126.562 200.898C126.562 200.898 126.789 202.558 126.943 203.917C127.02 204.497 127.063 205.082 127.072 205.668C127.017 206.332 127.072 208.411 127.072 208.411L127.352 214.646C127.169 215.3 127.075 215.979 127.072 216.662C127.128 217.456 128.202 228.823 128.202 228.823C128.202 228.823 130.069 235.606 129.432 236.094C128.795 236.582 130.337 242.711 130.337 242.711Z" fill="#37D2F4"/>
<path opacity="0.1" d="M116.636 80.175C116.42 80.7663 116.387 81.7927 116.445 82.942C114.747 84.0461 112.794 84.6106 110.812 84.5706C108.83 84.5307 106.898 83.8879 105.239 82.7161C105.148 81.0837 104.966 79.4587 104.695 77.8499C104.695 77.8499 117.374 78.1521 116.636 80.175Z" fill="black"/>
<path d="M121.537 72.8341C121.54 74.0311 121.365 75.2208 121.02 76.3584C120.249 78.9074 118.669 81.08 116.557 82.4925C114.446 83.9049 111.941 84.4661 109.483 84.0769C107.026 83.6878 104.775 82.3733 103.128 80.3658C101.482 78.3583 100.546 75.7871 100.486 73.1065C100.486 73.0135 100.486 72.9272 100.486 72.8341C100.462 71.3253 100.716 69.8265 101.235 68.425C101.753 67.0235 102.525 65.7475 103.504 64.6713C104.484 63.5952 105.653 62.7405 106.942 62.157C108.231 61.5736 109.615 61.2731 111.013 61.2731C112.411 61.2731 113.794 61.5736 115.084 62.157C116.373 62.7405 117.541 63.5952 118.521 64.6713C119.501 65.7475 120.273 67.0235 120.791 68.425C121.309 69.8265 121.564 71.3253 121.54 72.8341H121.537Z" fill="#CF6F80"/>
<path opacity="0.1" d="M112.676 97.7799C108.615 96.0758 103.39 90.4456 104.695 87.8148C104.984 87.151 105.157 86.4345 105.202 85.7023L110.762 90.6349L114.202 93.6809L116.817 86.4928C117.039 88.0009 117.26 89.1502 117.26 89.1502C117.26 89.1502 116.485 90.3227 116.03 90.3858C115.574 90.4489 118.503 100.208 112.676 97.7799Z" fill="black"/>
<path d="M127.054 119.58L122.411 203.784L116.356 204.213L100.676 155.387L103.249 97.4211L103.79 85.1741L110.762 91.3557L114.205 94.4017L116.897 87.0044L121.903 91.7145L127.054 119.58Z" fill="#37D2F4"/>
<path opacity="0.1" d="M107.015 204.209C106.808 204.76 106.652 205.33 106.547 205.913C102.141 205.179 97.8617 203.736 93.852 201.632L93.7689 201.585L93.7966 201.05L93.812 200.771L95.3504 197.676C95.3504 197.676 107.753 202.259 107.015 204.209Z" fill="black"/>
<path opacity="0.1" d="M117.94 205.927C116.814 206.133 115.678 206.273 114.537 206.345C114.47 204.684 114.43 203.542 114.43 203.542L117.851 202.798L117.94 205.927Z" fill="black"/>
<path opacity="0.1" d="M126.925 203.934C124.737 204.548 121.359 205.239 118.334 204.807L118.291 202.701L126.543 200.914C126.543 200.914 126.771 202.558 126.925 203.934Z" fill="black"/>
<path opacity="0.1" d="M118.279 205.193C105.664 207.518 94.1105 200.851 94.1105 200.851L94.2212 198.592C94.2212 198.592 94.5074 172.986 93.7136 171.023C92.9198 169.059 92.3013 159.104 92.7505 157.576C93.1997 156.049 91.1106 133.136 91.1106 133.136L90.7721 123.835L78.3849 118.417L83.9232 105.954C84.6712 104.207 85.3145 102.41 85.8492 100.573C86.8123 97.3381 91.2829 94.1593 91.2829 94.1593C91.2829 94.1593 95.8673 90.9837 97.6796 91.1033C99.4918 91.2229 101.867 88.2932 101.867 88.2932C103.621 83.4668 105.209 85.6525 105.209 85.6525C105.209 85.8817 105.209 85.6525 105.122 86.3666C104.507 91.6647 115.073 108.406 115.224 108.702L116.23 135.162L117.248 168.648L118.279 205.193Z" fill="black"/>
<path d="M117.94 205.193C105.325 207.518 93.7688 200.851 93.7688 200.851L93.8827 198.592C93.8827 198.592 94.1688 172.986 93.3719 171.023C92.575 169.059 91.9597 159.104 92.412 157.576C92.8643 156.049 90.772 133.136 90.772 133.136L90.4305 123.835L78.0371 118.397L83.5754 105.935C84.3218 104.186 84.9651 102.389 85.5015 100.553C86.4614 97.3182 90.9351 94.1393 90.9351 94.1393C90.9351 94.1393 95.5195 90.9638 97.3287 91.0834C99.1379 91.203 101.516 88.2733 101.516 88.2733C103.273 83.4469 105.208 85.6325 105.208 85.6325C105.208 85.8617 105.024 85.9647 105.122 86.3467C106.476 91.4853 114.734 108.386 114.885 108.682L115.903 135.142L116.922 168.628L117.94 205.193Z" fill="white"/>
<path opacity="0.1" d="M114.54 109.436C113.184 108.824 105.996 99.9655 105.996 99.9655V97.9492C105.735 97.2849 104.181 97.6901 102.919 98.1552L103.461 85.9082L104.076 86.4596C105.424 91.5949 114.384 109.14 114.54 109.436Z" fill="black"/>
<path d="M114.882 108.701C113.522 108.09 106.335 99.2314 106.335 99.2314V97.2152C106.073 96.5508 104.519 96.9561 103.258 97.4211L103.802 85.1741L104.418 85.7255C105.768 90.8608 114.731 108.409 114.882 108.701Z" fill="white"/>
<path opacity="0.1" d="M94.1105 152.883C94.2797 152.883 102.882 151.906 102.882 151.906C102.882 151.906 108.092 162.964 107.75 165.655C107.408 168.345 106.79 170.727 104.695 170.305C102.599 169.883 93.4182 170.637 93.4182 170.637L94.1105 152.883Z" fill="black"/>
<path d="M93.7689 152.149C93.9382 152.149 102.541 151.172 102.541 151.172C102.541 151.172 107.747 162.233 107.408 164.921C107.07 167.608 106.445 169.993 104.353 169.571C102.261 169.149 93.0767 169.903 93.0767 169.903L93.7689 152.149Z" fill="white"/>
<path d="M100.252 146.957C100.252 146.957 108.147 151.538 108.316 152.936C108.485 154.335 104.298 152.325 103.393 152.082C102.798 151.928 102.192 151.825 101.581 151.777L95.5474 151.953L100.252 146.957Z" fill="#CF6F80"/>
<path opacity="0.1" d="M112.337 110.007C112.796 110.007 113.168 109.605 113.168 109.11C113.168 108.615 112.796 108.213 112.337 108.213C111.879 108.213 111.507 108.615 111.507 109.11C111.507 109.605 111.879 110.007 112.337 110.007Z" fill="black"/>
<path d="M112.337 109.642C112.796 109.642 113.168 109.24 113.168 108.745C113.168 108.249 112.796 107.848 112.337 107.848C111.879 107.848 111.507 108.249 111.507 108.745C111.507 109.24 111.879 109.642 112.337 109.642Z" fill="#3F3D56"/>
<path opacity="0.1" d="M113.867 148.831C114.325 148.831 114.697 148.429 114.697 147.934C114.697 147.438 114.325 147.037 113.867 147.037C113.408 147.037 113.036 147.438 113.036 147.934C113.036 148.429 113.408 148.831 113.867 148.831Z" fill="black"/>
<path d="M113.867 148.462C114.325 148.462 114.697 148.06 114.697 147.565C114.697 147.07 114.325 146.668 113.867 146.668C113.408 146.668 113.036 147.07 113.036 147.565C113.036 148.06 113.408 148.462 113.867 148.462Z" fill="#3F3D56"/>
<path opacity="0.1" d="M113.165 129.419C113.624 129.419 113.996 129.017 113.996 128.522C113.996 128.027 113.624 127.625 113.165 127.625C112.706 127.625 112.334 128.027 112.334 128.522C112.334 129.017 112.706 129.419 113.165 129.419Z" fill="black"/>
<path d="M113.165 129.053C113.624 129.053 113.996 128.652 113.996 128.157C113.996 127.661 113.624 127.26 113.165 127.26C112.706 127.26 112.334 127.661 112.334 128.157C112.334 128.652 112.706 129.053 113.165 129.053Z" fill="#3F3D56"/>
<path d="M132.315 151.591C132.315 151.591 132.881 152.508 132.315 152.936C131.749 153.365 132.371 154.401 132.371 154.401C132.371 154.401 130.958 155.295 131.58 156.098C132.201 156.902 131.808 160.533 131.808 160.533L130.109 163.569C130.109 163.569 130.211 165.525 130.217 168.169C130.217 172.295 129.992 178.094 128.749 180.738L128.921 202.432C128.921 202.432 122.974 204.777 117.996 204.063L117.257 169.252C117.257 169.252 118.334 149.511 118.731 145.725C118.963 143.759 119.058 141.777 119.014 139.796C119.014 139.796 118.845 133.87 118.276 131.119C118.276 131.119 117.66 119.205 117.599 115.906C117.571 114.328 117.648 109.725 117.734 105.347C117.83 100.56 117.937 96.046 117.937 96.046L116.814 86.453C116.814 86.453 117.937 86.3301 118.276 86.8184C118.427 86.9713 118.592 87.1081 118.768 87.2269C120.706 88.642 127.555 92.9933 127.555 92.9933C127.555 92.9933 131.346 94.621 132.254 96.9528C133.161 99.2846 133.792 100.939 134.232 101.603C134.672 102.267 134.912 105.39 134.912 105.39C134.912 105.39 136.217 111.136 137.235 112.11C138.253 113.083 138.998 119.274 138.998 119.274L129.998 126.914C129.998 126.914 129.208 139.623 129.038 140.114C128.869 140.606 132.315 151.591 132.315 151.591Z" fill="white"/>
<path d="M132.657 151.591C132.657 151.591 133.22 152.508 132.657 152.936C132.094 153.365 132.709 154.401 132.709 154.401C132.709 154.401 131.306 155.304 131.921 156.108C132.537 156.912 132.149 160.543 132.149 160.543L130.451 163.579C130.451 163.579 130.552 165.535 130.561 168.179C130.561 172.305 130.337 178.104 129.094 180.748L129.263 202.442C129.263 202.442 123.306 204.787 118.334 204.073L117.599 169.262C117.599 169.262 118.676 149.521 119.073 145.735C119.305 143.769 119.399 141.787 119.353 139.806C119.353 139.806 119.183 133.88 118.617 131.129C118.617 131.129 118.002 119.215 117.937 115.916C117.91 114.338 117.99 109.735 118.073 105.357C118.168 100.57 118.276 96.0559 118.276 96.0559L116.793 86.3334C116.793 86.3334 118.276 86.3334 118.617 86.8283C118.767 86.983 118.932 87.12 119.11 87.2369C121.048 88.6519 127.9 93.0033 127.9 93.0033C127.9 93.0033 131.688 94.6309 132.595 96.9627C133.503 99.2945 134.134 100.949 134.577 101.613C135.02 102.277 135.254 105.4 135.254 105.4C135.254 105.4 136.558 111.146 137.577 112.119C138.595 113.093 139.33 119.271 139.33 119.271L130.331 126.911C130.331 126.911 129.54 139.62 129.368 140.111C129.195 140.603 132.657 151.591 132.657 151.591Z" fill="white"/>
<path opacity="0.1" d="M121.879 98.876L122.691 101.434L118.414 106.084C118.51 101.301 118.617 96.7834 118.617 96.7834L117.134 87.0609C117.134 87.0609 118.617 87.0608 118.959 87.5558C119.109 87.71 119.274 87.846 119.451 87.961L123.088 99.2879L121.879 98.876Z" fill="black"/>
<path d="M121.537 98.1419L122.353 100.7L118.076 105.35C118.171 100.563 118.279 96.0493 118.279 96.0493L116.793 86.3268C116.793 86.3268 118.279 86.3268 118.617 86.8217C118.768 86.9754 118.933 87.1123 119.11 87.2302L122.749 98.5538L121.537 98.1419Z" fill="white"/>
<path opacity="0.1" d="M121.537 72.8342C121.54 74.0311 121.365 75.2208 121.02 76.3584C120.962 76.3682 120.903 76.3653 120.846 76.3499C120.789 76.3345 120.735 76.3069 120.688 76.2688C120.608 73.2793 119.245 70.4724 117.568 68.0842C117.097 67.3631 116.526 66.7245 115.876 66.1908C115.218 65.6574 114.4 65.4075 113.58 65.4899C112.657 65.6261 111.842 66.3038 110.91 66.3901C109.679 66.4997 108.578 65.5796 107.356 65.5331C106.859 65.5382 106.37 65.6576 105.919 65.8833C105.469 66.109 105.068 66.4357 104.744 66.8419C104.102 67.6614 103.625 68.6161 103.344 69.6453C102.86 71.206 102.597 72.8364 102.562 74.4817C102.547 75.4118 102.464 76.5777 101.664 76.9165C101.724 76.2325 101.652 75.5424 101.453 74.89C101.253 74.2376 100.93 73.6371 100.504 73.1265L100.486 73.1065C100.486 73.0135 100.486 72.9272 100.486 72.8342C100.462 71.3253 100.716 69.8265 101.235 68.425C101.753 67.0235 102.525 65.7475 103.504 64.6713C104.484 63.5952 105.653 62.7405 106.942 62.157C108.231 61.5736 109.615 61.2731 111.013 61.2731C112.411 61.2731 113.794 61.5736 115.084 62.157C116.373 62.7405 117.541 63.5952 118.521 64.6713C119.501 65.7475 120.273 67.0235 120.791 68.425C121.309 69.8265 121.564 71.3253 121.54 72.8342H121.537Z" fill="black"/>
<path d="M115.371 54.7875C113.772 53.9756 111.954 53.822 110.258 54.3557C109.405 54.6281 108.602 55.0699 107.738 55.2924C105.892 55.7741 103.738 55.2526 102.153 56.4185C101.273 57.0828 100.744 58.1324 100.252 59.1522L99.0211 61.6833C98.3503 63.0684 97.6734 64.4768 97.3934 66.0015C97.1134 67.5261 97.2827 69.2334 98.178 70.4591C98.8303 71.3527 99.7933 71.914 100.501 72.7544C100.925 73.2656 101.247 73.8658 101.446 74.5174C101.645 75.169 101.717 75.8579 101.658 76.5411C102.461 76.2089 102.538 75.0397 102.556 74.1096C102.591 72.4643 102.854 70.834 103.338 69.2733C103.619 68.2438 104.095 67.2889 104.738 66.4698C105.062 66.064 105.463 65.7375 105.913 65.5118C106.364 65.2862 106.853 65.1666 107.35 65.1611C108.581 65.2076 109.685 66.1244 110.904 66.0148C111.827 65.9317 112.645 65.2508 113.574 65.1179C114.394 65.0342 115.212 65.2842 115.87 65.8188C116.52 66.3516 117.09 66.9904 117.559 67.7121C119.239 70.1004 120.602 72.9006 120.682 75.8967C121.03 76.1724 121.531 75.8137 121.703 75.3885C121.876 74.9633 121.882 74.4651 122.1 74.0598C122.353 73.5915 122.836 73.3423 123.214 72.9902C124.174 72.0967 124.414 70.592 124.377 69.2268C124.34 67.8616 124.094 66.4765 124.334 65.1345C124.479 64.3107 124.805 63.5401 124.983 62.7263C125.162 61.9125 125.183 60.999 124.762 60.2982C124.146 59.2685 122.851 59.0658 121.722 58.9695C120.439 58.8499 119.291 59.0027 118.473 57.8368C118.088 57.2284 117.656 56.6572 117.18 56.1295C117.017 55.9568 115.371 54.8606 115.371 54.7875Z" fill="#512E4E"/>
<path opacity="0.1" d="M81.9294 124.835L78.7141 118.417L77.6957 128.319C77.6957 128.319 78.2618 132.717 78.148 133.391C78.0341 134.066 80.4679 140.111 80.4679 140.111C80.4679 140.111 88.5076 155.57 91.7906 156.367L102.882 147.811L99.941 143.778C99.941 143.778 98.9226 143.35 98.6672 143.778C98.6672 143.778 93.2059 133.634 92.6398 132.9C92.0736 132.166 92.1844 130.701 92.1844 130.701C92.1844 130.701 91.3352 129.724 91.6183 128.808C91.9013 127.891 89.9783 124.712 89.9783 124.712L91.7321 122.941L81.9294 124.835Z" fill="black"/>
<path d="M78.8833 117.687L78.034 118.417L77.0156 128.319C77.0156 128.319 77.5818 132.717 77.4679 133.391C77.3541 134.066 79.7909 140.111 79.7909 140.111C79.7909 140.111 87.8275 155.57 91.1105 156.367L102.206 147.811L99.261 143.778C99.261 143.778 98.2426 143.35 97.9872 143.778C97.9872 143.778 92.5258 133.634 91.9597 132.9C91.3936 132.166 91.5074 130.701 91.5074 130.701C91.5074 130.701 90.6582 129.724 90.9413 128.808C91.2244 127.891 89.2983 124.712 89.2983 124.712L91.0521 122.941L78.8833 117.687Z" fill="white"/>
<path opacity="0.1" d="M131.58 156.477C132.195 157.284 131.807 160.908 131.807 160.908L130.109 163.944C130.109 163.944 130.211 165.904 130.217 168.545L127.361 169.508C127.103 169.595 126.83 169.614 126.564 169.564C126.297 169.513 126.046 169.395 125.831 169.218C125.615 169.042 125.442 168.812 125.326 168.549C125.21 168.286 125.153 167.996 125.162 167.704L125.654 150.561L132.315 153.311C131.749 153.737 132.371 154.78 132.371 154.78C132.371 154.78 130.958 155.67 131.58 156.477Z" fill="black"/>
<path d="M131.921 156.108C132.537 156.915 132.149 160.543 132.149 160.543L130.451 163.579C130.451 163.579 130.552 165.535 130.561 168.179L127.654 169.159C127.401 169.244 127.133 169.262 126.873 169.213C126.612 169.163 126.366 169.047 126.155 168.874C125.945 168.701 125.775 168.477 125.661 168.219C125.547 167.961 125.492 167.678 125.5 167.392L125.995 150.196L132.66 152.946C132.091 153.371 132.712 154.411 132.712 154.411C132.712 154.411 131.306 155.304 131.921 156.108Z" fill="white"/>
<path d="M134.127 147.937C134.127 147.937 133.675 151.056 132.543 151.239C131.411 151.421 130.903 156.284 129.774 156.112C128.645 155.939 129.392 151.591 129.432 150.747C129.472 149.903 128.202 146.409 129.152 145.615C130.103 144.821 133.112 145.615 133.112 145.615L134.127 147.937Z" fill="#CF6F80"/>
<path opacity="0.1" d="M136.537 123.918L138.672 119.268C138.672 119.268 139.521 122.812 139.521 124.705C139.521 126.599 140.709 126.785 140.709 126.785C140.709 126.785 142.01 128.445 141.324 129.655C140.638 130.864 140.361 133.873 140.361 133.873C140.361 133.873 140.586 139.616 139.567 140.41C138.549 141.204 138.337 143.101 138.337 143.101C138.337 143.101 136.466 146.705 136.524 147.562C136.583 148.419 133.921 154.222 133.921 154.222C133.921 154.222 135.223 147.01 127.638 143.895C127.638 143.895 127.58 141.446 128.146 140.775C128.712 140.104 129.595 139.799 129.041 136.407C128.488 133.016 128.881 128.964 128.881 128.15C128.881 127.336 130.58 122.261 130.58 122.261L136.537 123.918Z" fill="black"/>
<path d="M137.46 118.603L139.324 119.268C139.324 119.268 140.176 122.812 140.176 124.705C140.176 126.599 141.364 126.785 141.364 126.785C141.364 126.785 142.666 128.445 141.979 129.655C141.293 130.864 141.02 133.873 141.02 133.873C141.02 133.873 141.244 139.616 140.226 140.41C139.207 141.204 138.98 143.101 138.98 143.101C138.98 143.101 137.112 146.705 137.17 147.562C137.229 148.419 134.564 154.222 134.564 154.222C134.564 154.222 135.869 147.01 128.282 143.895C128.282 143.895 128.226 141.446 128.792 140.775C129.358 140.105 130.241 139.799 129.688 136.408C129.134 133.016 129.528 128.964 129.528 128.15C129.528 127.336 131.226 122.261 131.226 122.261L137.46 118.603Z" fill="white"/>
<path opacity="0.1" d="M96.2765 239.137C96.2765 239.137 99.2487 237.12 101.199 238.585C103.15 240.05 96.2765 239.137 96.2765 239.137Z" fill="black"/>
<path opacity="0.1" d="M119.371 232.902C119.371 232.902 122.002 232.536 124.211 235.104C126.42 237.672 119.371 232.902 119.371 232.902Z" fill="black"/>
<g opacity="0.1">
<path opacity="0.1" d="M123.22 72.2628C122.842 72.6149 122.356 72.8674 122.103 73.3357C121.888 73.7376 121.882 74.2326 121.709 74.6644C121.537 75.0962 121.036 75.4483 120.688 75.1759C120.608 72.1864 119.242 69.3796 117.565 66.988C117.096 66.2663 116.526 65.6275 115.876 65.0947C115.217 64.5602 114.398 64.3102 113.577 64.3938C112.654 64.53 111.842 65.2076 110.91 65.2906C109.679 65.4036 108.575 64.4835 107.353 64.437C106.857 64.4423 106.367 64.5621 105.917 64.7884C105.467 65.0147 105.067 65.3422 104.744 65.749C104.102 66.5669 103.625 67.5207 103.344 68.5492C102.86 70.1099 102.597 71.7403 102.562 73.3855C102.544 74.3123 102.464 75.4682 101.67 75.8137C101.689 76.0591 101.689 76.3057 101.67 76.5511C102.47 76.2189 102.55 75.0497 102.569 74.1196C102.603 72.4743 102.866 70.8439 103.35 69.2833C103.631 68.2538 104.108 67.2989 104.75 66.4798C105.074 66.0741 105.474 65.7475 105.924 65.5219C106.374 65.2962 106.863 65.1766 107.359 65.1711C108.59 65.2176 109.698 66.1343 110.916 66.0247C111.839 65.9417 112.657 65.2607 113.584 65.1279C114.404 65.0443 115.223 65.2942 115.882 65.8287C116.532 66.3616 117.102 67.0003 117.571 67.7221C119.248 70.1104 120.614 72.9105 120.694 75.9067C121.042 76.1824 121.543 75.8236 121.716 75.3985C121.888 74.9733 121.894 74.475 122.109 74.0698C122.362 73.6014 122.848 73.3523 123.226 73.0002C124.186 72.1067 124.426 70.602 124.389 69.2368C124.389 69.1936 124.389 69.1504 124.389 69.1106C124.331 70.2931 124.039 71.4988 123.22 72.2628Z" fill="black"/>
<path opacity="0.1" d="M100.507 72.027C99.7994 71.1866 98.8333 70.6252 98.1841 69.735C97.6375 68.947 97.3253 67.9983 97.2888 67.0146C97.1919 68.2439 97.5099 69.4696 98.1841 70.4658C98.8333 71.3593 99.7994 71.9207 100.507 72.7611C101.187 73.5831 101.594 74.6251 101.667 75.724C101.714 75.0552 101.636 74.383 101.436 73.7478C101.237 73.1125 100.921 72.5272 100.507 72.027Z" fill="black"/>
<path opacity="0.1" d="M124.989 61.9989C124.808 62.8127 124.485 63.5866 124.337 64.4071C124.25 64.9553 124.218 65.5122 124.242 66.0679C124.252 65.7514 124.284 65.4361 124.337 65.1246C124.485 64.3008 124.808 63.5302 124.989 62.7164C125.095 62.2675 125.129 61.8025 125.091 61.3412C125.072 61.5628 125.038 61.7826 124.989 61.9989Z" fill="black"/>
</g>
<path opacity="0.1" d="M40.8385 252.643C57.3962 252.643 70.8189 250.315 70.8189 247.444C70.8189 244.573 57.3962 242.246 40.8385 242.246C24.2807 242.246 10.858 244.573 10.858 247.444C10.858 250.315 24.2807 252.643 40.8385 252.643Z" fill="#37D2F4"/>
<path d="M41.8046 147.861H39.8755V194.753H41.8046V147.861Z" fill="#535461"/>
<path d="M53.9272 194.61L53.8072 196.722L53.6349 199.712L53.5642 200.954L53.395 203.944L53.3211 205.186L53.1488 208.175L51.2043 242.08C51.1198 243.538 50.5235 244.907 49.5369 245.908C48.5504 246.909 47.2475 247.467 45.8937 247.467H35.7833C34.4297 247.467 33.1273 246.909 32.1412 245.908C31.1551 244.907 30.5596 243.538 30.4758 242.08L28.5405 208.152L28.3682 205.163L28.2974 203.92L28.1251 200.931L28.0543 199.689L27.882 196.699L27.759 194.586C27.7376 194.18 27.7934 193.773 27.9229 193.39C28.0525 193.008 28.2531 192.658 28.5124 192.362C28.7717 192.066 29.0842 191.831 29.4309 191.67C29.7775 191.509 30.1509 191.427 30.5281 191.428H51.2073C51.5832 191.431 51.9543 191.518 52.2979 191.682C52.6415 191.846 52.9503 192.085 53.2052 192.383C53.46 192.681 53.6556 193.033 53.7798 193.416C53.904 193.799 53.9542 194.205 53.9272 194.61Z" fill="#3F3D56"/>
<path d="M53.8073 196.722L53.635 199.702H28.0421L27.8698 196.722H53.8073Z" fill="#9D9CB5"/>
<path d="M53.5642 200.944L53.3949 203.927H28.2851L28.1128 200.944H53.5642Z" fill="#9D9CB5"/>
<path d="M53.3212 205.173L53.152 208.152H28.5283L28.356 205.173H53.3212Z" fill="#9D9CB5"/>
<path d="M24.9252 165.436C36.1586 174.211 40.8477 187.936 40.8477 187.936C40.8477 187.936 27.3097 187.435 16.0732 178.659C4.83669 169.883 0.15686 156.161 0.15686 156.161C0.15686 156.161 13.6887 156.66 24.9252 165.436Z" fill="#B61EEF"/>
<path d="M0.147705 156.161C0.147705 156.161 14.2026 164.582 18.7101 171.554C23.2176 178.526 40.8478 187.936 40.8478 187.936" stroke="#535461" stroke-width="2" stroke-miterlimit="10"/>
<path d="M32.1773 147.758C38.2909 152.531 40.8477 160.001 40.8477 160.001C40.8477 160.001 33.4788 159.729 27.3621 154.956C21.2454 150.182 18.6947 142.709 18.6947 142.709C18.6947 142.709 26.0606 142.981 32.1773 147.758Z" fill="#B61EEF"/>
<path d="M18.6947 142.709C18.6947 142.709 26.3437 147.293 28.7959 151.086C31.2481 154.879 40.8477 160.001 40.8477 160.001" stroke="#535461" stroke-width="2" stroke-miterlimit="10"/>
<path d="M49.7243 159.623C42.7 167.957 41.2139 178.848 41.2139 178.848C41.2139 178.848 51.1181 176.224 58.1363 167.887C65.1545 159.55 66.6468 148.661 66.6468 148.661C66.6468 148.661 56.7487 151.289 49.7243 159.623Z" fill="#B61EEF"/>
<path d="M66.6529 148.664C66.6529 148.664 57.5025 157.208 55.1764 163.094C52.8504 168.98 41.2139 178.848 41.2139 178.848" stroke="#535461" stroke-width="2" stroke-miterlimit="10"/>
<path d="M307.58 156.69C307.58 156.69 302.5 129.405 304.444 126.011C304.444 126.011 304.515 122.855 304.398 118.833C304.398 118.68 304.398 118.527 304.398 118.371C304.74 118.617 305.097 118.839 305.466 119.035C307.257 120.029 309.314 120.316 311.281 119.846L309.743 117.996C309.373 117.554 308.989 117.075 308.909 116.491C308.829 115.906 309.05 115.385 309.241 114.863C310.703 110.877 310.78 105.865 307.964 102.822C305.586 100.264 305.007 96.9627 302.426 94.6276C300.54 92.917 299.503 90.4091 298.525 87.9843C297.697 85.9348 296.863 83.8687 296.389 81.6964C296.02 79.999 295.872 78.2418 295.365 76.5843C294.857 74.9268 293.906 73.3158 292.42 72.5751C291.891 72.3127 291.303 72.1632 290.82 71.8144C290.186 71.3527 289.805 70.602 289.346 69.9443C287.017 66.6227 279.218 68.5791 275.525 69.9277C274.522 70.2673 273.592 70.8233 272.793 71.562L272.827 71.5022C272.855 71.4524 272.889 71.4025 272.919 71.3527C272.515 71.7055 272.166 72.1261 271.886 72.5983C271.347 73.5184 271.123 74.5913 270.673 75.5878C270.132 76.767 267.12 80.0588 268.415 81.3841C268.506 81.4731 268.61 81.545 268.723 81.5967C269.209 81.8152 269.744 81.873 270.261 81.7628L270.206 81.9056C269.763 83.075 269.536 84.3262 269.538 85.5893C269.538 91.0468 273.707 95.4713 278.855 95.4713C279.822 95.4723 280.784 95.3121 281.707 94.9963C281.728 95.1225 281.747 95.2488 281.768 95.375C281.768 95.4248 281.784 95.4746 281.79 95.5245L281.627 95.7703C281.619 95.7551 281.609 95.7407 281.599 95.7271L276.768 103.015C276.03 103.576 271.778 106.898 271.538 109.389C271.286 112.116 271.033 115.308 271.033 115.308L270.999 115.993C270.788 116.183 270.541 116.322 270.276 116.399C270.01 116.477 269.732 116.491 269.461 116.441C267.953 116.175 267.953 122.42 267.953 122.42C267.953 122.42 266.95 123.416 266.261 122.553C265.572 121.689 263.75 124.616 263.75 124.616L252.335 125.147L252.074 125.164L251.459 123.108C251.392 122.891 251.25 122.711 251.061 122.607C250.873 122.503 250.654 122.484 250.452 122.553C250.405 122.57 250.359 122.591 250.314 122.616L250.271 122.643L250.191 122.702L250.151 122.742C250.129 122.764 250.108 122.787 250.089 122.812L250.053 122.858L250.034 122.878C249.963 122.984 249.916 123.107 249.897 123.236C249.877 123.365 249.887 123.498 249.923 123.622L250.452 125.386C248.249 125.865 245.997 127.213 247.834 130.927L238.524 129.07L241.536 131.8L257.086 135.265C256.88 135.663 257.015 136.241 257.658 137.055C260.427 140.566 265.473 141.52 267.504 141.765C268.04 143.06 268.71 144.286 269.501 145.419L269.326 148.917C269.326 148.917 264.184 175.577 263.243 176.928C263.718 176.347 264.153 175.729 264.544 175.078C263.052 180.556 260.966 188.053 260.418 189.175C259.538 190.969 258.723 198.227 259.726 198.692C260.034 198.835 260.914 198.765 262.169 198.662V199.263L262.114 222.047C262.114 222.047 262.366 236.021 261.674 237.353C260.981 238.685 260.797 241.478 260.797 241.478C260.797 241.478 258.028 246.989 255.834 249.205C255.819 249.222 255.802 249.237 255.785 249.251L255.717 248.733C255.717 248.733 253.08 252.327 247.246 252.124C247.246 252.124 243.736 254.589 248.942 254.722C254.148 254.855 260.797 254.523 260.797 254.523C260.797 254.523 265.44 246.883 269.329 247.879V253.669H270.519V247.786C271.072 247.394 271.544 246.884 271.909 246.289C272.273 245.693 272.522 245.024 272.639 244.322C272.741 243.598 272.667 242.858 272.423 242.174C272.179 241.491 271.774 240.888 271.249 240.425C271.013 240.195 270.823 239.914 270.692 239.601C270.562 239.288 270.492 238.949 270.489 238.605L270.446 238.645C270.446 238.529 270.418 238.409 270.406 238.286C270.064 235.297 269.636 229.128 271.147 224.564C273.218 218.306 273.845 209.59 272.338 204.402C271.851 202.743 271.452 201.057 271.141 199.35C271.104 199.134 271.07 198.928 271.039 198.735C272.07 198.886 273.091 199.108 274.095 199.4C277.587 200.439 285.227 200.632 291.749 200.575C291.765 200.768 291.783 200.971 291.805 201.173C291.921 202.582 292.164 203.975 292.531 205.332C293.349 207.989 293.725 219.705 293.725 219.705C293.725 219.705 294.78 229.338 294.205 233.257C293.897 235.436 293.589 237.625 293.414 239.824V239.867C293.414 239.867 291.685 245.182 290.42 248.069C290.389 248.142 290.356 248.215 290.325 248.284C289.988 248.318 289.656 248.397 289.337 248.52C289.337 248.52 287.642 252.174 285.953 252.779C284.264 253.383 284.824 255.373 288.648 254.642C292.472 253.911 298.248 253.313 298.248 253.313L298.497 249.587L299.672 247.999L299.365 251.716L300.617 251.45L300.451 246.929L302.374 244.332C302.374 244.332 304.697 242.1 301.244 237.708V237.805C301.208 237.742 301.174 237.675 301.134 237.612V237.592C300.561 236.635 300.106 234.852 300.94 231.686C302.447 225.966 303.324 220.774 303.324 220.774C303.324 220.774 306.69 206.867 302.644 200.286H302.823C302.408 199.36 302.115 198.377 301.952 197.363C301.932 197.244 301.913 197.121 301.897 196.995C304.89 196.809 307.829 196.224 310.226 194.962C310.216 194.949 308.773 161.944 307.58 156.69ZM269.572 133.67V133.737L268.956 133.77L269.572 133.67ZM267.461 133.986C267.36 134.01 267.265 134.059 267.184 134.129C266.92 134.533 266.754 135.002 266.701 135.494L265.741 135.262C265.741 135.262 265.067 135.105 264.098 134.929L263.64 134.431C264.901 134.318 266.212 134.152 267.461 133.986Z" fill="url(#paint1_linear_12_1054)"/>
<path d="M299.223 246.976L298.857 251.683L300.085 251.417L299.9 246.311L299.223 246.976Z" fill="#1D2366"/>
<path d="M271.215 224.628C269.735 229.178 270.153 235.32 270.486 238.303C270.609 239.406 270.722 240.077 270.722 240.077C270.722 240.077 268.51 245.518 268.326 245.723C268.141 245.929 261.815 250.098 261.815 250.098L257.394 252.885C257.394 252.885 252.908 250.762 255.058 250.032C255.498 249.841 255.894 249.55 256.218 249.178C258.372 246.969 261.077 241.478 261.077 241.478C261.077 241.478 261.261 238.691 261.938 237.366C262.615 236.041 262.369 222.113 262.369 222.113L262.421 199.41V196.45L270.836 196.516C270.889 197.521 271.011 198.52 271.199 199.506C271.501 201.207 271.893 202.888 272.372 204.541C273.855 209.72 273.239 218.393 271.215 224.628Z" fill="#FFB0B1"/>
<path opacity="0.1" d="M270.722 240.077C270.722 240.077 268.51 245.518 268.326 245.724C268.141 245.929 261.815 250.098 261.815 250.098L257.394 252.885C257.394 252.885 252.908 250.762 255.058 250.032C255.498 249.841 255.894 249.55 256.218 249.178L256.409 250.63L257.883 250.563L270.498 238.31C270.609 239.406 270.722 240.077 270.722 240.077Z" fill="black"/>
<path d="M270.569 238.618L257.883 250.955L256.409 251.022L256.102 248.696C256.102 248.696 253.523 252.277 247.794 252.078C247.794 252.078 244.354 254.533 249.453 254.665C254.551 254.798 261.061 254.466 261.061 254.466C261.061 254.466 265.609 246.826 269.415 247.823V253.593H270.584V247.77C271.128 247.375 271.592 246.865 271.948 246.271C272.304 245.678 272.546 245.012 272.658 244.315C272.759 243.597 272.687 242.863 272.45 242.184C272.212 241.504 271.817 240.902 271.301 240.435C271.071 240.202 270.887 239.921 270.761 239.609C270.635 239.296 270.57 238.959 270.569 238.618Z" fill="#B61EEF"/>
<path d="M300.392 231.723C299.574 234.878 300.02 236.655 300.58 237.609V237.629C301.298 238.806 301.798 240.122 302.051 241.505L302.1 241.804L296.328 250.889L293.196 252.217C293.196 252.217 288.159 250.361 289.079 249.829C289.31 249.7 289.67 249.009 290.082 248.055C291.313 245.182 293.011 239.881 293.011 239.881V239.838C293.189 237.649 293.472 235.466 293.786 233.294C294.349 229.384 293.316 219.788 293.316 219.788C293.316 219.788 292.946 208.119 292.146 205.465C291.785 204.116 291.545 202.732 291.429 201.333C291.263 199.672 291.226 198.303 291.226 198.303C291.226 198.303 294.543 193.321 300.623 198.702C301.109 199.131 301.537 199.632 301.894 200.19C306.094 206.641 302.712 220.851 302.712 220.851C302.712 220.851 301.866 226.019 300.392 231.723Z" fill="#FFB0B1"/>
<path opacity="0.1" d="M302.109 241.804L296.337 250.889L293.205 252.217C293.205 252.217 288.168 250.361 289.088 249.829C289.319 249.7 289.679 249.009 290.091 248.055C292.223 248.035 293.328 250.228 293.328 250.228L296.029 249.763C296.029 249.763 299.592 242.203 300.392 241.741C301.192 241.279 300.515 238.29 300.515 238.29V237.529C300.537 237.556 300.555 237.585 300.58 237.612V237.632C301.298 238.809 301.798 240.126 302.051 241.508L302.109 241.804Z" fill="black"/>
<path d="M293.512 250.424C293.512 250.424 291.974 247.374 289.026 248.5C289.026 248.5 287.368 252.154 285.71 252.745C284.051 253.337 284.605 255.33 288.353 254.602C292.1 253.875 297.749 253.274 297.749 253.274L297.995 249.557L301.804 244.318C301.804 244.318 304.075 242.096 300.697 237.722V238.482C300.697 238.482 301.374 241.472 300.574 241.933C299.774 242.395 296.223 249.959 296.223 249.959L293.512 250.424Z" fill="#B61EEF"/>
<path opacity="0.1" d="M270.846 196.51C270.899 197.514 271.02 198.514 271.209 199.499C267.744 198.951 264.529 199.223 262.421 199.403V196.443L270.846 196.51Z" fill="black"/>
<path opacity="0.1" d="M302.235 201.017C302.235 201.017 297.312 201.276 291.442 201.329C291.276 199.669 291.239 198.3 291.239 198.3C291.239 198.3 294.555 193.318 300.635 198.699C301.121 199.128 301.549 199.629 301.906 200.187C302.001 200.47 302.111 200.747 302.235 201.017Z" fill="black"/>
<path d="M302.235 200.419C302.235 200.419 280.673 201.545 274.101 199.556C267.529 197.566 261.015 199.29 260.034 198.828C259.052 198.366 259.849 191.135 260.71 189.345C261.572 187.554 266.298 169.448 266.298 169.448L270.846 143.851L275.636 142.426L275.975 142.323L284.322 139.839L290.439 138.015C290.439 138.015 302.601 189.278 301.558 193.058C301.179 194.506 301.118 196.029 301.38 197.506C301.539 198.515 301.827 199.495 302.235 200.419Z" fill="#B61EEF"/>
<path d="M254.994 126.346C254.994 126.346 250.686 131.329 253.948 134.106C257.209 136.882 259.354 134.371 259.354 134.371L254.994 126.346Z" fill="#C7DAF5"/>
<path opacity="0.1" d="M254.994 126.346C254.994 126.346 250.686 131.329 253.948 134.106C257.209 136.882 259.354 134.371 259.354 134.371L254.994 126.346Z" fill="black"/>
<path d="M289.796 93.5879C289.796 93.5879 289.291 94.1061 288.531 94.8701C287.448 95.9629 285.845 97.5606 284.424 98.8992C282.454 100.749 280.83 102.108 281.411 100.949C281.993 99.7895 281.882 97.7699 281.593 95.8799C281.571 95.7536 281.553 95.6274 281.531 95.5045C281.292 94.1164 280.974 92.7454 280.581 91.3989C280.581 91.3989 283.762 86.9612 285.522 85.2107C286.177 84.5463 286.636 84.274 286.663 84.7357C286.694 85.3568 287.125 86.7287 287.66 88.1836C287.676 88.2301 287.691 88.2732 287.71 88.3197C288.066 89.3162 288.47 90.3393 288.823 91.2229C289.365 92.5781 289.796 93.5879 289.796 93.5879Z" fill="#FFB0B1"/>
<path opacity="0.1" d="M287.71 88.3197C287.411 90.0558 286.685 91.6733 285.609 93.0032C284.533 94.3331 283.146 95.3266 281.593 95.8799C281.348 94.3636 281.01 92.8666 280.581 91.3989C280.581 91.3989 286.571 83.045 286.663 84.7357C286.685 85.3768 287.153 86.7984 287.71 88.3197Z" fill="black"/>
<path opacity="0.1" d="M280.996 98.112L281.771 96.9328C281.771 96.9328 282.285 100.314 284.174 98.8229C286.063 97.3314 286.156 110.047 286.156 110.047L284.128 142.775L269.476 141.828L269.892 126.014L271.55 118.042L275.651 106.453L278.091 102.623L280.996 98.112Z" fill="black"/>
<path d="M286.156 110.249L284.31 139.842L284.116 142.978L275.947 142.45L275.639 142.43L269.486 142.031L269.901 126.213L271.559 118.241L275.661 106.652L278.101 102.822L281.005 98.2947L281.781 97.1188C281.781 97.1188 282.294 100.5 284.184 99.0089L284.224 98.979C286.07 97.7167 286.156 110.249 286.156 110.249Z" fill="#1D2366"/>
<path d="M271.766 115.471C271.766 115.471 271.03 117.132 269.553 116.863C268.076 116.594 268.08 122.842 268.08 122.842C268.08 122.842 267.098 123.838 266.421 122.975C265.744 122.111 263.96 125.031 263.96 125.031L252.779 125.562C252.779 125.562 257.754 128.017 256.778 135.444C256.778 135.444 273.67 134.315 274.224 132.591C274.778 130.867 271.766 115.471 271.766 115.471Z" fill="white"/>
<path opacity="0.03" d="M271.766 115.471C271.766 115.471 271.03 117.132 269.553 116.863C268.076 116.594 268.08 122.842 268.08 122.842C268.08 122.842 267.098 123.838 266.421 122.975C265.744 122.111 263.96 125.031 263.96 125.031L252.779 125.562C252.779 125.562 257.754 128.017 256.778 135.444C256.778 135.444 273.67 134.315 274.224 132.591C274.778 130.867 271.766 115.471 271.766 115.471Z" fill="black"/>
<path d="M239.271 129.465L242.219 132.182L266.483 137.686L263.474 134.371L239.271 129.465Z" fill="white"/>
<path d="M281.042 99.1583C280.639 99.8227 279.485 103.224 278.522 106.194C277.719 108.668 277.048 110.844 277.048 110.844C277.048 110.844 275.482 121.852 274.682 123.842C273.882 125.831 274.316 133.591 274.316 133.591L271.335 152.753C271.335 152.753 269.984 162.635 267.898 168.538C265.84 174.348 263.547 177.071 263.477 177.158C264.4 175.809 269.43 149.256 269.43 149.256L271.092 115.767C271.092 115.767 271.335 112.585 271.581 109.864C271.827 107.144 276.811 103.43 276.811 103.43L281.617 96.0526C282.1 96.7501 281.777 97.9659 281.042 99.1583Z" fill="white"/>
<path d="M268.51 142.197C268.51 142.197 261.434 141.865 258.006 137.421C254.578 132.976 265.929 135.647 265.929 135.647L268.88 136.378L268.51 142.197Z" fill="#FFB0B1"/>
<path opacity="0.1" d="M301.558 193.062C301.179 194.509 301.118 196.032 301.38 197.51C293.66 198.101 285.402 195.849 285.402 195.849C283.864 197.377 279.811 199.629 279.811 199.629L277.602 170.066C276.19 166.08 275.636 145.197 275.636 145.197C275.636 145.197 275.762 144.104 275.944 142.466C275.944 142.426 275.944 142.383 275.959 142.343C276.51 137.769 277.602 129.183 278.138 128.024C278.876 126.429 275.867 122.187 275.867 122.187L277.236 109.582L277.402 108.06C280.288 106.669 282.501 102.224 282.501 102.224L284.199 99.0122C286.045 97.7333 286.14 110.266 286.14 110.266L284.294 139.859L290.411 138.035C290.411 138.035 302.601 189.282 301.558 193.062Z" fill="black"/>
<path d="M309.481 195.105C301.066 199.615 285.771 195.437 285.771 195.437C284.233 196.965 280.181 199.217 280.181 199.217L277.968 169.654C276.559 165.668 276.005 144.785 276.005 144.785C276.005 144.785 277.784 129.203 278.522 127.612C278.738 127.147 278.633 126.456 278.378 125.712C277.122 122.17 276.66 118.358 277.03 114.587L277.621 109.17L277.784 107.652C280.673 106.257 282.885 101.812 282.885 101.812L284.424 98.9026L287.254 93.5414L288.596 91.0037L288.823 91.2262L290.562 92.9269C290.562 92.9269 291.3 93.5912 292.408 94.5877C294.817 96.78 298.98 100.64 301.128 103.002C303.017 105.081 303.614 113.169 303.786 119.258C303.9 123.267 303.832 126.409 303.832 126.409C301.928 129.794 306.909 156.969 306.909 156.969C308.069 162.22 309.481 195.105 309.481 195.105Z" fill="white"/>
<path opacity="0.03" d="M293.328 101.746C293.328 101.746 287.553 113.614 288.223 118.125C288.894 122.636 290.802 127.741 289.882 128.934C289.566 129.386 289.157 129.752 288.688 130.005C288.219 130.258 287.702 130.391 287.177 130.392C286.254 130.458 283.793 132.315 283.793 132.515C283.793 132.714 281.519 132.714 279.485 133.644C277.451 134.574 274.448 135.102 274.448 135.102C274.448 135.102 268.603 134.903 268.058 135.501C267.513 136.099 266.953 139.676 268.119 142.529C269.286 145.383 270.581 147.512 271.559 147.9C272.538 148.289 278.747 146.044 283.784 145.512C288.82 144.981 294.288 140.673 294.288 140.673C294.288 140.673 300.309 138.347 301.364 134.438C302.42 130.528 300.075 109.04 300.075 109.04C300.075 109.04 298.303 99.0255 293.328 101.746Z" fill="black"/>
<path opacity="0.03" d="M292.589 100.749C292.589 100.749 286.814 112.621 287.491 117.129C288.168 121.636 290.07 126.745 289.146 127.941C288.832 128.393 288.424 128.76 287.955 129.013C287.486 129.266 286.969 129.398 286.445 129.399C285.522 129.465 283.061 131.322 283.061 131.521C283.061 131.721 280.787 131.721 278.753 132.647C276.719 133.574 273.716 134.106 273.716 134.106C273.716 134.106 267.87 133.906 267.329 134.504C266.787 135.102 266.221 138.683 267.39 141.533C268.559 144.383 269.852 146.515 270.83 146.904C271.809 147.293 278.018 145.047 283.054 144.519C288.091 143.991 293.559 139.676 293.559 139.676C293.559 139.676 299.577 137.351 300.62 133.445C301.663 129.538 299.331 108.044 299.331 108.044C299.331 108.044 297.565 98.0323 292.589 100.749Z" fill="black"/>
<path d="M293.146 101.148C293.146 101.148 287.371 113.02 288.048 117.527C288.725 122.035 290.626 127.143 289.706 128.336C289.391 128.789 288.983 129.157 288.514 129.411C288.044 129.665 287.527 129.797 287.002 129.797C286.079 129.864 283.617 131.721 283.617 131.917C283.617 132.113 281.347 132.116 279.31 133.046C277.273 133.976 274.273 134.504 274.273 134.504C274.273 134.504 268.427 134.305 267.883 134.903C267.338 135.501 266.778 139.081 267.944 141.931C269.11 144.781 270.406 146.914 271.384 147.303C272.362 147.691 278.571 145.446 283.608 144.914C288.645 144.383 294.112 140.075 294.112 140.075C294.112 140.075 300.134 137.749 301.189 133.84C302.244 129.93 299.915 108.442 299.915 108.442C299.915 108.442 298.118 98.4442 293.146 101.148Z" fill="white"/>
<path opacity="0.1" d="M293.02 132.989C293.02 132.989 288.405 131.993 290.011 133.654C291.617 135.315 291.608 136.77 293.574 136.703C295.54 136.637 293.02 132.989 293.02 132.989Z" fill="black"/>
<path opacity="0.1" d="M300.82 168.724C300.82 168.724 298.734 170.249 302.724 173.763C306.715 177.277 300.82 168.724 300.82 168.724Z" fill="black"/>
<path opacity="0.1" d="M296.838 181.257C296.838 181.456 296.1 188.564 298.863 190.341C301.626 192.118 296.838 181.257 296.838 181.257Z" fill="black"/>
<path d="M252.969 125.546C250.742 125.629 245.93 126.363 248.425 131.388C250.631 135.836 254.339 132.863 256.425 130.608C255.916 128.505 254.679 126.693 252.969 125.546Z" fill="#FFB0B1"/>
<path d="M256.452 130.567L256.544 130.465L256.452 130.567Z" fill="#FFB0B1"/>
<path opacity="0.1" d="M292.408 94.7904C290.045 96.5342 288.063 98.0057 287.676 98.3113C286.617 99.1584 284.599 104.131 283.297 106.669C282.261 108.711 278.891 109.236 277.621 109.366L277.784 107.848C280.673 106.453 282.885 102.008 282.885 102.008L288.596 91.1996L290.562 93.1295C290.562 93.1295 291.3 93.7939 292.408 94.7904Z" fill="black"/>
<path d="M292.408 94.5911C290.045 96.3349 288.063 97.8064 287.676 98.1153C286.617 98.959 284.599 103.932 283.297 106.469C282.261 108.512 278.891 109.037 277.621 109.167L277.784 107.649C280.673 106.253 282.885 101.809 282.885 101.809L288.596 91.0003L290.562 92.9236C290.562 92.9236 291.3 93.5813 292.408 94.5911Z" fill="#DCE7FF"/>
<path d="M287.86 86.1275C287.862 88.1214 287.302 90.0687 286.254 91.7112C285.017 93.6531 283.177 95.0521 281.066 95.6542C278.956 96.2564 276.715 96.0218 274.751 94.993C272.787 93.9643 271.23 92.2096 270.361 90.0472C269.493 87.8849 269.372 85.4582 270.019 83.2075C270.667 80.9567 272.04 79.0311 273.89 77.78C275.74 76.5289 277.944 76.0352 280.102 76.3884C282.261 76.7417 284.23 77.9185 285.654 79.7054C287.077 81.4922 287.86 83.7707 287.86 86.1275Z" fill="#FFB0B1"/>
<path opacity="0.1" d="M303.786 119.261C302.536 118.431 301.519 117.251 300.841 115.846C300.328 114.75 299.986 113.485 299.109 112.707C298.318 112.01 297.263 111.84 296.279 111.528C293.042 110.495 290.328 107.306 290.226 103.666C290.177 101.952 290.673 100.241 290.448 98.5438C290.32 97.5832 289.966 96.674 289.42 95.9031C289.149 95.5344 288.852 95.189 288.531 94.8701C288.1 94.4316 287.648 94.0064 287.254 93.5414C287.006 93.2535 286.789 92.9358 286.608 92.5947C286.462 92.3156 286.343 92.0205 286.254 91.7145C285.639 89.6816 286.199 87.2701 285.522 85.214L285.485 85.101C285.23 84.3703 284.71 83.6395 283.987 83.583C283.264 83.5266 282.645 84.1743 281.956 84.4633C280.513 85.0678 278.956 84.0381 277.753 82.9885C276.55 81.9388 275.193 80.7397 273.664 80.9722C272.652 81.1283 271.852 81.8724 270.919 82.2577C270.709 82.3457 270.492 82.4135 270.27 82.4603C271.059 80.3362 272.509 78.5749 274.37 77.4792C276.231 76.3835 278.388 76.0217 280.469 76.456C282.55 76.8903 284.427 78.0936 285.775 79.8591C287.124 81.6246 287.861 83.8422 287.86 86.1308C287.861 86.8218 287.794 87.5111 287.66 88.1869C287.676 88.2334 287.691 88.2766 287.71 88.3231C288.067 89.3196 288.47 90.3426 288.823 91.2262L290.562 92.9269C290.562 92.9269 291.3 93.5912 292.408 94.5877C294.817 96.78 298.98 100.64 301.128 103.001C303.017 105.088 303.607 113.172 303.786 119.261Z" fill="black"/>
<path d="M270.812 76.189C271.252 75.2224 271.47 74.1396 271.996 73.2228C272.769 71.8941 274.116 71.0438 275.501 70.5289C279.116 69.1836 286.756 67.2305 289.039 70.5289C289.488 71.1932 289.86 71.9307 290.482 72.389C290.956 72.7378 291.528 72.8873 292.048 73.1497C293.503 73.8871 294.432 75.4948 294.928 77.1357C295.423 78.7766 295.571 80.5371 295.934 82.2278C296.398 84.3969 297.214 86.453 298.026 88.4958C298.983 90.9073 299.998 93.4085 301.844 95.1126C304.364 97.4377 304.921 100.729 307.26 103.281C310.029 106.31 309.939 111.309 308.512 115.278C308.324 115.8 308.112 116.345 308.186 116.899C308.26 117.454 308.641 117.959 309.001 118.401L310.515 120.244C306.933 121.178 302.881 119.158 301.214 115.614C300.7 114.518 300.358 113.255 299.478 112.475C298.691 111.777 297.632 111.611 296.651 111.299C293.414 110.263 290.7 107.071 290.599 103.43C290.549 101.719 291.045 100.009 290.82 98.3146C290.695 97.3476 290.34 96.432 289.789 95.6573C288.943 94.4648 287.667 93.6643 286.977 92.3356C285.811 90.1135 286.697 87.2269 285.857 84.842C285.599 84.1112 285.082 83.3804 284.359 83.324C283.636 83.2675 283.017 83.9152 282.325 84.2042C280.885 84.8088 279.328 83.7824 278.125 82.7294C276.922 81.6764 275.565 80.4806 274.033 80.7165C273.021 80.8693 272.224 81.6133 271.292 82.0019C270.603 82.2876 269.206 82.5434 268.603 81.9156C267.329 80.65 270.279 77.3715 270.812 76.189Z" fill="#591D4B"/>
<path opacity="0.1" d="M302.069 114.518C301.552 113.422 301.214 112.159 300.334 111.382C299.546 110.685 298.488 110.515 297.503 110.203C294.269 109.17 291.556 105.978 291.451 102.337C291.402 100.627 291.897 98.9125 291.676 97.2185C291.547 96.2576 291.192 95.3484 290.645 94.5778C289.796 93.3853 288.519 92.5848 287.833 91.2561C286.667 89.0372 287.553 86.1507 286.71 83.7624C286.454 83.035 285.934 82.3042 285.214 82.2444C284.494 82.1846 283.87 82.839 283.181 83.128C281.741 83.7325 280.181 82.7028 278.981 81.6532C277.781 80.6035 276.418 79.4044 274.889 79.6369C273.876 79.793 273.076 80.5371 272.147 80.9224C271.458 81.2081 270.058 81.4672 269.455 80.8394C268.187 79.5107 271.138 76.2388 271.667 75.063C272.107 74.0931 272.326 73.0135 272.855 72.0967C272.882 72.0469 272.913 71.9971 272.944 71.9473C272.548 72.3013 272.207 72.7206 271.932 73.1896C271.406 74.1063 271.187 75.1826 270.747 76.1558C270.215 77.3317 267.264 80.6135 268.535 81.9322C269.15 82.5633 270.535 82.3042 271.224 82.0185C272.147 81.6299 272.953 80.8859 273.966 80.7331C275.504 80.4972 276.858 81.6963 278.058 82.746C279.258 83.7956 280.827 84.8254 282.261 84.2208C282.95 83.9318 283.553 83.2808 284.291 83.3406C285.03 83.4004 285.522 84.1278 285.79 84.8586C286.63 87.2435 285.744 90.1301 286.91 92.3522C287.599 93.6577 288.876 94.4748 289.722 95.6739C290.272 96.4486 290.628 97.3642 290.753 98.3312C290.977 100.025 290.482 101.736 290.531 103.447C290.633 107.1 293.346 110.279 296.583 111.316C297.558 111.628 298.623 111.794 299.411 112.492C300.294 113.272 300.641 114.534 301.146 115.63C302.814 119.175 306.866 121.194 310.447 120.261L309.733 119.391C306.629 119.44 303.487 117.534 302.069 114.518Z" fill="black"/>
<path opacity="0.1" d="M280.857 99.3576C280.454 100.022 279.301 103.423 278.338 106.393C277.436 106.014 276.618 103.599 276.618 103.599L281.424 96.2187C281.916 96.9494 281.593 98.1618 280.857 99.3576Z" fill="black"/>
<path d="M281.042 99.1584C280.639 99.8227 279.485 103.224 278.522 106.194C277.621 105.818 276.802 103.4 276.802 103.4L281.608 96.0227C282.1 96.7502 281.777 97.9659 281.042 99.1584Z" fill="#DCE7FF"/>
<path d="M253.098 133.093L250.434 124.021C250.402 123.915 250.391 123.803 250.399 123.692C250.408 123.581 250.437 123.472 250.484 123.373C250.532 123.274 250.597 123.186 250.676 123.114C250.755 123.043 250.846 122.988 250.945 122.955C251.143 122.888 251.358 122.908 251.542 123.012C251.727 123.115 251.866 123.293 251.929 123.506L254.594 132.568L254.329 134.464L253.098 133.093Z" fill="#BE8B87"/>
<path opacity="0.1" d="M250.686 123.224C250.885 123.156 251.1 123.176 251.286 123.279C251.471 123.383 251.61 123.561 251.674 123.775L254.338 132.837L254.138 134.258L254.332 134.478L254.597 132.581L251.917 123.519C251.853 123.306 251.714 123.128 251.53 123.025C251.345 122.922 251.131 122.901 250.932 122.968C250.766 123.026 250.622 123.143 250.523 123.3C250.575 123.27 250.63 123.244 250.686 123.224Z" fill="white"/>
<path d="M253.099 133.092L254.594 132.581L254.375 134.135L254.329 134.478L253.892 133.986L253.099 133.092Z" fill="#EFC8C4"/>
<path d="M253.892 133.986C253.918 133.951 253.951 133.921 253.988 133.9C254.009 133.885 254.034 133.877 254.06 133.877C254.086 133.877 254.111 133.885 254.132 133.9C254.153 133.927 254.171 133.957 254.185 133.989C254.205 134.026 254.233 134.057 254.266 134.081C254.299 134.104 254.336 134.12 254.375 134.126L254.329 134.458L253.892 133.986Z" fill="#727A9C"/>
<path d="M250.419 127.243C250.419 127.243 255.763 127.21 254.505 129.664C253.246 132.119 251.28 132.415 251.28 132.415L250.419 127.243Z" fill="#FFB0B1"/>
<path d="M217.18 17.08H216.949C207.768 17.08 199.648 22.3249 194.978 30.0644C190.307 22.3249 182.187 17.08 173.006 17.08H172.775C165.885 17.1509 159.299 20.1546 154.449 25.4382C149.598 30.7219 146.875 37.8587 146.872 45.2976C146.872 54.5351 150.619 67.6424 157.927 78.4278C171.849 98.979 194.978 116.959 194.978 116.959C194.978 116.959 218.106 98.9823 232.025 78.4278C239.336 67.6424 243.08 54.5351 243.08 45.2976C243.077 37.8592 240.354 30.723 235.504 25.4394C230.655 20.1558 224.069 17.1518 217.18 17.08ZM213.878 80.009C212.833 80.0047 211.813 79.6591 210.952 79.0177C210.092 78.3763 209.431 77.469 209.057 76.4149H203.568C203.207 76.4125 202.855 76.2883 202.562 76.0596C202.269 75.8309 202.05 75.5092 201.934 75.1394L200.248 69.6553L194.913 89.7813C194.809 90.1687 194.592 90.5093 194.293 90.7519C193.995 90.9945 193.631 91.1259 193.258 91.1266H193.15C192.76 91.1062 192.389 90.9421 192.097 90.6616C191.806 90.381 191.613 90.0011 191.55 89.5853L186.052 53.8841L182.033 75.0098C181.941 75.4112 181.727 75.7676 181.426 76.0223C181.124 76.2769 180.752 76.4152 180.369 76.4149H172.637C172.405 76.4255 172.174 76.3854 171.957 76.2969C171.74 76.2085 171.541 76.0735 171.374 75.9002C171.206 75.7269 171.073 75.5188 170.982 75.2884C170.891 75.0581 170.844 74.8102 170.844 74.5598C170.844 74.3093 170.891 74.0615 170.982 73.8311C171.073 73.6007 171.206 73.3926 171.374 73.2193C171.541 73.046 171.74 72.9111 171.957 72.8226C172.174 72.7342 172.405 72.694 172.637 72.7046H179.015L184.707 44.3011C184.801 43.8811 185.026 43.5093 185.346 43.249C185.665 42.9888 186.058 42.8564 186.458 42.8745C186.857 42.8925 187.239 43.0599 187.537 43.348C187.835 43.6361 188.031 44.027 188.092 44.4539L193.707 80.8726L198.488 62.8658C198.588 62.4866 198.798 62.1523 199.088 61.9128C199.378 61.6734 199.732 61.5416 200.097 61.5372H200.131C200.493 61.5373 200.845 61.6607 201.138 61.8897C201.431 62.1188 201.649 62.4418 201.762 62.8127L204.811 72.7146H208.989C209.286 71.7402 209.827 70.8734 210.552 70.2098C211.276 69.5462 212.157 69.1117 213.095 68.9541C214.034 68.7965 214.995 68.9221 215.872 69.3169C216.749 69.7117 217.508 70.3604 218.065 71.1914C218.622 72.0225 218.956 73.0035 219.029 74.0262C219.102 75.049 218.912 76.0737 218.48 76.9872C218.048 77.9008 217.39 78.6677 216.58 79.2032C215.769 79.7388 214.838 80.0222 213.888 80.0222L213.878 80.009Z" fill="#37D2F4"/>
</g>
<defs>
<linearGradient id="paint0_linear_12_1054" x1="109.636" y1="257.386" x2="109.636" y2="52.9905" gradientUnits="userSpaceOnUse">
<stop stop-color="#808080" stop-opacity="0.25"/>
<stop offset="0.54" stop-color="#808080" stop-opacity="0.12"/>
<stop offset="1" stop-color="#808080" stop-opacity="0.1"/>
</linearGradient>
<linearGradient id="paint1_linear_12_1054" x1="274.892" y1="254.802" x2="274.892" y2="68.1241" gradientUnits="userSpaceOnUse">
<stop stop-color="#808080" stop-opacity="0.25"/>
<stop offset="0.54" stop-color="#808080" stop-opacity="0.12"/>
<stop offset="1" stop-color="#808080" stop-opacity="0.1"/>
</linearGradient>
<clipPath id="clip0_12_1054">
<rect width="340" height="260" fill="white"/>
</clipPath>
</defs>
</svg>
