<svg width="340" height="260" viewBox="0 0 340 260" fill="none" xmlns="http://www.w3.org/2000/svg">
<g clip-path="url(#clip0_12_996)">
<path d="M235.069 190.628C236.216 189.692 237.311 188.748 238.353 187.796L235.069 190.628Z" fill="#E2D6FA"/>
<path d="M225.466 192.027L238.391 187.756C242.956 183.557 246.827 178.924 249.913 173.966C244.059 172.257 232.346 174.965 232.346 174.965C243.881 171.468 248.115 171.383 251.903 170.249C254.861 163.884 253.095 156.26 252.763 149.88C240.967 156.415 237.46 157.374 237.46 157.374C244.971 154.012 248.702 149.88 252.559 147.122C250.895 131.134 243.135 125.174 243.135 125.174C237.549 127.172 226.244 132.998 221.767 135.106C220.804 142.405 221.614 151.813 221.614 151.813C219.886 147.377 219.249 141.027 219.019 136.445C212.643 139.623 213.752 139.163 209.454 142.58C208.103 149.99 210.468 163.319 210.468 163.319C207.918 158.043 206.642 149.9 206.145 145.403C199.207 151.758 195.12 158.543 192.569 165.937C194.253 172.607 196.982 179.402 196.982 179.402C194.929 176.559 193.06 172.747 191.549 169.16C189.107 177.698 188.361 187.041 187.411 197.408L190.121 206.676L205.96 204.583C217.91 202.085 227.564 196.719 234.986 190.708L225.466 192.027Z" fill="#E2D6FA"/>
<path d="M206.961 190.144C204.895 192.752 202.721 195.315 200.33 197.763C197.969 200.255 195.233 202.515 192.181 204.493L192.021 204.373C194.952 202.322 197.553 200.001 199.769 197.458C202.026 194.96 204.054 192.347 205.979 189.689C209.856 184.383 213.331 178.892 216.775 173.392C220.218 167.891 223.457 162.29 227.283 156.929C229.196 154.246 231.16 151.588 233.277 149C235.369 146.395 237.643 143.881 240.087 141.471L240.278 141.566C236.421 146.907 232.818 152.323 229.279 157.779C225.74 163.234 222.01 168.62 218.381 174.056C214.753 179.492 211.061 184.898 206.961 190.144Z" fill="#FBF3FE"/>
<path opacity="0.65" d="M239.826 227.09C252.859 226.421 258.419 226.831 262.634 225.751C267.282 219.165 270.464 212.006 272.046 204.583C258.018 211.238 247.541 210.408 247.541 210.408C258.075 209.479 267.869 204.413 272.645 201.57C274.471 190.72 273.941 179.706 271.077 168.995C264.751 170.993 259.019 173.017 253.809 175.13C250.621 183.094 248.638 193.441 248.638 193.441C248.198 188.505 249.448 181.51 250.589 176.479C243.767 179.363 237.322 182.764 231.345 186.631C227.736 194.695 226.161 209.414 226.161 209.414C225.134 203.513 226.301 194.53 227.111 189.579C218.706 195.815 211.892 203.246 207.031 211.477C206.764 218.867 207.516 226.431 207.516 226.431C206.241 223.228 205.495 218.967 205.023 214.965C199.96 224.223 196.383 234.45 192.302 245.761V256.038L209.148 254.434C234.265 250.113 249.894 240.74 259.465 229.728C254.007 227.6 239.826 227.09 239.826 227.09Z" fill="#B61EEF"/>
<path d="M194.974 253.595C198.619 251.455 201.973 249.028 204.985 246.35C208.045 243.712 210.908 240.935 213.682 238.102C219.242 232.451 224.446 226.581 229.623 220.695C234.801 214.81 239.826 208.814 245.329 203.104C248.09 200.246 250.902 197.418 253.841 194.67C256.781 191.922 259.841 189.239 263.081 186.706L263.246 186.821C257.693 192.507 252.375 198.312 247.114 204.123C241.853 209.933 236.414 215.694 231.064 221.495C225.714 227.295 220.301 233.071 214.537 238.641C211.642 241.414 208.645 244.137 205.463 246.705C202.332 249.321 198.866 251.679 195.12 253.74L194.974 253.595Z" fill="#628AEC"/>
<path d="M62.432 170.214C61.9283 169.165 61.399 168.131 60.8379 167.131L62.432 170.214Z" fill="#E2D6FA"/>
<path d="M60.8124 176.164V167.091C58.3546 162.672 55.3112 158.467 51.7323 154.546C48.4165 157.044 47.3644 164.743 47.3644 164.743C47.6514 156.784 48.8502 154.401 48.9586 151.793C44.0614 147.297 36.5946 144.894 30.69 142.231C33.0811 151.688 32.9153 154.071 32.9153 154.071C32.1183 148.406 29.472 144.489 28.133 141.126C13.0973 134.921 5.32434 136.565 5.32434 136.565C5.49013 140.562 7.36481 149.425 7.93869 152.842C14.3152 156.64 23.0892 160.382 23.0892 160.382C18.53 159.382 12.5616 156.884 8.32766 154.966C9.30326 159.917 9.21399 159.103 11.0313 163.015C17.3631 167.071 30.199 171.703 30.199 171.703C24.6323 170.764 16.853 167.821 12.5999 166.107C16.0617 172.343 21.0064 178.007 27.1701 182.794C33.7507 184.858 40.752 186.357 40.752 186.357C37.0459 186.112 33.3778 185.591 29.7972 184.803C36.8114 189.964 45.1008 194.555 54.251 199.701L63.4969 202.344L66.3663 192.617C67.6799 184.868 65.7287 177.129 62.4767 170.324L60.8124 176.164Z" fill="#E2D6FA"/>
<path d="M53.5624 185.592C55.3159 187.9 56.993 190.249 58.4978 192.667C60.0489 195.07 61.2817 197.591 62.177 200.191L62.0176 200.221C61.0077 197.665 59.6703 195.196 58.0259 192.852C56.4318 190.488 54.6655 188.195 52.8291 185.942C49.1626 181.445 45.2156 177.049 41.2494 172.682C37.2833 168.316 33.1577 164.014 29.4338 159.502C27.5719 157.244 25.7419 154.971 24.0266 152.643C22.3113 150.314 20.6726 147.941 19.2251 145.503L19.3718 145.443C23.0637 149.965 26.9087 154.381 30.8112 158.778C34.7136 163.174 38.4629 167.641 42.3334 172.078C46.204 176.514 49.9916 180.986 53.5624 185.592Z" fill="#FBF3FE"/>
<path opacity="0.65" d="M55.7814 214.06C59.0908 204.822 61.2907 201.105 61.3927 197.843C55.4115 192.57 48.3307 188.132 40.4524 184.718C43.5641 196.524 39.3684 203.508 39.3684 203.508C41.6129 195.919 38.9539 187.556 37.2322 183.359C25.5642 178.708 12.9758 175.637 0 174.276C0.255059 179.272 0.771553 183.884 1.53035 188.15C9.52008 192.852 20.5705 197.448 20.5705 197.448C14.8636 196.214 7.36483 193.161 2.04047 190.803C3.16737 196.425 4.99117 201.947 7.48598 207.291C15.4566 212.287 31.5699 217.997 31.5699 217.997C24.5941 216.868 14.8253 213.256 9.48819 211.148C13.901 218.917 20.1591 225.959 27.929 231.897C36.1737 234.395 44.9478 236.233 44.9478 236.233C40.9433 236.098 35.8932 235.299 31.232 234.375C40.0953 240.775 50.4953 246.44 62.0048 252.801L73.5973 256.008L77.0533 243.812C80.0247 225.072 74.3306 211.337 64.8934 201.255C60.7806 204.398 55.7814 214.06 55.7814 214.06Z" fill="#B61EEF"/>
<path d="M71.6779 253.395C70.3965 250.205 68.7044 247.124 66.6277 244.202C64.6064 241.259 62.3683 238.407 60.0408 235.604C55.3988 229.988 50.3996 224.552 45.375 219.116C40.3503 213.681 35.1726 208.355 30.4285 202.744C28.0564 199.951 25.7609 197.118 23.5929 194.221C21.4249 191.323 19.3334 188.355 17.4843 185.357L17.6692 185.277C22.3495 190.898 27.2339 196.389 32.1438 201.855C37.0537 207.321 41.8615 212.836 46.7331 218.377C51.6048 223.918 56.4318 229.443 60.9144 235.174C63.1398 238.047 65.2696 240.97 67.1825 243.977C69.1496 246.97 70.7221 250.112 71.8756 253.355L71.6779 253.395Z" fill="#628AEC"/>
<path d="M224.057 77.2356C225.376 76.3862 226.658 75.5169 227.882 74.6426L224.057 77.2356Z" fill="#E2D6FA"/>
<path d="M215.302 78.2998L227.94 74.6076C233.39 70.7337 238.359 66.4628 242.778 61.8524C238.359 60.0738 227.315 62.352 227.315 62.352C238.487 59.3543 242.153 59.3893 245.807 58.42C250.634 52.4596 251.871 45.1752 253.841 39.1199C241.362 44.9654 237.989 45.8147 237.989 45.8147C245.641 42.817 250.34 39.015 254.638 36.5169C258.923 21.3286 254.383 15.4581 254.383 15.4581C248.861 17.2217 237.065 22.4127 232.467 24.2863C229.024 31.176 226.365 40.1091 226.365 40.1091C226.467 35.8574 228.189 29.822 229.63 25.4754C223.024 28.3132 224.133 27.9085 219.21 31.0311C215.385 38.0257 212.655 50.711 212.655 50.711C212.356 45.6399 214.199 37.8908 215.353 33.6141C207.672 39.0713 201.239 45.5177 196.332 52.6745C195.401 59.0396 195.311 65.5546 195.311 65.5546C194.559 62.8067 194.323 59.1445 194.304 55.6971C189.152 63.721 185.16 72.5542 180.639 82.3516L179.657 91.2098L194.036 89.661C205.208 87.6126 215.423 82.8013 223.948 77.3105L215.302 78.2998Z" fill="#E2D6FA"/>
<path d="M200.068 76.0065C197.358 78.4197 194.572 80.7928 191.645 83.0411C188.756 85.3185 185.603 87.3807 182.227 89.2014L182.138 89.0815C185.433 87.1939 188.498 85.0715 191.294 82.7413C194.125 80.4381 196.81 78.015 199.412 75.5519C204.647 70.6257 209.614 65.5196 214.524 60.3985C219.434 55.2775 224.242 50.0665 229.451 45.0903C232.046 42.5922 234.693 40.1391 237.434 37.741C240.176 35.3428 243.007 33.0096 245.985 30.7963L246.113 30.8912C240.884 35.8424 235.853 40.8835 230.854 45.9546C225.855 51.0257 220.728 56.0269 215.665 61.073C210.602 66.1191 205.456 71.1503 200.068 76.0065Z" fill="#FBF3FE"/>
<path opacity="0.65" d="M204.863 38.2506C212.317 31.256 215.869 28.5231 217.82 25.9251C217.235 21.3354 215.294 16.9155 212.152 13.015C207.286 22.8125 200.572 27.9185 200.572 27.9185C206.394 22.108 209.556 15.1084 210.902 11.5561C206.201 6.50299 199.876 2.51572 192.569 0C189.834 4.0269 187.468 7.76902 185.492 11.2713C187.838 15.9427 192.181 20.9039 192.181 20.9039C189.273 19.2552 186.289 15.9527 184.28 13.4497C181.798 17.9277 179.756 22.5476 178.171 27.269C180.314 32.2052 187.232 38.6103 187.232 38.6103C183.464 36.9016 179.364 32.8897 177.202 30.5865C175.366 37.761 175.506 43.7463 176.871 49.3021C179.461 51.2666 182.232 53.08 185.16 54.7279C182.445 53.9996 179.879 52.9681 177.54 51.6653C179.453 57.8055 182.756 63.5361 186.372 69.9462L191.862 73.8532L201.12 64.5054C213.873 49.8567 218.235 38.2056 218.088 29.0626C213.612 31.1011 204.863 38.2506 204.863 38.2506Z" fill="#B61EEF"/>
<path d="M192.13 71.54C193.143 68.9511 193.856 66.2956 194.259 63.6061C194.686 61.0181 194.897 58.48 195.069 55.972C195.382 50.9408 195.369 46.0196 195.33 41.0984C195.292 36.1772 195.082 31.3159 195.33 26.2848C195.464 23.7867 195.637 21.2387 195.93 18.6706C196.223 16.1026 196.631 13.5046 197.205 10.8617L197.365 10.8217C197.071 15.8578 196.976 20.814 196.937 25.7502C196.899 30.6864 196.708 35.6826 196.599 40.6537C196.491 45.6249 196.325 50.6461 195.847 55.7271C195.592 58.2802 195.248 60.8632 194.718 63.4912C194.195 66.2213 193.371 68.9109 192.257 71.53L192.13 71.54Z" fill="#628AEC"/>
<path d="M189.483 36.1922H179.919C186.4 36.1935 192.615 38.2117 197.197 41.8029C201.779 45.3941 204.353 50.2643 204.353 55.3424V240.27C204.353 245.348 201.779 250.217 197.196 253.808C192.614 257.398 186.399 259.415 179.919 259.415H189.483C195.964 259.415 202.179 257.398 206.761 253.808C211.344 250.217 213.918 245.348 213.918 240.27V55.3424C213.918 50.2643 211.344 45.3941 206.762 41.8029C202.179 38.2117 195.964 36.1935 189.483 36.1922Z" fill="#2AA7C2"/>
<path d="M179.899 36.1922H80.0375C66.5391 36.1922 55.5964 44.766 55.5964 55.3424V240.265C55.5964 250.842 66.5391 259.415 80.0375 259.415H179.899C193.398 259.415 204.34 250.842 204.34 240.265V55.3424C204.34 44.766 193.398 36.1922 179.899 36.1922Z" fill="#37D2F4"/>
<path d="M191.313 49.9915H68.6236C64.7075 49.9915 61.533 52.4789 61.533 55.5473V228.584C61.533 231.652 64.7075 234.14 68.6236 234.14H191.313C195.229 234.14 198.404 231.652 198.404 228.584V55.5473C198.404 52.4789 195.229 49.9915 191.313 49.9915Z" fill="white"/>
<path d="M143.292 45.6049H116.639C115.932 45.6049 115.254 45.3849 114.754 44.9932C114.254 44.6016 113.973 44.0704 113.973 43.5165C113.973 42.9626 114.254 42.4315 114.754 42.0398C115.254 41.6482 115.932 41.4281 116.639 41.4281H143.292C143.999 41.4281 144.677 41.6482 145.177 42.0398C145.677 42.4315 145.958 42.9626 145.958 43.5165C145.958 44.0704 145.677 44.6016 145.177 44.9932C144.677 45.3849 143.999 45.6049 143.292 45.6049Z" fill="#B1B8FF"/>
<path d="M137.949 251.437H122.008C120.234 251.437 118.532 250.884 117.278 249.902C116.023 248.919 115.319 247.586 115.319 246.196C115.318 245.507 115.49 244.825 115.826 244.188C116.162 243.552 116.654 242.974 117.275 242.486C117.897 241.999 118.634 241.613 119.446 241.349C120.258 241.085 121.129 240.95 122.008 240.95H137.949C139.723 240.951 141.425 241.504 142.679 242.488C143.933 243.472 144.638 244.805 144.638 246.196C144.638 247.586 143.933 248.919 142.678 249.902C141.424 250.884 139.723 251.437 137.949 251.437Z" fill="#B1B8FF"/>
<path d="M184.994 62.5119H78.5262V74.7225H184.994V62.5119Z" fill="#B1B8FF"/>
<path d="M184.994 88.0373H78.5262V100.248H184.994V88.0373Z" fill="#B1B8FF"/>
<path d="M148.808 113.563H78.5262V125.773H148.808V113.563Z" fill="#B1B8FF"/>
<path d="M250.806 252.756C250.302 254.204 250.079 255.788 250.87 257.127C252.502 259.885 257.361 260.235 261.314 259.89C272.065 258.951 282.535 255.768 293.324 255.788C301.263 255.788 308.985 257.562 316.917 257.787C324.849 258.011 333.713 256.288 338.227 251.152C340.07 249.048 340.886 245.996 338.68 244.202C337.405 243.148 335.409 242.818 333.534 242.583C316.082 240.405 298.336 242.513 280.737 242.319C274.998 242.254 269.521 239.985 263.909 241.634C260.784 242.578 257.978 244.072 255.706 246C253.434 247.928 251.757 250.239 250.806 252.756Z" fill="#CCDBFF"/>
<path d="M217.368 179.327L121.976 222.479C120.79 223.014 119.482 223.361 118.126 223.501C116.769 223.64 115.391 223.568 114.07 223.29C112.749 223.011 111.51 222.532 110.426 221.878C109.342 221.225 108.432 220.41 107.75 219.481L77.1426 177.953C76.4592 177.024 76.016 175.999 75.8385 174.937C75.6609 173.874 75.7524 172.794 76.1077 171.759C76.463 170.724 77.0751 169.753 77.9092 168.904C78.7432 168.054 79.7828 167.341 80.9684 166.807L176.367 123.655C177.552 123.119 178.86 122.772 180.217 122.633C181.573 122.494 182.951 122.566 184.273 122.844C185.594 123.122 186.832 123.602 187.916 124.256C189.001 124.909 189.91 125.724 190.593 126.653L221.2 168.176C221.884 169.105 222.328 170.13 222.505 171.194C222.683 172.258 222.591 173.338 222.235 174.374C221.879 175.41 221.266 176.38 220.431 177.23C219.596 178.08 218.555 178.793 217.368 179.327Z" fill="#5065FC"/>
<path d="M112.5 171.648C112.266 171.754 112.062 171.894 111.897 172.062C111.733 172.229 111.612 172.421 111.542 172.625C111.473 172.829 111.455 173.042 111.49 173.252C111.525 173.461 111.613 173.663 111.748 173.846L113.508 176.229L120.522 173.057L117.742 169.28L112.5 171.648Z" fill="#F4B67E"/>
<path d="M101.157 176.782L93.9618 180.037L96.7451 183.815L103.941 180.56L101.157 176.782Z" fill="#F4B67E"/>
<path d="M108.285 184.898L116.128 181.35L110.887 174.236C110.687 173.964 110.557 173.664 110.505 173.354C110.452 173.043 110.479 172.727 110.582 172.424C110.686 172.121 110.865 171.837 111.109 171.588C111.352 171.339 111.656 171.13 112.003 170.973L117.238 168.605C116.429 167.535 115.115 166.758 113.58 166.442C112.045 166.126 110.413 166.296 109.038 166.917L98.5485 171.663L108.285 184.898Z" fill="#F4B67E"/>
<path d="M114.005 176.909L116.989 180.961L118.781 180.151C120.157 179.529 121.165 178.506 121.584 177.304C122.003 176.103 121.8 174.821 121.019 173.736L114.005 176.909Z" fill="#F4B67E"/>
<path d="M100.659 176.105L97.6684 172.053L95.7045 172.942C94.3263 173.565 93.3179 174.589 92.8987 175.791C92.4796 176.993 92.6836 178.277 93.4663 179.362L100.659 176.105Z" fill="#F4B67E"/>
<path d="M104.44 181.236L97.2476 184.488C98.0561 185.561 99.3725 186.34 100.911 186.656C102.449 186.973 104.084 186.8 105.46 186.177L107.424 185.287L104.44 181.236Z" fill="#F4B67E"/>
<path d="M184.224 150.102C188.005 147.2 188.068 142.445 184.364 139.483C180.66 136.52 174.592 136.471 170.811 139.373C167.03 142.276 166.968 147.03 170.672 149.992C174.375 152.955 180.443 153.004 184.224 150.102Z" fill="#F4B67E"/>
<path d="M174.3 154.457C177.863 151.39 177.579 146.64 173.664 143.849C169.75 141.057 163.689 141.28 160.126 144.347C156.563 147.414 156.847 152.163 160.762 154.955C164.676 157.747 170.737 157.524 174.3 154.457Z" fill="#FDD8B1"/>
<path d="M114.704 197.849L108.994 200.432L112.291 204.906L118.001 202.323L114.704 197.849Z" fill="#F4B67E"/>
<path d="M152.464 193.714L116.145 210.143L119.441 214.617L155.761 198.188L152.464 193.714Z" fill="#F4B67E"/>
<path d="M124.904 193.232L119.194 195.815L122.491 200.289L128.201 197.706L124.904 193.232Z" fill="#F4B67E"/>
<path d="M135.104 188.614L129.394 191.197L132.691 195.671L138.401 193.088L135.104 188.614Z" fill="#F4B67E"/>
<path d="M145.311 183.997L139.601 186.58L142.897 191.054L148.607 188.471L145.311 183.997Z" fill="#F4B67E"/>
<path d="M155.519 179.386L149.809 181.969L153.106 186.443L158.816 183.86L155.519 179.386Z" fill="#F4B67E"/>
<path d="M180.846 167.927L175.136 170.51L178.432 174.984L184.142 172.401L180.846 167.927Z" fill="#F4B67E"/>
<path d="M189.143 164.175L183.433 166.758L186.729 171.232L192.439 168.649L189.143 164.175Z" fill="#F4B67E"/>
<path d="M197.442 160.417L191.732 163L195.029 167.474L200.739 164.891L197.442 160.417Z" fill="#F4B67E"/>
<path d="M249.875 87.5377C251.348 89.7909 251.08 92.9085 253.733 94.4723C256.385 96.0361 260.205 96.6007 263.227 95.4716C263.438 97.1403 263.807 98.3543 263.674 100.123C263.546 101.812 267.793 105.059 269.999 104.799C272.09 104.55 275.598 101.007 276.14 99.4685C276.682 97.9297 277.268 98.0945 276.828 96.5357C274.169 87.2379 274.813 88.2621 265.606 82.2567C261.907 79.8436 253.427 75.6218 248.498 76.2613C243.103 76.9808 247.822 84.4351 249.875 87.5377Z" fill="#F4B67E"/>
<path d="M212.623 142.97C212.623 142.97 204.442 143.075 200.955 143.43C198.257 143.709 197.269 144.549 197.269 144.549C197.269 144.549 197.027 146.228 202.147 145.933C204.697 145.788 205.265 146.657 205.265 146.657L207.816 150.155C207.816 150.155 213.121 147.157 214.454 145.938C215.786 144.719 212.623 142.97 212.623 142.97Z" fill="#F4B67E"/>
<path d="M260.645 99.4785C258.19 100.383 248.568 105.159 247.254 106.973C245.494 109.446 238.174 128.981 237.269 129.895C236.363 130.809 210.94 142.42 210.94 142.42L215.047 146.552C215.047 146.552 241.12 138.059 246.342 135.281C249.703 133.482 255.442 119.618 255.442 119.618C255.442 119.618 258.968 110.965 259.089 108.866C259.21 106.768 260.645 99.4785 260.645 99.4785Z" fill="#37D2F4"/>
<path d="M249.958 104.959C253.522 102.961 263.686 98.0846 263.642 98.1695C263.878 99.479 264.583 100.709 265.676 101.717C266.768 102.725 268.203 103.47 269.814 103.865C273.449 102.746 276.758 96.2809 276.758 96.2809C276.758 96.2809 291.163 98.3394 295.454 102.061C299.395 105.484 293.758 123.015 293.866 128.921C293.955 133.537 296.417 142.78 296.302 149.815C285.538 152.153 262.921 150.474 262.921 150.474C262.921 150.474 262.921 144.174 261.754 140.007C260.587 135.841 256.264 121.701 256.264 121.701C252.61 110.255 251.494 113.533 249.958 104.959Z" fill="#37D2F4"/>
<path d="M281.974 245.471H273.551L273.736 247.969C273.736 247.969 282.07 249.398 282.236 248.539C282.308 247.512 282.221 246.482 281.974 245.471Z" fill="#FDD8B1"/>
<path d="M282.408 254.139L275.559 253.98L274.826 252.806C272.947 253.785 270.756 254.332 268.501 254.384H256.271C256.271 254.384 255.531 247.959 265.995 247.959C266.868 247.959 270.828 248.819 271.549 248.809C272.46 248.809 273.226 247.944 273.736 247.964C275.967 248.049 280.067 247.964 282.35 247.964C282.35 247.954 283.606 252.865 282.408 254.139Z" fill="#08104E"/>
<path d="M312.881 244.812H304.458L304.642 247.31C304.642 247.31 312.97 248.744 313.136 247.884C313.21 246.856 313.125 245.824 312.881 244.812Z" fill="#FDD8B1"/>
<path d="M313.308 253.495L306.466 253.335L305.72 252.156C303.839 253.136 301.646 253.685 299.388 253.74H287.171C287.171 253.74 286.438 247.31 296.895 247.31C297.769 247.31 301.728 248.174 302.455 248.164C303.361 248.164 304.132 247.295 304.642 247.315C306.874 247.405 310.968 247.315 313.251 247.315C313.251 247.31 314.513 252.221 313.308 253.495Z" fill="#08104E"/>
<path d="M262.813 149.42C262.813 149.42 257.386 167.641 262.022 204.298C262.022 204.298 270.713 235.894 271.268 246.001L283.874 245.761C283.874 245.761 282.057 214.66 279.991 204.078C279.991 204.078 284.148 180.201 284.212 176.13C284.212 176.13 283.052 196.219 288.854 208.105C294.657 219.991 301.926 245.126 301.926 245.126L315.636 244.812C315.636 244.812 308.507 209.054 305.433 202.509C305.433 202.509 309.227 161.955 296.219 149.005C287.012 149.745 262.813 149.42 262.813 149.42Z" fill="#08104E"/>
<path d="M296.366 155.096C296.366 155.096 296.283 158.543 294.453 160.172C292.514 162.002 291.416 164.289 291.335 166.667C291.201 169.165 293.509 169.42 296.315 169.664C298.68 169.879 300.096 168.026 300.778 165.747C302.545 159.912 300.23 160.222 301.301 157.844C302.372 155.465 302.832 154.416 302.832 154.416L296.366 155.096Z" fill="#F4B67E"/>
<path d="M285.558 99.9731C285.558 99.9731 293.305 99.5684 297.035 103.306C300.765 107.043 308.876 131.099 308.704 133.108C308.532 135.116 302.054 160.497 302.054 160.497L293.898 158.878C293.898 158.878 298.84 135.361 298.33 133.093C298.33 133.093 283.836 115.051 281.617 108.771L285.558 99.9731Z" fill="#37D2F4"/>
<path d="M252.489 87.2629C253.211 87.2629 253.796 86.8043 253.796 86.2387C253.796 85.673 253.211 85.2144 252.489 85.2144C251.767 85.2144 251.182 85.673 251.182 86.2387C251.182 86.8043 251.767 87.2629 252.489 87.2629Z" fill="#08104E"/>
<path d="M255.933 80.2832C256.349 80.16 256.809 80.1635 257.222 80.293C257.635 80.4225 257.971 80.6685 258.164 80.9827L262.06 85.2094C262.5 84.7256 263.162 84.3948 263.907 84.2873C264.652 84.1797 265.422 84.3039 266.052 84.6334C266.683 84.9629 267.124 85.4718 267.284 86.0522C267.443 86.6327 267.308 87.2389 266.906 87.7425C268.182 87.6875 269.215 88.5119 270.171 89.1814C271.128 89.8509 273.717 89.7759 274.788 89.2214C274.209 84.5313 272.85 79.9207 270.745 75.5069C269.967 73.7732 267.2 71.6499 266.753 71.4051C264.343 70.0961 261.11 70.4358 258.215 70.8305C253.337 71.49 249.288 72.6291 245.36 75.0473C244.785 75.3587 244.306 75.7666 243.958 76.2413C243.623 76.8764 243.58 77.5827 243.836 78.2398C244.085 79.0692 244.391 80.4881 245.182 81.1426C245.819 81.6872 246.457 81.5473 247.369 81.4324C250.226 81.0476 253.076 80.6629 255.933 80.2832Z" fill="#08104E"/>
</g>
<defs>
<clipPath id="clip0_12_996">
<rect width="340" height="260" fill="white"/>
</clipPath>
</defs>
</svg>
