<svg width="22" height="22" viewBox="0 0 22 22" fill="none" xmlns="http://www.w3.org/2000/svg">
<path fill-rule="evenodd" clip-rule="evenodd" d="M19.8639 9.625H12.0922V1.375C12.0922 0.614625 11.5119 0 10.7969 0C10.0819 0 9.5016 0.614625 9.5016 1.375V9.625H1.72986C1.01486 9.625 0.43457 10.2396 0.43457 11C0.43457 11.7604 1.01486 12.375 1.72986 12.375H9.5016V20.625C9.5016 21.3854 10.0819 22 10.7969 22C11.5119 22 12.0922 21.3854 12.0922 20.625V12.375H19.8639C20.5789 12.375 21.1592 11.7604 21.1592 11C21.1592 10.2396 20.5789 9.625 19.8639 9.625Z" fill="#37D2F4"/>
</svg>
