<svg width="51" height="34" viewBox="0 0 51 34" fill="none" xmlns="http://www.w3.org/2000/svg">
<g clip-path="url(#clip0_143_7969)">
<path d="M47.6 34H3.4C2.49826 34 1.63346 33.6418 0.995837 33.0042C0.358213 32.3665 0 31.5017 0 30.6L0 3.4C0 2.49826 0.358213 1.63346 0.995837 0.995837C1.63346 0.358213 2.49826 0 3.4 0L47.6 0C48.5017 0 49.3665 0.358213 50.0042 0.995837C50.6418 1.63346 51 2.49826 51 3.4V30.6C51 31.5017 50.6418 32.3665 50.0042 33.0042C49.3665 33.6418 48.5017 34 47.6 34ZM39.3734 23.9275V25.5C39.5987 25.5312 39.8579 25.5496 40.1214 25.5496H40.1441C42.1189 25.5496 43.0553 24.7817 43.8628 22.508L47.4243 12.5205H45.3645L42.976 20.2357H42.9335L40.545 12.5205H38.4257L41.8611 22.0306L41.6769 22.6086C41.614 23.0088 41.403 23.3707 41.0858 23.6226C40.7685 23.8745 40.3682 23.998 39.9642 23.9686H39.9698C39.7712 23.9603 39.5728 23.9466 39.3748 23.9275H39.3734ZM8.09342 11.4098H8.05658C7.46015 11.4261 6.87811 11.5966 6.36716 11.9047C5.85622 12.2128 5.4338 12.648 5.14108 13.1679L5.13258 13.1849C3.93692 15.2419 4.69767 18.3897 6.02083 20.3065C6.64133 21.2132 7.32133 22.1 8.21808 22.1H8.26625C8.64167 22.0759 8.98875 21.9782 9.30183 21.8209L9.28625 21.828C9.6645 21.6382 10.1093 21.5263 10.5797 21.522C11.0344 21.5248 11.4651 21.6353 11.8433 21.828L11.8277 21.8209C12.1323 21.9796 12.4908 22.0759 12.8718 22.0844H12.9129C13.9117 22.066 14.5378 21.1494 15.0917 20.3419C15.487 19.7696 15.8142 19.1108 16.0437 18.4067L16.0593 18.3529V18.3387L16.0338 18.3274C15.4809 18.0794 15.0109 17.6777 14.6798 17.1701C14.3488 16.6624 14.1706 16.0703 14.1667 15.4643V15.4629C14.1716 14.9277 14.311 14.4024 14.5722 13.9352C14.8334 13.4681 15.2079 13.0741 15.6613 12.7897L15.674 12.7826L15.6995 12.7656C15.4086 12.3435 15.0222 11.996 14.5718 11.7513C14.1213 11.5066 13.6194 11.3716 13.107 11.3574H12.9526C12.345 11.3882 11.749 11.5358 11.1973 11.7923L11.2271 11.7796C10.9669 11.9051 10.6879 11.9869 10.4012 12.0218L10.3884 12.0233C10.08 11.9907 9.77976 11.9039 9.50158 11.7668L9.51717 11.7739C9.07408 11.5626 8.59465 11.4381 8.10475 11.407H8.09342V11.4098ZM33.7535 13.9825C35.0002 13.9825 35.6887 14.5662 35.6887 15.6244V16.3455L33.1585 16.4957C30.7856 16.6388 29.5318 17.6007 29.5318 19.2766C29.536 19.6798 29.6252 20.0776 29.7937 20.4439C29.9622 20.8103 30.2061 21.1369 30.5096 21.4025C30.813 21.6681 31.1691 21.8666 31.5545 21.9851C31.9399 22.1036 32.346 22.1394 32.7463 22.0901L32.7321 22.0915L32.8242 22.0929C34.0552 22.0929 35.1319 21.4299 35.7156 20.4397L35.7241 20.4241H35.7666V21.9852H37.6437V15.4884C37.6437 13.6042 36.1406 12.3887 33.8144 12.3887C31.6696 12.3887 30.0744 13.6184 30.0107 15.3113H31.8382C31.9451 14.8949 32.1987 14.5311 32.5524 14.2867C32.9061 14.0423 33.3361 13.9338 33.7634 13.9811L33.7549 13.9797L33.7535 13.9825ZM19.8333 8.93067V21.9867H21.8606V17.5213H24.6613C25.2384 17.552 25.8156 17.4618 26.3558 17.2565C26.896 17.0512 27.3874 16.7353 27.7984 16.329C28.2095 15.9228 28.5311 15.4352 28.7428 14.8974C28.9544 14.3596 29.0514 13.7836 29.0275 13.2062V13.2147C29.0526 12.6435 28.9583 12.0733 28.7504 11.5406C28.5426 11.008 28.2259 10.5246 27.8205 10.1213C27.4151 9.7181 26.9301 9.40392 26.3963 9.19889C25.8626 8.99387 25.2919 8.90251 24.7208 8.93067H24.7308H19.8333ZM13.1084 7.93333C12.2985 8.01009 11.5493 8.39563 11.016 9.01L11.0132 9.01425C10.7478 9.3117 10.5446 9.65917 10.4154 10.0362C10.2863 10.4133 10.2337 10.8124 10.2609 11.2101V11.2016C10.3091 11.2016 10.3601 11.2072 10.4167 11.2072C10.7942 11.1868 11.1632 11.087 11.4995 10.9144C11.8359 10.7418 12.1321 10.5003 12.3689 10.2057L12.3732 10.2C12.9081 9.56672 13.1727 8.74857 13.1098 7.922V7.93192L13.1084 7.93333ZM33.2761 20.5431C32.2023 20.5431 31.5067 20.026 31.5067 19.227C31.5067 18.4025 32.1725 17.9279 33.4333 17.8528L35.6858 17.7112V18.4492C35.6733 18.7487 35.5996 19.0423 35.4693 19.3122C35.339 19.5821 35.1549 19.8224 34.9282 20.0184C34.7015 20.2144 34.4372 20.362 34.1513 20.452C33.8655 20.5419 33.5642 20.5725 33.2662 20.5417L33.2761 20.5431ZM24.1839 15.8256H21.8549V10.6392H24.1924C24.5524 10.5899 24.9189 10.6216 25.2651 10.7321C25.6113 10.8426 25.9284 11.029 26.1933 11.2777C26.4582 11.5265 26.6641 11.8313 26.7962 12.1698C26.9282 12.5083 26.9829 12.8721 26.9563 13.2345V13.226C26.9822 13.5903 26.9262 13.9558 26.7924 14.2956C26.6587 14.6355 26.4506 14.9411 26.1834 15.1901C25.9162 15.4391 25.5967 15.6251 25.2483 15.7346C24.8998 15.844 24.5313 15.8742 24.1698 15.8227L24.1825 15.8242L24.1839 15.8256Z" fill="black"/>
</g>
<defs>
<clipPath id="clip0_143_7969">
<rect width="51" height="34" fill="white"/>
</clipPath>
</defs>
</svg>
