<svg width="40" height="40" viewBox="0 0 40 40" fill="none" xmlns="http://www.w3.org/2000/svg">
<circle opacity="0.1" cx="20" cy="20" r="20" fill="#37D2F4"/>
<path d="M17 29.75C16.9999 30.0456 16.9416 30.3382 16.8284 30.6113C16.7152 30.8843 16.5493 31.1324 16.3402 31.3413C16.1312 31.5502 15.883 31.7159 15.6099 31.829C15.3368 31.942 15.0441 32.0001 14.7485 32C14.4529 31.9999 14.1603 31.9416 13.8872 31.8284C13.6142 31.7152 13.3661 31.5493 13.1572 31.3402C12.9483 31.1312 12.7826 30.883 12.6695 30.6099C12.5565 30.3368 12.4984 30.0441 12.4985 29.7485C12.4987 29.1516 12.736 28.5792 13.1583 28.1572C13.5805 27.7352 14.1531 27.4983 14.75 27.4985C15.3469 27.4987 15.9193 27.736 16.3413 28.1583C16.7633 28.5805 17.0002 29.1531 17 29.75ZM32 29.75C31.9999 30.0456 31.9416 30.3382 31.8284 30.6113C31.7152 30.8843 31.5493 31.1324 31.3402 31.3413C31.1312 31.5502 30.883 31.7159 30.6099 31.829C30.3368 31.942 30.0441 32.0001 29.7485 32C29.4529 31.9999 29.1603 31.9416 28.8872 31.8284C28.6142 31.7152 28.3661 31.5493 28.1572 31.3402C27.9483 31.1312 27.7826 30.883 27.6695 30.6099C27.5565 30.3368 27.4984 30.0441 27.4985 29.7485C27.4987 29.1516 27.736 28.5792 28.1583 28.1572C28.5805 27.7352 29.1531 27.4983 29.75 27.4985C30.3469 27.4987 30.9193 27.736 31.3413 28.1583C31.7633 28.5805 32.0002 29.1531 32 29.75ZM32 20V11H14C14 10.6022 13.842 10.2206 13.5607 9.93934C13.2794 9.65804 12.8978 9.5 12.5 9.5H8V11H11L12.1265 20.657C11.641 21.0453 11.288 21.5748 11.1165 22.1724C10.945 22.7699 10.9634 23.406 11.1691 23.9927C11.3748 24.5794 11.7577 25.0876 12.2648 25.4472C12.772 25.8068 13.3783 26 14 26H32V24.5H14C13.6022 24.5 13.2206 24.342 12.9393 24.0607C12.658 23.7794 12.5 23.3978 12.5 23V22.985L32 20Z" fill="#37D2F4"/>
</svg>
