<svg width="32" height="32" viewBox="0 0 32 32" fill="none" xmlns="http://www.w3.org/2000/svg">
<circle opacity="0.15" cx="16" cy="16" r="16" fill="#37D2F4"/>
<path fill-rule="evenodd" clip-rule="evenodd" d="M14.3334 9.3335H17.6667C20.8092 9.3335 22.3809 9.3335 23.3567 10.3102C24.06 11.0127 24.2567 12.0243 24.3117 13.7085H7.68835C7.74335 12.0243 7.94002 11.0127 8.64335 10.3102C9.61919 9.3335 11.1909 9.3335 14.3334 9.3335ZM17.6667 22.6668H14.3334C11.1909 22.6668 9.61919 22.6668 8.64335 21.6902C7.66669 20.7143 7.66669 19.1427 7.66669 16.0002C7.66669 15.6318 7.66669 15.2852 7.66835 14.9585H24.3317C24.3334 15.2852 24.3334 15.6318 24.3334 16.0002C24.3334 19.1427 24.3334 20.7143 23.3567 21.6902C22.3809 22.6668 20.8092 22.6668 17.6667 22.6668ZM11 18.7085C10.8343 18.7085 10.6753 18.7743 10.5581 18.8916C10.4409 19.0088 10.375 19.1677 10.375 19.3335C10.375 19.4993 10.4409 19.6582 10.5581 19.7754C10.6753 19.8926 10.8343 19.9585 11 19.9585H14.3334C14.4991 19.9585 14.6581 19.8926 14.7753 19.7754C14.8925 19.6582 14.9584 19.4993 14.9584 19.3335C14.9584 19.1677 14.8925 19.0088 14.7753 18.8916C14.6581 18.7743 14.4991 18.7085 14.3334 18.7085H11ZM16.4167 18.7085C16.2509 18.7085 16.092 18.7743 15.9747 18.8916C15.8575 19.0088 15.7917 19.1677 15.7917 19.3335C15.7917 19.4993 15.8575 19.6582 15.9747 19.7754C16.092 19.8926 16.2509 19.9585 16.4167 19.9585H17.6667C17.8324 19.9585 17.9914 19.8926 18.1086 19.7754C18.2258 19.6582 18.2917 19.4993 18.2917 19.3335C18.2917 19.1677 18.2258 19.0088 18.1086 18.8916C17.9914 18.7743 17.8324 18.7085 17.6667 18.7085H16.4167Z" fill="#37D2F4"/>
</svg>
