<svg width="32" height="32" viewBox="0 0 32 32" fill="none" xmlns="http://www.w3.org/2000/svg">
<circle opacity="0.15" cx="16" cy="16" r="16" fill="#37D2F4"/>
<path d="M21 9.33301H11C9.15835 9.33301 7.66669 10.8247 7.66669 12.6663V19.333C7.66669 21.1747 9.15835 22.6663 11 22.6663H21C22.8417 22.6663 24.3334 21.1747 24.3334 19.333V12.6663C24.3334 10.8247 22.8417 9.33301 21 9.33301ZM19.45 17.4747C19.25 17.6413 18.975 17.708 18.7167 17.6413L9.45835 15.3747C9.70835 14.7663 10.3 14.333 11 14.333H21C21.5584 14.333 22.05 14.6163 22.3584 15.033L19.45 17.4747ZM11 10.9997H21C21.9167 10.9997 22.6667 11.7497 22.6667 12.6663V13.1247C22.175 12.8413 21.6084 12.6663 21 12.6663H11C10.3917 12.6663 9.82502 12.8413 9.33335 13.1247V12.6663C9.33335 11.7497 10.0834 10.9997 11 10.9997Z" fill="#37D2F4"/>
</svg>
