<svg width="76" height="76" viewBox="0 0 76 76" fill="none" xmlns="http://www.w3.org/2000/svg">
<circle opacity="0.15" cx="38" cy="38" r="38" fill="#37D2F4"/>
<path d="M20.696 27.6877C23.3711 27.6877 25.5398 25.5191 25.5398 22.8439C25.5398 20.1687 23.3711 18 20.696 18C18.0208 18 15.8521 20.1687 15.8521 22.8439C15.8521 25.5191 18.0208 27.6877 20.696 27.6877Z" fill="#37D2F4"/>
<path d="M57.9148 52.5922C57.913 52.5922 57.9111 52.5922 57.9084 52.5922L45.7578 52.6113L48.5473 41.921C48.7402 40.6391 48.611 39.7411 48.3544 38.9077C47.2708 35.192 37.2819 27.1919 37.2819 27.1919C37.2819 27.1919 31.2535 21.764 27.4468 23.8584C25.3952 24.8428 25.225 26.979 25.2669 28.2191C25.2623 28.2692 25.2396 43.3166 25.2332 48.1569C19.6669 48.8402 15.0378 53.1245 15.0005 55.3217C14.9577 57.8546 17.6144 58.2495 17.6144 58.2495C17.8073 58.2495 20.4767 58.2458 23.7302 58.2395C22.4655 57.2414 21.6376 55.7129 21.6376 53.9779C21.6376 50.9691 24.0859 48.5226 27.0938 48.5226C30.1016 48.5226 32.5481 50.9691 32.5481 53.9779C32.5481 55.7056 31.7266 57.2287 30.4692 58.2295C33.6144 58.2258 36.0973 58.2213 36.0973 58.2213C37.8415 58.2176 39.0552 57.2269 38.6512 55.0642C38.2572 52.9598 34.6889 49.6244 29.9424 48.479L32.085 36.7987L39.2535 40.821L39.3026 55.4473C39.309 57.0003 40.5673 58.255 42.1203 58.255C42.1222 58.255 42.124 58.255 42.1267 58.255H42.2832H42.285H42.2868L57.9221 58.2277C59.4769 58.2258 60.737 56.9603 60.7334 55.4036C60.7297 53.8505 59.4678 52.5922 57.9148 52.5922Z" fill="#37D2F4"/>
<path d="M31.3171 53.9776C31.3171 51.6467 29.4274 49.7524 27.0938 49.7524C24.7592 49.7524 22.8695 51.6467 22.8695 53.9776C22.8695 56.3086 24.7592 58.2028 27.0938 58.2028C29.4265 58.2028 31.3171 56.3095 31.3171 53.9776Z" fill="#37D2F4"/>
</svg>
