<svg width="33" height="32" viewBox="0 0 33 32" fill="none" xmlns="http://www.w3.org/2000/svg">
<path d="M6.5 4H26.5C28.706 4 30.5 5.794 30.5 8V20C30.5 22.206 28.706 24 26.5 24H13.74C14.6035 23.2564 15.2969 22.3357 15.7731 21.3004C16.2493 20.2651 16.4972 19.1395 16.5 18C16.4972 16.8605 16.2493 15.7349 15.7731 14.6996C15.2969 13.6643 14.6035 12.7436 13.74 12H23.5C23.7652 12 24.0196 11.8946 24.2071 11.7071C24.3946 11.5196 24.5 11.2652 24.5 11C24.5 10.7348 24.3946 10.4804 24.2071 10.2929C24.0196 10.1054 23.7652 10 23.5 10H8.5C7.36046 10.0028 6.23485 10.2507 5.19959 10.7269C4.16432 11.2032 3.24363 11.8965 2.5 12.76V8C2.5 5.794 4.294 4 6.5 4ZM19.5 18H23.5C23.7652 18 24.0196 17.8946 24.2071 17.7071C24.3946 17.5196 24.5 17.2652 24.5 17C24.5 16.7348 24.3946 16.4804 24.2071 16.2929C24.0196 16.1054 23.7652 16 23.5 16H19.5C19.2348 16 18.9804 16.1054 18.7929 16.2929C18.6054 16.4804 18.5 16.7348 18.5 17C18.5 17.2652 18.6054 17.5196 18.7929 17.7071C18.9804 17.8946 19.2348 18 19.5 18ZM8.5 24C10.0913 24 11.6174 23.3679 12.7426 22.2426C13.8679 21.1174 14.5 19.5913 14.5 18C14.5 16.4087 13.8679 14.8826 12.7426 13.7574C11.6174 12.6321 10.0913 12 8.5 12C6.9087 12 5.38258 12.6321 4.25736 13.7574C3.13214 14.8826 2.5 16.4087 2.5 18C2.5 19.5913 3.13214 21.1174 4.25736 22.2426C5.38258 23.3679 6.9087 24 8.5 24ZM4.5 29V24.886C5.71069 25.6058 7.09149 25.9897 8.5 25.998C9.964 25.998 11.318 25.574 12.5 24.886V28.998C12.499 29.1788 12.4495 29.3561 12.3566 29.5112C12.2637 29.6663 12.1309 29.7937 11.972 29.88C11.8125 29.9651 11.633 30.0056 11.4524 29.9971C11.2718 29.9887 11.0969 29.9316 10.946 29.832L8.5 28.2L6.054 29.83C5.90401 29.9323 5.72887 29.9915 5.54759 30.0013C5.36631 30.0111 5.18581 29.9711 5.02567 29.8856C4.86553 29.8 4.73188 29.6723 4.63921 29.5162C4.54654 29.3601 4.4984 29.1815 4.5 29Z" fill="white"/>
</svg>
