<svg width="32" height="32" viewBox="0 0 32 32" fill="none" xmlns="http://www.w3.org/2000/svg">
<circle opacity="0.15" cx="16" cy="16" r="16" fill="#37D2F4"/>
<path d="M9.75 8.5H22.25C23.6287 8.5 24.75 9.62125 24.75 11V18.5C24.75 19.8787 23.6287 21 22.25 21H14.275C14.8147 20.5352 15.248 19.9598 15.5457 19.3128C15.8433 18.6657 15.9983 17.9622 16 17.25C15.9983 16.5378 15.8433 15.8343 15.5457 15.1872C15.248 14.5402 14.8147 13.9648 14.275 13.5H20.375C20.5408 13.5 20.6997 13.4342 20.8169 13.3169C20.9342 13.1997 21 13.0408 21 12.875C21 12.7092 20.9342 12.5503 20.8169 12.4331C20.6997 12.3158 20.5408 12.25 20.375 12.25H11C10.2878 12.2517 9.58428 12.4067 8.93724 12.7043C8.2902 13.002 7.71477 13.4353 7.25 13.975V11C7.25 9.62125 8.37125 8.5 9.75 8.5ZM17.875 17.25H20.375C20.5408 17.25 20.6997 17.1842 20.8169 17.0669C20.9342 16.9497 21 16.7908 21 16.625C21 16.4592 20.9342 16.3003 20.8169 16.1831C20.6997 16.0658 20.5408 16 20.375 16H17.875C17.7092 16 17.5503 16.0658 17.4331 16.1831C17.3158 16.3003 17.25 16.4592 17.25 16.625C17.25 16.7908 17.3158 16.9497 17.4331 17.0669C17.5503 17.1842 17.7092 17.25 17.875 17.25ZM11 21C11.9946 21 12.9484 20.6049 13.6517 19.9017C14.3549 19.1984 14.75 18.2446 14.75 17.25C14.75 16.2554 14.3549 15.3016 13.6517 14.5983C12.9484 13.8951 11.9946 13.5 11 13.5C10.0054 13.5 9.05161 13.8951 8.34835 14.5983C7.64509 15.3016 7.25 16.2554 7.25 17.25C7.25 18.2446 7.64509 19.1984 8.34835 19.9017C9.05161 20.6049 10.0054 21 11 21ZM8.5 24.125V21.5538C9.25668 22.0037 10.1197 22.2436 11 22.2487C11.915 22.2487 12.7613 21.9837 13.5 21.5538V24.1237C13.4994 24.2368 13.4684 24.3475 13.4104 24.4445C13.3523 24.5415 13.2693 24.6211 13.17 24.675C13.0703 24.7282 12.9581 24.7535 12.8452 24.7482C12.7324 24.7429 12.623 24.7073 12.5287 24.645L11 23.625L9.47125 24.6437C9.37751 24.7077 9.26805 24.7447 9.15474 24.7508C9.04144 24.757 8.92863 24.7319 8.82854 24.6785C8.72846 24.625 8.64492 24.5452 8.58701 24.4476C8.52909 24.35 8.499 24.2385 8.5 24.125Z" fill="#37D2F4"/>
</svg>
