<svg width="37" height="37" viewBox="0 0 37 37" fill="none" xmlns="http://www.w3.org/2000/svg">
<circle opacity="0.1" cx="18.5" cy="18.5" r="18.5" fill="#37D2F4"/>
<path fill-rule="evenodd" clip-rule="evenodd" d="M27.8 21.56L24.7101 18.7L27.8 15.8411V21.56ZM22.3 23.1C22.3 23.7072 21.8072 24.2 21.2 24.2H11.3C10.6928 24.2 10.2 23.7072 10.2 23.1V14.3C10.2 13.6939 10.6928 13.2 11.3 13.2H21.2C21.8072 13.2 22.3 13.6939 22.3 14.3V23.1ZM28.9132 13.3606C28.2246 13.0603 27.426 13.1912 26.8771 13.6972L24.5 15.8972V14.3C24.5 12.4806 23.0194 11 21.2 11H11.3C9.4806 11 8 12.4806 8 14.3V23.1C8 24.9205 9.4806 26.4 11.3 26.4H21.2C23.0194 26.4 24.5 24.9205 24.5 23.1V21.5039L26.8771 23.7028C27.2291 24.0295 27.6856 24.2 28.1509 24.2C28.4083 24.2 28.6668 24.1483 28.9132 24.0405C29.5831 23.7479 30 23.122 30 22.4081V14.993C30 14.2791 29.5831 13.6532 28.9132 13.3606Z" fill="#37D2F4"/>
</svg>
