<svg width="37" height="37" viewBox="0 0 37 37" fill="none" xmlns="http://www.w3.org/2000/svg">
<circle opacity="0.1" cx="18.5" cy="18.5" r="18.5" fill="#37D2F4"/>
<path fill-rule="evenodd" clip-rule="evenodd" d="M13.06 10.2C11.4826 10.2 10.2 11.4826 10.2 13.06C10.2 21.1868 16.8121 27.8 24.94 27.8C26.5163 27.8 27.8 26.5174 27.8 24.94C27.8 24.8179 27.7923 24.698 27.7769 24.5792L22.6949 23.4132C22.5937 23.6068 22.4826 23.8169 22.3814 24.0127C21.8798 24.9697 21.5168 25.6649 20.5906 25.292C16.954 24.016 13.9851 21.046 12.6926 17.3654C12.2999 16.5019 13.0479 16.1103 13.9961 15.6153C14.1886 15.5141 14.3965 15.4052 14.5868 15.3062L13.4208 10.2231C13.2987 10.2077 13.1799 10.2 13.06 10.2ZM24.94 30C15.5988 30 8 22.4012 8 13.06C8 10.2693 10.2693 8 13.06 8C13.346 8 13.6287 8.0242 13.9026 8.0715C14.1699 8.1144 14.4383 8.1826 14.7001 8.2728C15.0576 8.3971 15.3271 8.6974 15.4118 9.067L16.9177 15.6274C17.0013 15.9882 16.8968 16.3666 16.6394 16.635C16.4898 16.7912 16.4865 16.7945 15.1225 17.5084C16.2269 19.8998 18.1464 21.8127 20.4894 22.8797C21.2044 21.5146 21.2088 21.5102 21.365 21.3606C21.6334 21.1032 22.014 21.0031 22.3726 21.0823L28.9341 22.5882C29.3026 22.6729 29.6029 22.9413 29.7261 23.2988C29.8163 23.5584 29.8845 23.8268 29.9296 24.1029C29.9758 24.3746 30 24.6562 30 24.94C30 27.7307 27.7296 30 24.94 30Z" fill="#37D2F4"/>
</svg>
