<svg width="80" height="80" viewBox="0 0 80 80" fill="none" xmlns="http://www.w3.org/2000/svg">
<circle opacity="0.15" cx="40" cy="40" r="40" fill="#37D2F4"/>
<path d="M34.0479 22.8949C36.5913 22.8949 38.6532 20.833 38.6532 18.2896C38.6532 15.7462 36.5913 13.6843 34.0479 13.6843C31.5045 13.6843 29.4426 15.7462 29.4426 18.2896C29.4426 20.833 31.5045 22.8949 34.0479 22.8949Z" fill="#37D2F4"/>
<path d="M45.8242 43.5526L42.7321 28.0262C41.4821 26.6447 39.9032 25.592 38.0611 24.9341C36.8111 24.4736 35.4295 24.2104 33.9821 24.2104C32.5348 24.2104 31.219 24.4736 29.9032 24.9341C28.1269 25.592 26.5479 26.6447 25.2321 28.0262L22.14 43.5526C21.9426 44.6052 22.6005 45.6578 23.719 45.8552C23.8505 45.8552 23.9821 45.921 24.1137 45.921C25.0348 45.921 25.89 45.2631 26.0216 44.342L28.7848 30.9868V66.3157H32.7321V45.921H35.3637V66.3157H39.3111V30.9868L42.0084 44.342C42.14 45.2631 42.9953 45.921 43.9163 45.921C44.0479 45.921 44.1795 45.921 44.3111 45.8552C45.3637 45.6578 46.0874 44.6052 45.8242 43.5526Z" fill="#37D2F4"/>
<path d="M51.811 48.5526C53.6277 48.5526 55.1004 47.0798 55.1004 45.2631C55.1004 43.4464 53.6277 41.9736 51.811 41.9736C49.9942 41.9736 48.5215 43.4464 48.5215 45.2631C48.5215 47.0798 49.9942 48.5526 51.811 48.5526Z" fill="#37D2F4"/>
<path d="M58.9163 57.2369L56.6137 51.7106C55.8242 50.5922 54.5742 49.7369 53.1926 49.3422C52.7979 49.2764 52.2716 49.2106 51.811 49.2106H48.5216L45.0347 43.2895C44.64 42.6316 43.8505 42.4343 43.2584 42.829C42.6005 43.2237 42.4031 44.0132 42.7979 44.6053L48.5216 54.3422V66.3158H51.1531V58.4211H52.4689V66.3158H55.1005V54.8685L56.5479 58.2895C56.7452 58.8158 57.2716 59.079 57.7321 59.079C57.9295 59.079 58.061 59.079 58.2584 58.9474C58.9163 58.6843 59.2452 57.8948 58.9163 57.2369Z" fill="#37D2F4"/>
</svg>
