<svg width="37" height="37" viewBox="0 0 37 37" fill="none" xmlns="http://www.w3.org/2000/svg">
<path fill-rule="evenodd" clip-rule="evenodd" d="M20.2313 13.2784C20.3523 13.1774 20.4921 13.1013 20.6427 13.0543C20.7932 13.0074 20.9515 12.9906 21.1085 13.0048C21.2655 13.0191 21.4182 13.0642 21.5578 13.1375C21.6974 13.2107 21.8212 13.3108 21.9221 13.432L25.9217 18.232C26.027 18.3524 26.1072 18.4927 26.1576 18.6446C26.2079 18.7965 26.2274 18.9569 26.2148 19.1164C26.2022 19.2759 26.1579 19.4313 26.0844 19.5734C26.0108 19.7156 25.9097 19.8416 25.7867 19.944C25.6638 20.0464 25.5216 20.1232 25.3686 20.1699C25.2155 20.2166 25.0547 20.2322 24.8955 20.2158C24.7364 20.1994 24.5821 20.1513 24.4418 20.0744C24.3014 19.9975 24.1779 19.8933 24.0785 19.768L20.0777 14.968C19.8741 14.7235 19.7759 14.4082 19.8047 14.0914C19.8335 13.7746 19.9869 13.4821 20.2313 13.2784Z" fill="#37D2F4"/>
<path fill-rule="evenodd" clip-rule="evenodd" d="M20.2313 24.7216C19.9869 24.5179 19.8335 24.2254 19.8047 23.9086C19.7759 23.5918 19.8741 23.2765 20.0777 23.032L24.0785 18.232C24.1779 18.1067 24.3014 18.0025 24.4418 17.9256C24.5821 17.8487 24.7364 17.8006 24.8955 17.7842C25.0547 17.7678 25.2155 17.7834 25.3686 17.8301C25.5216 17.8768 25.6638 17.9536 25.7867 18.056C25.9097 18.1584 26.0108 18.2844 26.0844 18.4266C26.1579 18.5687 26.2022 18.7241 26.2148 18.8836C26.2274 19.0431 26.2079 19.2035 26.1576 19.3554C26.1072 19.5073 26.027 19.6476 25.9217 19.768L21.9221 24.568C21.8212 24.6892 21.6974 24.7893 21.5578 24.8625C21.4182 24.9358 21.2655 24.9809 21.1085 24.9952C20.9515 25.0094 20.7932 24.9926 20.6427 24.9457C20.4921 24.8987 20.3523 24.8226 20.2313 24.7216Z" fill="#37D2F4"/>
<path fill-rule="evenodd" clip-rule="evenodd" d="M23.8 19C23.8 19.3183 23.6736 19.6235 23.4486 19.8485C23.2235 20.0736 22.9183 20.2 22.6 20.2L13 20.2C12.6818 20.2 12.3766 20.0736 12.1515 19.8485C11.9265 19.6235 11.8 19.3183 11.8 19C11.8 18.6817 11.9265 18.3765 12.1515 18.1515C12.3766 17.9264 12.6818 17.8 13 17.8L22.6 17.8C22.9183 17.8 23.2235 17.9264 23.4486 18.1515C23.6736 18.3765 23.8 18.6817 23.8 19Z" fill="#37D2F4"/>
<circle opacity="0.1" cx="18.5" cy="18.5" r="18.5" fill="#37D2F4"/>
</svg>
