<svg width="32" height="32" viewBox="0 0 32 32" fill="none" xmlns="http://www.w3.org/2000/svg">
<circle opacity="0.15" cx="16" cy="16" r="16" fill="#37D2F4"/>
<path d="M24.3334 20.1687C24.333 21.3083 23.9435 22.4136 23.2293 23.3017C22.515 24.1897 21.519 24.8072 20.4059 25.052L19.8742 23.457C20.3611 23.3768 20.8241 23.1896 21.2299 22.9089C21.6357 22.6282 21.9742 22.261 22.2209 21.8337H20.1667C19.7247 21.8337 19.3008 21.6581 18.9882 21.3455C18.6757 21.0329 18.5001 20.609 18.5001 20.167V16.8337C18.5001 16.3916 18.6757 15.9677 18.9882 15.6551C19.3008 15.3426 19.7247 15.167 20.1667 15.167H22.6151C22.4117 13.5561 21.6275 12.0747 20.4096 11.0009C19.1917 9.92706 17.6238 9.33456 16.0001 9.33456C14.3764 9.33456 12.8085 9.92706 11.5906 11.0009C10.3726 12.0747 9.58844 13.5561 9.38508 15.167H11.8334C12.2754 15.167 12.6994 15.3426 13.0119 15.6551C13.3245 15.9677 13.5001 16.3916 13.5001 16.8337V20.167C13.5001 20.609 13.3245 21.0329 13.0119 21.3455C12.6994 21.6581 12.2754 21.8337 11.8334 21.8337H9.33341C8.89139 21.8337 8.46746 21.6581 8.1549 21.3455C7.84234 21.0329 7.66675 20.609 7.66675 20.167V16.0003C7.66675 11.3978 11.3976 7.66699 16.0001 7.66699C20.6026 7.66699 24.3334 11.3978 24.3334 16.0003V20.1687Z" fill="#37D2F4"/>
</svg>
