<svg width="33" height="32" viewBox="0 0 33 32" fill="none" xmlns="http://www.w3.org/2000/svg">
<circle cx="16.5" cy="16" r="16" fill="white"/>
<circle cx="16.5" cy="16" r="15.75" stroke="#D6D6D6" stroke-opacity="0.5" stroke-width="0.5"/>
<g clip-path="url(#clip0_1209_8805)">
<path d="M23.1667 9.50033H21V8.50033C21.0001 8.36773 20.9475 8.24051 20.8538 8.14668C20.7601 8.05285 20.6329 8.00009 20.5003 8C20.3677 7.99991 20.2405 8.05251 20.1467 8.14621C20.0529 8.23992 20.0001 8.36706 20 8.49967V9.50033H17V8.50033C17 8.43467 16.9872 8.36965 16.9621 8.30897C16.937 8.24829 16.9002 8.19314 16.8538 8.14668C16.8074 8.10022 16.7523 8.06336 16.6917 8.03819C16.631 8.01302 16.566 8.00004 16.5003 8C16.3677 7.99991 16.2405 8.05251 16.1467 8.14621C16.0529 8.23992 16.0001 8.36706 16 8.49967V9.50033H13V8.50033C13 8.43467 12.9872 8.36965 12.9621 8.30897C12.937 8.24829 12.9002 8.19314 12.8538 8.14668C12.8074 8.10022 12.7523 8.06336 12.6916 8.03819C12.631 8.01302 12.566 8.00004 12.5003 8C12.3677 7.99991 12.2405 8.05251 12.1467 8.14621C12.0529 8.23992 12.0001 8.36706 12 8.49967V9.50033H9.83333C9.47983 9.50033 9.14079 9.64072 8.89076 9.89062C8.64073 10.1405 8.50018 10.4795 8.5 10.833V22.6663C8.5 23.02 8.64048 23.3591 8.89052 23.6091C9.14057 23.8592 9.47971 23.9997 9.83333 23.9997H23.1667C23.5203 23.9997 23.8594 23.8592 24.1095 23.6091C24.3595 23.3591 24.5 23.02 24.5 22.6663V10.833C24.4998 10.4795 24.3593 10.1405 24.1092 9.89062C23.8592 9.64072 23.5202 9.50033 23.1667 9.50033ZM23.5 22.667C23.5 22.7553 23.465 22.84 23.4026 22.9025C23.3402 22.965 23.2556 23.0002 23.1673 23.0003H9.83333C9.74493 23.0003 9.66014 22.9652 9.59763 22.9027C9.53512 22.8402 9.5 22.7554 9.5 22.667V10.8337C9.50018 10.7454 9.53537 10.6608 9.59787 10.5984C9.66036 10.536 9.74504 10.501 9.83333 10.501H12V11.501C11.9999 11.6336 12.0525 11.7608 12.1462 11.8547C12.2399 11.9485 12.3671 12.0012 12.4997 12.0013C12.6323 12.0014 12.7595 11.9488 12.8533 11.8551C12.9471 11.7614 12.9999 11.6343 13 11.5017V10.501H16V11.501C15.9999 11.6336 16.0525 11.7608 16.1462 11.8547C16.2399 11.9485 16.3671 12.0012 16.4997 12.0013C16.6323 12.0014 16.7595 11.9488 16.8533 11.8551C16.9471 11.7614 16.9999 11.6343 17 11.5017V10.501H20V11.501C19.9999 11.6336 20.0525 11.7608 20.1462 11.8547C20.2399 11.9485 20.3671 12.0012 20.4997 12.0013C20.6323 12.0014 20.7595 11.9488 20.8533 11.8551C20.9471 11.7614 20.9999 11.6343 21 11.5017V10.501H23.1667C23.2548 10.5012 23.3394 10.5363 23.4017 10.5986C23.4641 10.661 23.4992 10.7455 23.4993 10.8337L23.5 22.667Z" fill="#37D2F4"/>
<path d="M12 14H14V15.5H12V14ZM12 16.5H14V18H12V16.5ZM12 19H14V20.5H12V19ZM15.5 19H17.5V20.5H15.5V19ZM15.5 16.5H17.5V18H15.5V16.5ZM15.5 14H17.5V15.5H15.5V14ZM19 19H21V20.5H19V19ZM19 16.5H21V18H19V16.5ZM19 14H21V15.5H19V14Z" fill="#37D2F4"/>
</g>
<defs>
<clipPath id="clip0_1209_8805">
<rect width="16" height="16" fill="white" transform="translate(8.5 8)"/>
</clipPath>
</defs>
</svg>
