<svg width="32" height="32" viewBox="0 0 32 32" fill="none" xmlns="http://www.w3.org/2000/svg">
<circle opacity="0.15" cx="16" cy="16" r="16" fill="#37D2F4"/>
<path d="M24.125 22.25C24.125 22.4158 24.0592 22.5747 23.9419 22.6919C23.8247 22.8092 23.6658 22.875 23.5 22.875H8.5C8.33424 22.875 8.17527 22.8092 8.05806 22.6919C7.94085 22.5747 7.875 22.4158 7.875 22.25C7.875 22.0842 7.94085 21.9253 8.05806 21.8081C8.17527 21.6908 8.33424 21.625 8.5 21.625H23.5C23.6658 21.625 23.8247 21.6908 23.9419 21.8081C24.0592 21.9253 24.125 22.0842 24.125 22.25ZM24.125 10.375V19.125C24.125 19.4565 23.9933 19.7745 23.7589 20.0089C23.5245 20.2433 23.2065 20.375 22.875 20.375H9.125C8.79348 20.375 8.47554 20.2433 8.24112 20.0089C8.0067 19.7745 7.875 19.4565 7.875 19.125V10.375C7.875 10.0435 8.0067 9.72554 8.24112 9.49112C8.47554 9.2567 8.79348 9.125 9.125 9.125H22.875C23.2065 9.125 23.5245 9.2567 23.7589 9.49112C23.9933 9.72554 24.125 10.0435 24.125 10.375ZM18.8125 14.75C18.8125 14.6448 18.7859 14.5413 18.7352 14.4491C18.6846 14.357 18.6114 14.2791 18.5227 14.2227L15.0852 12.0352C14.9907 11.9751 14.8818 11.9416 14.7699 11.938C14.658 11.9344 14.5472 11.961 14.4491 12.0149C14.351 12.0688 14.2692 12.148 14.2121 12.2443C14.1551 12.3407 14.125 12.4506 14.125 12.5625V16.9375C14.125 17.0494 14.1551 17.1593 14.2121 17.2556C14.2692 17.352 14.351 17.4312 14.4491 17.4851C14.5472 17.539 14.658 17.5656 14.7699 17.562C14.8818 17.5584 14.9907 17.5249 15.0852 17.4648L18.5227 15.2773C18.6114 15.2209 18.6846 15.143 18.7352 15.0509C18.7859 14.9587 18.8125 14.8552 18.8125 14.75Z" fill="#37D2F4"/>
</svg>
