<svg width="32" height="32" viewBox="0 0 32 32" fill="none" xmlns="http://www.w3.org/2000/svg">
<circle opacity="0.15" cx="16" cy="16" r="16" fill="#37D2F4"/>
<path d="M26.875 15.5832H20.625C20.049 15.5832 19.5833 15.1175 19.5833 14.5415C19.5833 13.9655 20.049 13.4998 20.625 13.4998H26.875C27.451 13.4998 27.9167 13.9655 27.9167 14.5415C27.9167 15.1175 27.451 15.5832 26.875 15.5832ZM19.5833 10.3748C19.5833 11.8134 19 13.1155 18.0583 14.0571C17.1156 14.9998 15.8135 15.5832 14.375 15.5832C12.9365 15.5832 11.6344 14.9998 10.6917 14.0571C9.75 13.1155 9.16667 11.8134 9.16667 10.3748C9.16667 8.9363 9.75 7.63421 10.6917 6.69255C11.6344 5.74984 12.9365 5.1665 14.375 5.1665C15.8135 5.1665 17.1156 5.74984 18.0583 6.69255C19 7.63421 19.5833 8.9363 19.5833 10.3748ZM14.375 16.6248C10.4687 16.6248 8.125 18.7082 8.125 20.7915C8.125 21.8332 10.4687 22.8748 14.375 22.8748C18.0396 22.8748 20.625 21.8332 20.625 20.7915C20.625 18.7082 18.1729 16.6248 14.375 16.6248Z" fill="#37D2F4"/>
</svg>
