<svg width="32" height="32" viewBox="0 0 32 32" fill="none" xmlns="http://www.w3.org/2000/svg">
<path d="M26.1334 28.0003H5.86669C4.13335 28.0003 2.66669 26.5337 2.66669 24.8003V18.667H5.33335V24.267C5.33335 25.067 5.86669 25.3337 6.66669 25.3337H25.3334C26.1334 25.3337 26.6667 24.8003 26.6667 24.0003V18.667H29.3334V24.8003C29.3334 26.5337 27.8667 28.0003 26.1334 28.0003Z" fill="#B61EEF"/>
<path d="M20.4 16.1333L17.8666 18.6667V13.3333C17.8666 10.6667 17.8666 6.8 21.0666 4C16.5333 4.8 14.2666 8.26667 14.1333 13.3333V18.6667L11.6 16.1333L9.33331 17.3333L16 24L22.6666 17.3333L20.4 16.1333Z" fill="#37D2F4"/>
</svg>
