<svg width="90" height="90" viewBox="0 0 90 90" fill="none" xmlns="http://www.w3.org/2000/svg">
<path d="M49.4166 49.4168H40.5833V22.9168H49.4166M49.4166 67.0835H40.5833V58.2502H49.4166M44.9999 0.833496C39.1999 0.833496 33.4566 1.9759 28.0981 4.19548C22.7395 6.41507 17.8706 9.66836 13.7694 13.7696C5.48651 22.0525 0.833252 33.2864 0.833252 45.0002C0.833252 56.7139 5.48651 67.9479 13.7694 76.2307C17.8706 80.332 22.7395 83.5853 28.0981 85.8049C33.4566 88.0244 39.1999 89.1668 44.9999 89.1668C56.7136 89.1668 67.9476 84.5136 76.2305 76.2307C84.5133 67.9479 89.1666 56.7139 89.1666 45.0002C89.1666 39.2001 88.0242 33.4569 85.8046 28.0983C83.585 22.7398 80.3317 17.8709 76.2305 13.7696C72.1292 9.66836 67.2603 6.41507 61.9018 4.19548C56.5432 1.9759 50.8 0.833496 44.9999 0.833496Z" fill="#37D2F4"/>
</svg>
