<svg width="24" height="24" viewBox="0 0 24 24" fill="none" xmlns="http://www.w3.org/2000/svg">
<path d="M21.743 12.3309L12.743 2.3309C12.364 1.9089 11.636 1.9089 11.257 2.3309L2.25701 12.3309C2.12747 12.4745 2.04244 12.6526 2.01226 12.8437C1.98208 13.0347 2.00805 13.2304 2.08701 13.4069C2.24701 13.7679 2.60501 13.9999 3.00001 13.9999H5.00001V20.9999C5.00001 21.2651 5.10537 21.5195 5.29291 21.707C5.48044 21.8945 5.7348 21.9999 6.00001 21.9999H9.00001C9.26523 21.9999 9.51958 21.8945 9.70712 21.707C9.89466 21.5195 10 21.2651 10 20.9999V16.9999H14V20.9999C14 21.2651 14.1054 21.5195 14.2929 21.707C14.4804 21.8945 14.7348 21.9999 15 21.9999H18C18.2652 21.9999 18.5196 21.8945 18.7071 21.707C18.8947 21.5195 19 21.2651 19 20.9999V13.9999H21C21.1937 14.0007 21.3834 13.9452 21.546 13.8401C21.7087 13.7349 21.8372 13.5847 21.916 13.4078C21.9948 13.2309 22.0203 13.0348 21.9896 12.8436C21.9589 12.6524 21.8732 12.4743 21.743 12.3309Z" fill="white"/>
</svg>
