<svg width="72" height="70" viewBox="0 0 72 70" fill="none" xmlns="http://www.w3.org/2000/svg">
<path d="M7.49996 30.708C3.366 30.708 0 34.074 0 38.208V62.2081C0 66.342 3.366 69.708 7.49996 69.708H16.5C18.189 69.708 19.7429 69.1381 21 68.19V30.708H7.49996Z" fill="#37D2F4"/>
<path d="M72.0005 41.958C72.0005 40.1551 71.2866 38.475 70.0475 37.236C71.4486 35.703 72.1625 33.6479 71.9675 31.509C71.6165 27.6959 68.1814 24.7079 64.1435 24.7079H45.6125C46.5305 21.9209 48.0004 16.812 48.0004 12.708C48.0004 6.20097 42.4715 0.708008 39.0004 0.708008C35.8835 0.708008 33.6574 2.46301 33.5615 2.53501C33.2075 2.82006 33.0005 3.25206 33.0005 3.70797V13.8809L24.3605 32.598L24.0005 32.781V64.9351C26.4424 66.0871 29.5324 66.7081 31.5005 66.7081H59.0375C62.3045 66.7081 65.1636 64.506 65.8355 61.4671C66.1805 59.904 65.9795 58.329 65.2926 56.961C67.5095 55.845 69.0006 53.562 69.0006 50.958C69.0006 49.896 68.7576 48.879 68.2956 47.9581C70.5126 46.8421 72.0005 44.559 72.0005 41.958Z" fill="#37D2F4"/>
</svg>
