<svg width="25" height="24" viewBox="0 0 25 24" fill="none" xmlns="http://www.w3.org/2000/svg">
<g clip-path="url(#clip0_1215_8233)">
<path fill-rule="evenodd" clip-rule="evenodd" d="M13.3 1.6288V0H11.7V1.6288C9.22644 1.81943 6.90251 2.88801 5.14767 4.64168C3.39282 6.39535 2.32268 8.71857 2.1304 11.192H0.5V12.792H2.1304C2.32195 15.2671 3.39147 17.5923 5.14612 19.3484C6.90076 21.1045 9.22508 22.176 11.7 22.3696V24H13.3V22.3696C15.7749 22.176 18.0992 21.1045 19.8539 19.3484C21.6085 17.5923 22.678 15.2671 22.8696 12.792H24.5V11.192H22.8696C22.6773 8.71857 21.6072 6.39535 19.8523 4.64168C18.0975 2.88801 15.7736 1.81943 13.3 1.6288ZM13.3 4.8V11.192H19.7V12.792H13.3V19.2H11.7V12.792H5.3V11.192H11.7V4.8H13.3Z" fill="#37D2F4"/>
</g>
<defs>
<clipPath id="clip0_1215_8233">
<rect width="24" height="24" fill="white" transform="translate(0.5)"/>
</clipPath>
</defs>
</svg>
