<svg width="32" height="32" viewBox="0 0 32 32" fill="none" xmlns="http://www.w3.org/2000/svg">
<circle opacity="0.15" cx="16" cy="16" r="16" fill="#37D2F4"/>
<path d="M15.9999 20.1663C16.4419 20.1663 16.8659 19.9907 17.1784 19.6782C17.491 19.3656 17.6666 18.9417 17.6666 18.4997C17.6666 18.0576 17.491 17.6337 17.1784 17.3212C16.8659 17.0086 16.4419 16.833 15.9999 16.833C15.5579 16.833 15.134 17.0086 14.8214 17.3212C14.5088 17.6337 14.3333 18.0576 14.3333 18.4997C14.3333 18.9417 14.5088 19.3656 14.8214 19.6782C15.134 19.9907 15.5579 20.1663 15.9999 20.1663ZM20.9999 12.6663C21.4419 12.6663 21.8659 12.8419 22.1784 13.1545C22.491 13.4671 22.6666 13.891 22.6666 14.333V22.6663C22.6666 23.1084 22.491 23.5323 22.1784 23.8449C21.8659 24.1574 21.4419 24.333 20.9999 24.333H10.9999C10.5579 24.333 10.134 24.1574 9.82141 23.8449C9.50885 23.5323 9.33325 23.1084 9.33325 22.6663V14.333C9.33325 13.891 9.50885 13.4671 9.82141 13.1545C10.134 12.8419 10.5579 12.6663 10.9999 12.6663H11.8333V10.9997C11.8333 9.89461 12.2722 8.8348 13.0536 8.0534C13.835 7.27199 14.8948 6.83301 15.9999 6.83301C16.5471 6.83301 17.0889 6.94078 17.5944 7.15018C18.1 7.35957 18.5593 7.66649 18.9462 8.0534C19.3331 8.44031 19.64 8.89964 19.8494 9.40516C20.0588 9.91068 20.1666 10.4525 20.1666 10.9997V12.6663H20.9999ZM15.9999 8.49967C15.3369 8.49967 14.701 8.76307 14.2322 9.23191C13.7633 9.70075 13.4999 10.3366 13.4999 10.9997V12.6663H18.4999V10.9997C18.4999 10.3366 18.2365 9.70075 17.7677 9.23191C17.2988 8.76307 16.663 8.49967 15.9999 8.49967Z" fill="#37D2F4"/>
</svg>
