<svg width="32" height="32" viewBox="0 0 32 32" fill="none" xmlns="http://www.w3.org/2000/svg">
<circle opacity="0.15" cx="16" cy="16" r="16" fill="#37D2F4"/>
<path fill-rule="evenodd" clip-rule="evenodd" d="M11 7.66699C10.337 7.66699 9.70107 7.93038 9.23223 8.39923C8.76339 8.86807 8.5 9.50395 8.5 10.167V21.8337C8.5 22.4967 8.76339 23.1326 9.23223 23.6014C9.70107 24.0703 10.337 24.3337 11 24.3337H16C16.663 24.3337 17.2989 24.0703 17.7678 23.6014C18.2366 23.1326 18.5 22.4967 18.5 21.8337V10.167C18.5 9.50395 18.2366 8.86807 17.7678 8.39923C17.2989 7.93038 16.663 7.66699 16 7.66699H11ZM19.5775 12.0778C19.7338 11.9216 19.9457 11.8338 20.1667 11.8338C20.3876 11.8338 20.5996 11.9216 20.7558 12.0778L24.0892 15.4112C24.2454 15.5674 24.3332 15.7794 24.3332 16.0003C24.3332 16.2213 24.2454 16.4332 24.0892 16.5895L20.7558 19.9228C20.5987 20.0746 20.3882 20.1586 20.1697 20.1567C19.9512 20.1548 19.7422 20.0672 19.5877 19.9127C19.4331 19.7582 19.3455 19.5492 19.3436 19.3307C19.3417 19.1122 19.4257 18.9017 19.5775 18.7445L21.4883 16.8337H14.3333C14.1123 16.8337 13.9004 16.7459 13.7441 16.5896C13.5878 16.4333 13.5 16.2213 13.5 16.0003C13.5 15.7793 13.5878 15.5674 13.7441 15.4111C13.9004 15.2548 14.1123 15.167 14.3333 15.167H21.4883L19.5775 13.2562C19.4213 13.0999 19.3335 12.888 19.3335 12.667C19.3335 12.446 19.4213 12.2341 19.5775 12.0778Z" fill="#37D2F4"/>
</svg>
