<svg width="43" height="26" viewBox="0 0 43 26" fill="none" xmlns="http://www.w3.org/2000/svg">
<path d="M16.2866 2.74561H27.6577V22.9282H16.2866V2.74561Z" fill="#FF5F00"/>
<path d="M17.0087 12.837C17.0087 8.73637 18.958 5.09914 21.9541 2.74563C19.7522 1.03406 16.9727 0 13.9404 0C6.75643 0 0.94458 5.74092 0.94458 12.837C0.94458 19.933 6.75643 25.6741 13.9402 25.6741C16.9725 25.6741 19.7521 24.64 21.9541 22.9283C18.958 20.6105 17.0087 16.9377 17.0087 12.837Z" fill="#EB001B"/>
<path d="M42.9997 12.837C42.9997 19.933 37.1879 25.6741 30.0041 25.6741C26.9718 25.6741 24.1923 24.64 21.9902 22.9283C25.0225 20.5749 26.9358 16.9377 26.9358 12.837C26.9358 8.73637 24.9864 5.09914 21.9902 2.74563C24.1921 1.03406 26.9718 0 30.0041 0C37.1879 0 42.9997 5.77666 42.9997 12.837Z" fill="#F79E1B"/>
</svg>
