<svg width="28" height="28" viewBox="0 0 28 28" fill="none" xmlns="http://www.w3.org/2000/svg">
<circle cx="14" cy="14" r="14" fill="#37D2F4"/>
<path d="M19.3333 7.33325H8.66659C7.93325 7.33325 7.33992 7.93325 7.33992 8.66659L7.33325 20.6666L9.99992 17.9999H19.3333C20.0666 17.9999 20.6666 17.3999 20.6666 16.6666V8.66659C20.6666 7.93325 20.0666 7.33325 19.3333 7.33325ZM10.6666 11.9999H17.3333C17.6999 11.9999 17.9999 12.2999 17.9999 12.6666C17.9999 13.0333 17.6999 13.3333 17.3333 13.3333H10.6666C10.2999 13.3333 9.99992 13.0333 9.99992 12.6666C9.99992 12.2999 10.2999 11.9999 10.6666 11.9999ZM14.6666 15.3333H10.6666C10.2999 15.3333 9.99992 15.0333 9.99992 14.6666C9.99992 14.2999 10.2999 13.9999 10.6666 13.9999H14.6666C15.0333 13.9999 15.3333 14.2999 15.3333 14.6666C15.3333 15.0333 15.0333 15.3333 14.6666 15.3333ZM17.3333 11.3333H10.6666C10.2999 11.3333 9.99992 11.0333 9.99992 10.6666C9.99992 10.2999 10.2999 9.99992 10.6666 9.99992H17.3333C17.6999 9.99992 17.9999 10.2999 17.9999 10.6666C17.9999 11.0333 17.6999 11.3333 17.3333 11.3333Z" fill="white"/>
</svg>
