<svg width="40" height="40" viewBox="0 0 40 40" fill="none" xmlns="http://www.w3.org/2000/svg">
<circle opacity="0.15" cx="20" cy="20" r="20" fill="#37D2F4"/>
<path d="M20.5188 12.0055C15.7193 12.0055 12.0006 15.5125 12.0006 20.2489C11.9866 21.397 12.2181 22.5348 12.6796 23.586C13.1411 24.6373 13.822 25.5779 14.6766 26.3446C14.9624 26.6019 14.9039 26.7507 14.9521 28.3404C14.9559 28.4517 14.9868 28.5605 15.0423 28.6571C15.0977 28.7538 15.176 28.8354 15.2703 28.8948C15.3645 28.9543 15.4719 28.9897 15.583 28.9981C15.6942 29.0064 15.8057 28.9875 15.9078 28.9428C17.7208 28.144 17.7446 28.0815 18.0517 28.1646C23.3056 29.6102 28.9997 26.2488 28.9997 20.2482C29.009 19.1429 28.7942 18.0473 28.3682 17.0274C27.9423 16.0075 27.314 15.0845 26.5214 14.3141C25.7287 13.5437 24.7882 12.942 23.7565 12.5452C22.7248 12.1484 21.6234 11.9649 20.5188 12.0055ZM25.6333 18.3498L23.1314 22.308C23.037 22.457 22.9127 22.5848 22.7665 22.6835C22.6203 22.7822 22.4553 22.8496 22.2818 22.8816C22.1083 22.9135 21.9301 22.9093 21.7584 22.8692C21.5866 22.8291 21.4249 22.7539 21.2836 22.6484L19.2932 21.1609C19.2042 21.0942 19.096 21.0581 18.9848 21.0581C18.8736 21.0581 18.7654 21.0942 18.6764 21.1609L15.9885 23.197C15.9132 23.2548 15.82 23.2842 15.7252 23.2801C15.6305 23.276 15.5401 23.2386 15.4701 23.1746C15.4001 23.1106 15.3549 23.0239 15.3424 22.9299C15.33 22.8358 15.351 22.7404 15.4018 22.6603L17.9037 18.7021C17.9981 18.553 18.1223 18.4251 18.2685 18.3264C18.4147 18.2276 18.5797 18.1601 18.7533 18.1281C18.9268 18.0962 19.105 18.1004 19.2768 18.1406C19.4486 18.1808 19.6102 18.2561 19.7516 18.3617L21.7412 19.8507C21.8301 19.9175 21.9383 19.9536 22.0496 19.9536C22.1608 19.9536 22.269 19.9175 22.3579 19.8507L25.0482 17.8138C25.1233 17.7562 25.2163 17.7269 25.3108 17.7309C25.4054 17.735 25.4955 17.7722 25.5654 17.836C25.6353 17.8998 25.6804 17.9862 25.693 18.08C25.7056 18.1738 25.6847 18.269 25.6341 18.349L25.6333 18.3498Z" fill="#37D2F4"/>
</svg>
