<svg width="40" height="40" viewBox="0 0 40 40" fill="none" xmlns="http://www.w3.org/2000/svg">
<circle opacity="0.15" cx="20" cy="20" r="20" fill="#37D2F4"/>
<path d="M29.6002 11H10.3998C9.76519 11.0023 9.15741 11.2404 8.70978 11.6622C8.26214 12.084 8.01117 12.655 8.0119 13.25L8 26.75C8.00193 27.3462 8.25539 27.9174 8.70502 28.339C9.15466 28.7606 9.76394 28.9982 10.3998 29H29.6002C30.2361 28.9982 30.8453 28.7606 31.295 28.339C31.7446 27.9174 31.9981 27.3462 32 26.75V13.25C31.9981 12.6538 31.7446 12.0826 31.295 11.661C30.8453 11.2394 30.2361 11.0018 29.6002 11ZM29.6002 15.5L19.9991 21.1259L10.3998 15.5V13.25L19.9991 18.875L29.6002 13.25V15.5Z" fill="#37D2F4"/>
</svg>
