<svg width="15" height="22" viewBox="0 0 15 22" fill="none" xmlns="http://www.w3.org/2000/svg">
<path fill-rule="evenodd" clip-rule="evenodd" d="M8.72443 17.512V19.8H10.9057C11.4166 19.8 11.8331 20.2422 11.8331 20.7845V21.0166C11.8331 21.5578 11.4166 22 10.9057 22H4.47069C3.95983 22 3.54327 21.5578 3.54327 21.0166V20.7845C3.54327 20.2422 3.95983 19.8 4.47069 19.8H6.65196V17.512C3.14224 16.9752 0.43457 13.772 0.43457 9.9C0.43457 9.2928 0.897766 8.8 1.4708 8.8C2.04384 8.8 2.50703 9.2928 2.50703 9.9C2.50703 12.9327 4.8313 15.4 7.68819 15.4C10.5451 15.4 12.8694 12.9327 12.8694 9.9C12.8694 9.2928 13.3325 8.8 13.9056 8.8C14.4786 8.8 14.9418 9.2928 14.9418 9.9C14.9418 13.772 12.2341 16.9752 8.72443 17.512ZM5.6157 4.39995C5.6157 3.18665 6.5452 2.19995 7.68816 2.19995C8.83113 2.19995 9.76062 3.18665 9.76062 4.39995V9.89995C9.76062 11.1133 8.83113 12.1 7.68816 12.1C6.5452 12.1 5.6157 11.1133 5.6157 9.89995V4.39995ZM7.68821 14.3C9.97414 14.3 11.8331 12.3266 11.8331 9.9V4.4C11.8331 1.9745 9.97414 0 7.68821 0C5.40228 0 3.54328 1.9745 3.54328 4.4V9.9C3.54328 12.3266 5.40228 14.3 7.68821 14.3Z" fill="#37D2F4"/>
</svg>
