<svg width="51" height="58" viewBox="0 0 51 58" fill="none" xmlns="http://www.w3.org/2000/svg">
<circle cx="26" cy="29" r="20" fill="#37D2F4" fill-opacity="0.17"/>
<path fill-rule="evenodd" clip-rule="evenodd" d="M18.483 20.7933C19.7 19.5833 21.704 19.7983 22.723 21.1603L23.985 22.8443C24.815 23.9523 24.741 25.5003 23.756 26.4793L23.518 26.7173C23.4912 26.8172 23.4884 26.9221 23.51 27.0233C23.573 27.4313 23.914 28.2953 25.342 29.7153C26.77 31.1353 27.64 31.4753 28.054 31.5393C28.1582 31.5615 28.2662 31.5584 28.369 31.5303L28.777 31.1243C29.653 30.2543 30.997 30.0913 32.081 30.6803L33.991 31.7203C35.628 32.6083 36.041 34.8323 34.701 36.1653L33.28 37.5773C32.832 38.0223 32.23 38.3933 31.496 38.4623C29.686 38.6313 25.469 38.4153 21.036 34.0083C16.899 29.8943 16.105 26.3063 16.004 24.5383C15.954 23.6443 16.376 22.8883 16.914 22.3543L18.483 20.7933ZM21.523 22.0593C21.016 21.3823 20.072 21.3283 19.54 21.8573L17.97 23.4173C17.64 23.7453 17.482 24.1073 17.502 24.4533C17.582 25.8583 18.222 29.0953 22.094 32.9453C26.156 36.9833 29.907 37.1043 31.357 36.9683C31.653 36.9413 31.947 36.7873 32.222 36.5143L33.642 35.1013C34.22 34.5273 34.093 33.4813 33.275 33.0373L31.365 31.9983C30.837 31.7123 30.219 31.8063 29.835 32.1883L29.38 32.6413L28.85 32.1093C29.38 32.6413 29.378 32.6423 29.378 32.6423L29.377 32.6443L29.374 32.6473L29.367 32.6533L29.352 32.6673C29.3095 32.7061 29.264 32.7415 29.216 32.7733C29.136 32.8263 29.03 32.8853 28.897 32.9343C28.627 33.0353 28.269 33.0893 27.827 33.0213C26.96 32.8883 25.811 32.2973 24.284 30.7793C22.758 29.2613 22.162 28.1193 22.028 27.2533C21.959 26.8113 22.014 26.4533 22.116 26.1833C22.1726 26.0316 22.2529 25.8898 22.354 25.7633L22.386 25.7283L22.4 25.7133L22.406 25.7073L22.409 25.7043L22.411 25.7023L22.699 25.4163C23.127 24.9893 23.187 24.2823 22.784 23.7433L21.523 22.0593Z" fill="#37D2F4"/>
</svg>
