<svg width="14" height="10" viewBox="0 0 14 10" fill="none" xmlns="http://www.w3.org/2000/svg">
<path d="M1 3.66667V2.33333C1 1.97971 1.14048 1.64057 1.39052 1.39052C1.64057 1.14048 1.97971 1 2.33333 1H3.66667M1 3.66667C1.88867 3.66667 3.66667 3.13333 3.66667 1M1 3.66667V6.33333M3.66667 1H10.3333M1 6.33333V7.66667C1 8.02029 1.14048 8.35943 1.39052 8.60948C1.64057 8.85952 1.97971 9 2.33333 9H3.66667M1 6.33333C1.88867 6.33333 3.66667 6.86667 3.66667 9M13 3.66667V2.33333C13 1.97971 12.8595 1.64057 12.6095 1.39052C12.3594 1.14048 12.0203 1 11.6667 1H10.3333M13 3.66667C12.1113 3.66667 10.3333 3.13333 10.3333 1M13 3.66667V6.33333M13 6.33333V7.66667C13 8.02029 12.8595 8.35943 12.6095 8.60948C12.3594 8.85952 12.0203 9 11.6667 9H10.3333M13 6.33333C12.1113 6.33333 10.3333 6.86667 10.3333 9M10.3333 9H3.66667" stroke="#37D2F4" stroke-linecap="round" stroke-linejoin="round"/>
<path d="M6.99996 6.33341C7.73634 6.33341 8.33329 5.73646 8.33329 5.00008C8.33329 4.2637 7.73634 3.66675 6.99996 3.66675C6.26358 3.66675 5.66663 4.2637 5.66663 5.00008C5.66663 5.73646 6.26358 6.33341 6.99996 6.33341Z" stroke="#37D2F4" stroke-width="2" stroke-linecap="round" stroke-linejoin="round"/>
</svg>
