<svg width="80" height="80" viewBox="0 0 80 80" fill="none" xmlns="http://www.w3.org/2000/svg">
<circle opacity="0.15" cx="40" cy="40" r="40" fill="#37D2F4"/>
<path d="M59.7012 48.4762C58.8171 47.6006 57.6467 47.1122 56.4005 47.1122C55.1544 47.1122 53.9924 47.5921 53.1168 48.4678C53.0578 48.5267 53.0073 48.5857 52.9484 48.6531L45.4901 41.188L41.1934 45.4881L48.6457 52.9473C48.5868 52.9978 48.5278 53.0567 48.4689 53.1072C46.667 54.9259 46.667 57.8814 48.4773 59.6917C49.353 60.5674 50.5234 61.0473 51.7695 61.0473C53.0157 61.0473 54.1861 60.5674 55.0534 59.6917C55.9375 58.816 56.4174 57.6204 56.4258 56.4079C57.6552 56.4079 58.8171 55.9279 59.7012 55.0438C61.5031 53.2335 61.5031 50.2865 59.7012 48.4762Z" fill="#37D2F4"/>
<path d="M23.6044 32.8824C24.8421 32.8824 26.0125 32.4025 26.8882 31.5268C26.9471 31.4678 27.0061 31.4089 27.0566 31.3415L34.515 38.8068L38.8117 34.5066L31.3592 27.0473C31.4097 26.9968 31.4687 26.9379 31.5276 26.8873C32.4033 26.0033 32.8832 24.8329 32.8832 23.5867C32.8832 22.3489 32.4033 21.1786 31.5276 20.3113C30.6519 19.4356 29.4815 18.9473 28.2354 18.9473C26.9892 18.9473 25.8188 19.4272 24.9431 20.3029C24.0675 21.187 23.596 22.3742 23.596 23.5867C22.3582 23.5867 21.1878 24.0667 20.3037 24.9423C18.4934 26.7526 18.5018 29.7081 20.3121 31.5268C21.1878 32.4025 22.3582 32.8824 23.6044 32.8824Z" fill="#37D2F4"/>
<path d="M31.3594 52.9474L52.9484 31.3415C53.0073 31.4005 53.0579 31.4678 53.1168 31.5184C53.9925 32.4025 55.1544 32.8824 56.4006 32.8824C57.6468 32.8824 58.8171 32.4025 59.6928 31.5184C61.4947 29.7081 61.5031 26.7527 59.7013 24.9423C58.8171 24.0667 57.6552 23.5867 56.4259 23.5867C56.4259 23.5867 56.4259 23.5867 56.4174 23.5867C56.4174 22.3742 55.9375 21.1786 55.0534 20.3029C54.1861 19.4272 53.0158 18.9473 51.7696 18.9473C50.5234 18.9473 49.353 19.4356 48.4689 20.3113C46.667 22.1216 46.667 25.0686 48.4689 26.8873C48.5279 26.9379 48.5868 26.9968 48.6458 27.0473L27.0568 48.6532C27.0063 48.5858 26.9473 48.5268 26.8884 48.4679C26.0127 47.5922 24.8508 47.1123 23.6046 47.1123C22.3584 47.1123 21.188 47.6007 20.3039 48.4763C18.4936 50.2866 18.4936 53.2336 20.3123 55.0524C21.188 55.928 22.3584 56.408 23.5962 56.408C23.5962 57.6205 24.0677 58.8077 24.9434 59.6918C25.819 60.5675 26.9894 61.0474 28.2356 61.0474C29.4818 61.0474 30.6522 60.5675 31.5194 59.6918C32.3951 58.8161 32.8834 57.6457 32.8834 56.3995C32.8834 55.1534 32.4035 53.983 31.5278 53.1073C31.4689 53.0568 31.4099 52.9979 31.3594 52.9474Z" fill="#37D2F4"/>
</svg>
