<svg width="32" height="32" viewBox="0 0 32 32" fill="none" xmlns="http://www.w3.org/2000/svg">
<circle opacity="0.15" cx="16" cy="16" r="16" fill="#37D2F4"/>
<path d="M24.75 12.8751C24.7893 14.273 24.2939 15.6333 23.3648 16.6785C22.4357 17.7237 21.1429 18.3752 19.75 18.5C19.7398 18.072 19.6552 17.6491 19.5 17.25C20.5872 17.1382 21.5955 16.6308 22.333 15.8241C23.0705 15.0175 23.4858 13.9679 23.5 12.8751C23.4959 11.7477 23.0576 10.6652 22.2762 9.85258C21.4948 9.03994 20.4303 8.55958 19.304 8.51131C18.1776 8.46304 17.076 8.85056 16.2279 9.59337C15.3799 10.3362 14.8506 11.3772 14.75 12.5001C14.3475 12.357 13.9265 12.2728 13.5 12.2501C13.6856 10.882 14.3549 9.62571 15.3867 8.70853C16.4185 7.79135 17.7447 7.27396 19.125 7.25005C19.8646 7.24691 20.5974 7.39026 21.2813 7.67183C21.9652 7.9534 22.5865 8.36761 23.1095 8.89057C23.6325 9.41352 24.0467 10.0349 24.3282 10.7187C24.6098 11.4026 24.7532 12.1355 24.75 12.8751ZM12.875 13.5001C11.383 13.5001 9.95211 14.0927 8.8971 15.1478C7.84209 16.2028 7.24939 17.6337 7.24939 19.1257C7.24939 20.6177 7.84209 22.0486 8.8971 23.1036C9.95211 24.1586 11.383 24.7513 12.875 24.7513C14.3669 24.7513 15.7976 24.1587 16.8525 23.1038C17.9074 22.0489 18.5 20.6181 18.5 19.1263C18.5 17.6345 17.9074 16.2037 16.8525 15.1488C15.7976 14.0939 14.3669 13.5001 12.875 13.5001Z" fill="#37D2F4"/>
</svg>
