<svg width="76" height="76" viewBox="0 0 76 76" fill="none" xmlns="http://www.w3.org/2000/svg">
<circle opacity="0.15" cx="38" cy="38" r="38" fill="#37D2F4"/>
<path d="M34.215 59.0465H37.275V56.1467H35.0632C34.9704 57.1616 34.6826 58.1425 34.215 59.0465Z" fill="#37D2F4"/>
<path d="M22.2927 57.9467C22.4834 58.2867 22.6204 58.6557 22.6972 59.0465H23.4157L23.1721 56.8542C22.8154 57.1602 22.5189 57.5284 22.2927 57.9467Z" fill="#37D2F4"/>
<path d="M43.7103 29.3239C45.0434 28.9904 45.9743 27.7986 45.9743 26.4241C45.9743 25.2251 44.9985 24.2493 43.7995 24.2493C43.6378 24.2493 43.4638 24.2747 43.2514 24.3298L42.3148 24.5726L42.3481 23.5331C42.3496 21.5257 40.7235 19.8997 38.7249 19.8997C37.8564 19.8997 37.014 20.2157 36.3536 20.7884L35.7918 21.2756L35.3191 20.7014C34.9001 20.1918 34.2912 19.8997 33.6503 19.8997C32.4513 19.8997 31.4755 20.8754 31.4755 22.0745V22.7994H30.7506C29.5515 22.7994 28.5757 23.7752 28.5757 24.9742C28.5757 26.1733 29.5515 27.149 30.7506 27.149H33.7054C33.6721 26.9308 33.6503 26.7097 33.6503 26.4857C33.6503 24.4254 35.2764 22.7994 37.275 22.7994C37.5802 22.7994 37.8847 22.8378 38.1805 22.9132L37.8202 24.3182C37.6426 24.2725 37.4591 24.2493 37.275 24.2493C36.076 24.2493 35.1002 25.2251 35.1002 26.4241C35.1002 27.5354 35.6598 28.5235 36.5609 29.0651C37.8593 29.8444 38.6727 31.2515 38.7169 32.7601C39.9174 31.0514 41.679 29.832 43.7103 29.3239Z" fill="#37D2F4"/>
<path d="M58.5244 56.4424C58.1518 56.881 57.7197 57.2616 57.2311 57.5711C57.4022 58.0416 57.5058 58.5375 57.5457 59.0464H58.9999C58.9434 58.1489 58.7795 57.2768 58.5244 56.4424Z" fill="#37D2F4"/>
<path d="M56.57 56.2844C57.1188 55.9132 57.5668 55.413 57.8923 54.8324C56.4641 51.8768 53.784 49.6027 50.4298 48.7639L44.9195 47.3873C42.9796 46.9023 41.6247 45.1668 41.6247 43.1674V40.9752C41.6247 39.8138 42.077 38.7221 42.8984 37.8993L45.8003 34.998C47.7823 33.0153 48.874 30.3795 48.874 27.5769C48.874 21.7447 44.138 17 38.316 17H34.3753C29.5783 17 25.676 20.9023 25.676 25.6993C25.676 27.9371 25.012 30.1569 23.7948 32.0309L25.676 33.2857V39.1933C25.676 40.5467 26.7772 41.6479 28.1306 41.6479C28.359 41.6479 28.5859 41.616 28.8048 41.5537L34.3753 39.9617V43.1674C34.3753 45.1675 33.0204 46.9023 31.0811 47.3873L25.5709 48.7639C20.7464 49.9702 17.3095 54.1408 16.9999 59.0464H21.2082C20.9849 58.3751 20.4579 57.83 19.7591 57.5966L19.6452 57.5589L20.1078 56.1844L20.2194 56.2221C20.613 56.3533 20.9712 56.5468 21.2894 56.7868C21.728 56.1409 22.3145 55.6153 22.9908 55.2159L22.7806 53.3267L24.2211 53.1665L24.8749 59.0464H32.5375L32.5658 59.0037C33.14 58.1424 33.4821 57.1645 33.5974 56.1467H31.4755V54.6968H34.0751L33.1378 53.7595L34.1629 52.7344L36.1253 54.6968H37.275V51.7971H32.5629L31.4755 53.2469C30.7941 54.1553 29.7103 54.6968 28.5758 54.6968H27.1259V53.2469H28.5758C29.2565 53.2469 29.9075 52.9222 30.3156 52.377L31.0993 51.3324L28.9766 50.2711L29.6255 48.9741L32.3715 50.3472H37.275V45.8301C36.5088 46.534 35.5975 47.0784 34.6043 47.4097L34.1455 46.0352C35.396 45.6177 36.487 44.784 37.2178 43.6886L37.275 43.6031V33.6946L34.7167 33.9723C34.4942 34.5732 34.3753 35.201 34.3753 35.8484H32.9254C32.9254 35.2663 33.0059 34.6972 33.1487 34.1426L31.2617 34.3478L30.8245 35.4388C30.2047 36.9909 28.9397 38.1834 27.3542 38.7119L26.8961 37.336C28.0748 36.9438 29.0165 36.0557 29.4783 34.9016L29.956 33.7077L29.0549 31.9047C28.8817 31.5575 28.5845 31.3001 28.2176 31.1783L26.8968 30.7376L27.3557 29.3631L28.6758 29.8031C29.4102 30.0467 30.0053 30.5636 30.3526 31.2566L31.1739 32.8994L37.1996 32.2462C37.0227 31.448 36.5283 30.7376 35.815 30.3091C35.1212 29.8923 34.5681 29.295 34.1926 28.6005H30.7506C28.7519 28.6005 27.1259 26.9744 27.1259 24.9758C27.1259 23.204 28.4039 21.7252 30.0865 21.412C30.3997 19.7279 31.8786 18.4499 33.6503 18.4499C34.4934 18.4499 35.3003 18.7478 35.9448 19.2828C36.7683 18.742 37.7339 18.4499 38.7249 18.4499C41.2774 18.4499 43.395 20.3434 43.748 22.8002C45.7858 22.7422 47.4242 24.4081 47.4242 26.4242C47.4242 28.4649 46.0417 30.2359 44.0619 30.7296C42.3112 31.1675 40.796 32.2353 39.7956 33.7367L38.7249 35.3431V39.157C39.3831 38.8554 39.9232 38.356 40.2509 37.6992L41.5478 38.348C40.994 39.4557 40.0414 40.2814 38.8663 40.6736L38.7249 40.72V47.4474H39.9986C42.1756 47.4474 44.2221 48.2956 45.7619 49.8346L44.7368 50.8597C43.8647 49.9876 42.7918 49.3932 41.6247 49.1032V50.6335C41.6247 51.038 41.6892 51.4317 41.8001 51.8094C42.6316 51.3345 43.561 51.0721 44.5244 51.0721V52.522C43.7864 52.522 43.0745 52.7286 42.4446 53.1056C42.7266 53.4854 43.0709 53.8225 43.4769 54.0937L42.6729 55.3C41.1085 54.2582 40.1748 52.5126 40.1748 50.6335V48.906C40.1161 48.9045 40.0581 48.8973 39.9986 48.8973H38.7249V56.1467H41.6247V57.5966H38.7249V59.0464H51.125L51.7781 53.1672L53.2186 53.3274L52.5835 59.0464H56.0966C55.9676 57.8235 55.3086 56.7158 54.2719 56.0249L55.0759 54.8186C55.6711 55.2151 56.1742 55.7153 56.57 56.2844Z" fill="#37D2F4"/>
</svg>
