<svg width="274" height="205" viewBox="0 0 274 205" fill="none" xmlns="http://www.w3.org/2000/svg">
<g clip-path="url(#clip0_153_5867)">
<path d="M274 180.154H0V180.292H274V180.154Z" fill="#EBEBEB"/>
<path d="M246.545 189.006H228.395V189.144H246.545V189.006Z" fill="#EBEBEB"/>
<path d="M165.189 189.078H160.427V189.216H165.189V189.078Z" fill="#EBEBEB"/>
<path d="M227.842 183.901H194.173V184.038H227.842V183.901Z" fill="#EBEBEB"/>
<path d="M123.377 187.147H116.423V187.285H123.377V187.147Z" fill="#EBEBEB"/>
<path d="M111.545 187.147H91.3625V187.285H111.545V187.147Z" fill="#EBEBEB"/>
<path d="M42.6837 184.825H28.7481V184.963H42.6837V184.825Z" fill="#EBEBEB"/>
<path d="M87.0115 184.825H45.9717V184.963H87.0115V184.825Z" fill="#EBEBEB"/>
<path d="M129.876 155.616H24.0627C23.2338 155.615 22.4393 155.283 21.8536 154.694C21.268 154.105 20.9391 153.307 20.9391 152.475V3.14149C20.9391 2.30927 21.268 1.51105 21.8536 0.922064C22.4393 0.333078 23.2338 0.00145748 24.0627 0L129.876 0C130.706 0 131.502 0.330977 132.089 0.920121C132.675 1.50926 133.005 2.30831 133.005 3.14149V152.475C133.005 152.888 132.924 153.296 132.767 153.677C132.61 154.058 132.379 154.405 132.089 154.696C131.798 154.988 131.453 155.219 131.073 155.377C130.694 155.535 130.287 155.616 129.876 155.616ZM24.0627 0.137543C23.2701 0.139001 22.5104 0.45613 21.9505 1.01932C21.3906 1.58251 21.0761 2.34575 21.0761 3.14149V152.475C21.0761 153.271 21.3906 154.034 21.9505 154.597C22.5104 155.16 23.2701 155.477 24.0627 155.479H129.876C130.669 155.477 131.429 155.161 131.99 154.597C132.551 154.034 132.867 153.271 132.868 152.475V3.14149C132.867 2.34524 132.551 1.58202 131.99 1.01898C131.429 0.455951 130.669 0.138998 129.876 0.137543H24.0627Z" fill="#EBEBEB"/>
<path d="M248.414 155.616H142.595C141.766 155.615 140.971 155.284 140.384 154.695C139.798 154.106 139.467 153.308 139.466 152.475V3.14149C139.467 2.30876 139.798 1.51056 140.384 0.921727C140.971 0.332899 141.766 0.00145455 142.595 0L248.414 0C249.242 0.00291163 250.035 0.335174 250.619 0.924002C251.204 1.51283 251.532 2.31022 251.532 3.14149V152.475C251.532 153.306 251.204 154.104 250.619 154.692C250.035 155.281 249.242 155.614 248.414 155.616ZM142.595 0.137543C141.802 0.138998 141.042 0.455951 140.481 1.01898C139.92 1.58202 139.604 2.34524 139.603 3.14149V152.475C139.604 153.271 139.92 154.034 140.481 154.597C141.042 155.161 141.802 155.477 142.595 155.479H248.414C249.207 155.477 249.967 155.161 250.528 154.597C251.089 154.034 251.405 153.271 251.406 152.475V3.14149C251.405 2.34524 251.089 1.58202 250.528 1.01898C249.967 0.455951 249.207 0.138998 248.414 0.137543H142.595Z" fill="#EBEBEB"/>
<path d="M104.547 107.036L237.733 107.036V9.3639L104.547 9.3639V107.036Z" fill="#E6E6E6"/>
<path d="M98.6619 107.036L236.369 107.036V9.3639L98.6619 9.3639V107.036Z" fill="#F0F0F0"/>
<path d="M228.127 98.7671V17.644L106.904 17.644V98.7671L228.127 98.7671Z" fill="#FAFAFA"/>
<path d="M198.655 98.7617L171.058 17.6387H144.705L172.302 98.7617H198.655Z" fill="white"/>
<path d="M166.641 98.7617L139.044 17.6387H128.775L156.372 98.7617H166.641Z" fill="white"/>
<path d="M107.951 98.7617V17.6387H106.904V98.7617H107.951Z" fill="#E6E6E6"/>
<path d="M35.3843 80.4683H82.4137L82.4137 13.5287H35.3843L35.3843 80.4683Z" fill="#E0E0E0"/>
<path d="M32.058 80.4683H80.5341L80.5341 13.5287H32.058L32.058 80.4683Z" fill="#F5F5F5"/>
<path d="M75.7501 75.1919V18.8047L36.8421 18.8047V75.1919H75.7501Z" fill="white"/>
<path d="M53.6656 127.332C57.1564 118.689 65.4586 115.465 68.3301 110.007C72.0839 102.855 72.062 92.1208 68.8781 88.2476C66.0943 84.8861 56.8879 107.636 55.8522 110.183C53.0101 117.043 51.2322 124.3 50.5804 131.7C50.6571 126.358 50.7284 121.451 50.7886 117.665C50.9859 105.314 51.227 101.347 51.3366 100.12C51.7202 99.5262 52.1751 98.8329 52.4326 98.4698C54.663 95.3118 59.606 91.5597 62.0774 86.9767C65.6833 80.2811 65.1024 72.2706 62.5706 69.2886C59.9238 66.1692 55.2494 73.5415 52.7669 80.8423C50.2845 88.1431 51.3421 95.1468 50.6462 101.199C50.5037 102.393 50.3502 106.909 50.2132 113.181C49.457 106.436 47.9555 101.914 45.1771 97.7051C41.7576 92.528 38.8039 86.2175 35.9872 87.0317C33.1704 87.846 34.6829 96.1921 36.9133 102.051C38.908 107.284 48.6898 112.466 50.131 116.664C49.9612 125.159 49.8077 135.92 49.7036 145.95C48.9309 140.773 49.4625 140.338 46.295 132.41C44.4154 127.695 36.716 121.885 35.7844 125.126C34.8528 128.366 36.2612 134.479 39.171 138.765C41.522 142.225 46.7334 142.22 47.939 144.365C48.2185 144.866 49.1501 146.786 49.6817 147.886C49.5556 160.122 49.5008 170.922 49.5611 174.608L50.0653 174.647C50.0653 173.695 50.1036 167.467 50.2023 159.242C51.4682 154.841 59.9896 152.299 62.62 147.743C65.36 142.973 67.3547 137.406 66.171 133.681C65.1846 130.572 57.403 134.781 54.2739 139.947C52.1751 143.375 50.8928 147.039 50.2954 151.958C50.3667 146.346 50.4489 140.316 50.5256 134.627C51.1668 133.197 52.608 129.923 53.6656 127.332Z" fill="#E6E6E6"/>
<path d="M58.6689 180.154H40.7602C40.287 180.154 39.8284 179.989 39.462 179.688C39.0955 179.388 38.8437 178.969 38.7491 178.504L37.4777 172.204H61.9569L60.6855 178.498C60.5899 178.965 60.3372 179.384 59.97 179.685C59.6027 179.987 59.1433 180.153 58.6689 180.154Z" fill="#F0F0F0"/>
<path d="M62.472 174.647H36.9626C36.6671 174.646 36.3822 174.536 36.162 174.338C35.9418 174.141 35.8015 173.869 35.768 173.574L35.22 168.925C35.2015 168.756 35.2186 168.585 35.2702 168.424C35.3218 168.262 35.4067 168.113 35.5193 167.986C35.632 167.86 35.7699 167.758 35.9242 167.689C36.0784 167.619 36.2455 167.583 36.4146 167.583H62.9597C63.1291 167.582 63.2966 167.618 63.4513 167.687C63.6059 167.756 63.7442 167.858 63.857 167.985C63.9699 168.111 64.0547 168.261 64.106 168.423C64.1572 168.585 64.1737 168.756 64.1544 168.925L63.6064 173.574C63.5743 173.859 63.4428 174.123 63.2351 174.319C63.0273 174.516 62.757 174.632 62.472 174.647Z" fill="#F0F0F0"/>
<path d="M222.285 176.144H227.76V117.005H222.285V176.144Z" fill="#F0F0F0"/>
<path d="M110.729 180.083H225.661V176.143H110.729V180.083Z" fill="#F0F0F0"/>
<path d="M222.291 117H108.63V176.138H222.291V117Z" fill="#F5F5F5"/>
<path d="M223.579 117H229.234V113.27H223.579V117Z" fill="#E0E0E0"/>
<path d="M223.579 113.275H107.156V117.005H223.579V113.275Z" fill="#EBEBEB"/>
<path d="M214.131 142.544H116.784C115.622 142.544 114.506 142.081 113.684 141.255C112.862 140.43 112.4 139.31 112.4 138.143V125.439C112.4 124.272 112.862 123.153 113.684 122.327C114.506 121.502 115.622 121.038 116.784 121.038H214.131C215.294 121.038 216.409 121.502 217.231 122.327C218.053 123.153 218.515 124.272 218.515 125.439V138.093C218.522 138.676 218.413 139.253 218.196 139.793C217.978 140.333 217.656 140.824 217.249 141.238C216.841 141.652 216.355 141.98 215.82 142.205C215.285 142.429 214.711 142.544 214.131 142.544ZM116.784 122.138C115.912 122.138 115.076 122.486 114.459 123.105C113.843 123.724 113.496 124.564 113.496 125.439V138.093C113.496 138.969 113.843 139.809 114.459 140.428C115.076 141.047 115.912 141.394 116.784 141.394H214.131C215.003 141.394 215.839 141.047 216.456 140.428C217.073 139.809 217.419 138.969 217.419 138.093V125.439C217.419 124.564 217.073 123.724 216.456 123.105C215.839 122.486 215.003 122.138 214.131 122.138H116.784Z" fill="white"/>
<path d="M214.131 169.035H116.784C115.622 169.035 114.506 168.572 113.684 167.746C112.862 166.921 112.4 165.801 112.4 164.634V151.98C112.4 150.813 112.862 149.693 113.684 148.868C114.506 148.042 115.622 147.579 116.784 147.579H214.131C215.294 147.579 216.409 148.042 217.231 148.868C218.053 149.693 218.515 150.813 218.515 151.98V164.634C218.515 165.801 218.053 166.921 217.231 167.746C216.409 168.572 215.294 169.035 214.131 169.035ZM116.784 148.635C115.912 148.635 115.076 148.983 114.459 149.602C113.843 150.221 113.496 151.061 113.496 151.936V164.59C113.496 165.465 113.843 166.305 114.459 166.924C115.076 167.543 115.912 167.891 116.784 167.891H214.131C215.003 167.891 215.839 167.543 216.456 166.924C217.073 166.305 217.419 165.465 217.419 164.59V151.936C217.419 151.061 217.073 150.221 216.456 149.602C215.839 148.983 215.003 148.635 214.131 148.635H116.784Z" fill="white"/>
<path d="M192.008 133.742H138.907C138.53 133.74 138.168 133.589 137.901 133.321C137.634 133.053 137.484 132.69 137.482 132.311V131.271C137.484 130.892 137.634 130.529 137.901 130.261C138.168 129.993 138.53 129.842 138.907 129.841H192.008C192.386 129.842 192.747 129.993 193.014 130.261C193.281 130.529 193.432 130.892 193.433 131.271V132.311C193.432 132.69 193.281 133.053 193.014 133.321C192.747 133.589 192.386 133.74 192.008 133.742ZM138.907 130.941C138.821 130.944 138.739 130.98 138.678 131.041C138.616 131.102 138.581 131.185 138.578 131.271V132.311C138.58 132.398 138.615 132.481 138.676 132.543C138.737 132.605 138.82 132.64 138.907 132.641H192.008C192.095 132.641 192.179 132.606 192.241 132.545C192.302 132.483 192.337 132.399 192.337 132.311V131.271C192.336 131.184 192.301 131.101 192.239 131.039C192.178 130.978 192.095 130.943 192.008 130.941H138.907Z" fill="white"/>
<path d="M192.008 160.232H138.907C138.53 160.231 138.168 160.08 137.901 159.812C137.634 159.544 137.484 159.181 137.482 158.802V157.762C137.484 157.383 137.634 157.02 137.901 156.752C138.168 156.484 138.53 156.333 138.907 156.332H192.008C192.386 156.333 192.747 156.484 193.014 156.752C193.281 157.02 193.432 157.383 193.433 157.762V158.802C193.432 159.181 193.281 159.544 193.014 159.812C192.747 160.08 192.386 160.231 192.008 160.232ZM138.907 157.432C138.821 157.435 138.739 157.47 138.678 157.532C138.616 157.593 138.581 157.675 138.578 157.762V158.802C138.58 158.889 138.615 158.972 138.676 159.034C138.737 159.095 138.82 159.131 138.907 159.132H192.008C192.095 159.132 192.179 159.097 192.241 159.035C192.302 158.973 192.337 158.889 192.337 158.802V157.762C192.336 157.675 192.301 157.592 192.239 157.53C192.178 157.469 192.095 157.433 192.008 157.432H138.907Z" fill="white"/>
<path d="M134.26 205C192.941 205 240.512 202.212 240.512 198.772C240.512 195.332 192.941 192.544 134.26 192.544C75.5788 192.544 28.0083 195.332 28.0083 198.772C28.0083 202.212 75.5788 205 134.26 205Z" fill="#F5F5F5"/>
<path d="M205.388 62.0576L205.179 65.2969L205.726 65.3324L205.934 62.0931L205.388 62.0576Z" fill="#37D2F4"/>
<path d="M206.213 48.907L205.53 59.5527L206.076 59.5881L206.76 48.9424L206.213 48.907Z" fill="#37D2F4"/>
<path d="M199.713 33.4393H135.296C133.639 33.47 132.054 34.1196 130.849 35.261C129.644 36.4025 128.907 37.9539 128.78 39.6122L120.456 168.628C120.395 169.418 120.499 170.213 120.76 170.961C121.022 171.709 121.435 172.395 121.975 172.974C122.515 173.553 123.168 174.013 123.895 174.324C124.621 174.636 125.404 174.793 126.193 174.784H190.6C192.256 174.758 193.844 174.113 195.052 172.974C196.26 171.836 197.001 170.286 197.132 168.628L205.451 39.6122C205.514 38.8204 205.412 38.0239 205.152 37.2738C204.891 36.5236 204.478 35.8362 203.938 35.2553C203.398 34.6745 202.744 34.213 202.016 33.9003C201.289 33.5877 200.504 33.4306 199.713 33.4393Z" fill="#37D2F4"/>
<path opacity="0.7" d="M197.669 33.4393H135.296C133.639 33.47 132.054 34.1196 130.849 35.261C129.644 36.4025 128.907 37.9539 128.78 39.6122L120.456 168.628C120.395 169.418 120.499 170.213 120.76 170.961C121.022 171.709 121.435 172.395 121.975 172.974C122.515 173.553 123.168 174.013 123.895 174.324C124.621 174.636 125.404 174.793 126.193 174.784H188.556C190.214 174.758 191.803 174.111 193.011 172.97C194.219 171.829 194.96 170.277 195.088 168.617L203.407 39.6122C203.47 38.8204 203.368 38.0239 203.108 37.2738C202.847 36.5236 202.434 35.8362 201.894 35.2553C201.354 34.6745 200.7 34.213 199.972 33.9003C199.245 33.5877 198.46 33.4306 197.669 33.4393Z" fill="white"/>
<path d="M192.408 165.244H123.799C123.542 165.245 123.287 165.192 123.051 165.09C122.815 164.988 122.603 164.838 122.427 164.649C122.251 164.461 122.116 164.238 122.029 163.995C121.943 163.752 121.907 163.494 121.925 163.236L129.454 46.4949C129.485 46.0181 129.695 45.5709 130.042 45.2439C130.389 44.9169 130.847 44.7348 131.323 44.7344H199.938C200.197 44.7344 200.453 44.7881 200.69 44.8921C200.927 44.996 201.14 45.1481 201.316 45.3387C201.492 45.5293 201.627 45.7543 201.712 45.9997C201.798 46.245 201.832 46.5054 201.812 46.7645L194.282 163.511C194.245 163.984 194.031 164.425 193.684 164.747C193.336 165.068 192.881 165.246 192.408 165.244Z" fill="white"/>
<path d="M177.163 40.9107H152.223C152.095 40.9126 151.968 40.8877 151.85 40.8375C151.733 40.7873 151.626 40.713 151.539 40.6193C151.451 40.5255 151.384 40.4145 151.341 40.2932C151.299 40.1719 151.282 40.0431 151.292 39.9149C151.317 39.6489 151.438 39.4013 151.631 39.218C151.825 39.0348 152.078 38.9285 152.344 38.919H177.283C177.412 38.9171 177.539 38.9421 177.656 38.9922C177.774 39.0424 177.881 39.1167 177.968 39.2105C178.056 39.3042 178.123 39.4152 178.166 39.5365C178.208 39.6578 178.225 39.7867 178.215 39.9149C178.19 40.1808 178.069 40.4285 177.876 40.6117C177.682 40.7949 177.429 40.9012 177.163 40.9107Z" fill="white"/>
<path d="M157.698 170.147C157.657 170.806 157.369 171.425 156.892 171.88C156.416 172.335 155.785 172.592 155.128 172.601C154.812 172.603 154.499 172.541 154.208 172.417C153.917 172.293 153.655 172.11 153.437 171.88C153.22 171.65 153.052 171.377 152.944 171.079C152.836 170.781 152.79 170.463 152.81 170.147C152.851 169.488 153.139 168.869 153.616 168.414C154.092 167.959 154.722 167.701 155.38 167.693C155.696 167.69 156.009 167.753 156.3 167.877C156.591 168.001 156.853 168.183 157.071 168.413C157.288 168.644 157.456 168.916 157.564 169.215C157.672 169.513 157.718 169.83 157.698 170.147Z" fill="white"/>
<path opacity="0.2" d="M184.934 77.0684H126.347L122.62 134.793H184.934C186.559 134.788 188.117 134.138 189.267 132.985C190.417 131.831 191.065 130.268 191.071 128.636V83.2303C191.067 81.5974 190.419 80.0326 189.269 78.878C188.119 77.7233 186.56 77.0727 184.934 77.0684Z" fill="#37D2F4"/>
<path d="M179.476 71.9351H107.677C104.287 71.9351 101.539 74.6939 101.539 78.097V123.492C101.539 126.895 104.287 129.654 107.677 129.654H179.476C182.865 129.654 185.613 126.895 185.613 123.492V78.097C185.613 74.6939 182.865 71.9351 179.476 71.9351Z" fill="#37D2F4"/>
<path d="M99.5771 71.2749C99.4333 71.2743 99.2956 71.217 99.1935 71.1153L98.2071 70.125C98.105 70.0219 98.0477 69.8825 98.0477 69.7371C98.0477 69.5918 98.105 69.4523 98.2071 69.3493C98.258 69.2977 98.3186 69.2568 98.3854 69.2288C98.4522 69.2009 98.5238 69.1865 98.5962 69.1865C98.6685 69.1865 98.7401 69.2009 98.8069 69.2288C98.8737 69.2568 98.9343 69.2977 98.9852 69.3493L99.9662 70.3341C100.018 70.3852 100.058 70.4461 100.086 70.5131C100.114 70.5802 100.128 70.6521 100.128 70.7247C100.128 70.7973 100.114 70.8692 100.086 70.9363C100.058 71.0033 100.018 71.0642 99.9662 71.1153C99.915 71.1663 99.8542 71.2066 99.7875 71.234C99.7207 71.2614 99.6492 71.2753 99.5771 71.2749Z" fill="#37D2F4"/>
<path d="M98.092 74.7302H96.7056C96.5603 74.7302 96.4209 74.6723 96.3181 74.5691C96.2153 74.4659 96.1576 74.326 96.1576 74.1801C96.1576 74.0341 96.2153 73.8942 96.3181 73.791C96.4209 73.6878 96.5603 73.6299 96.7056 73.6299H98.092C98.2374 73.6299 98.3768 73.6878 98.4795 73.791C98.5823 73.8942 98.64 74.0341 98.64 74.1801C98.64 74.326 98.5823 74.4659 98.4795 74.5691C98.3768 74.6723 98.2374 74.7302 98.092 74.7302Z" fill="#37D2F4"/>
<path d="M103.068 69.7893C102.929 69.7896 102.795 69.7369 102.693 69.642C102.592 69.547 102.53 69.4167 102.52 69.2776L102.421 67.8857C102.416 67.8134 102.425 67.7408 102.448 67.672C102.471 67.6032 102.507 67.5397 102.554 67.485C102.601 67.4303 102.659 67.3855 102.724 67.3532C102.788 67.321 102.859 67.3019 102.931 67.297C103.075 67.2879 103.218 67.3366 103.326 67.4325C103.435 67.5284 103.502 67.6636 103.512 67.8086L103.616 69.1951C103.621 69.2674 103.612 69.34 103.589 69.4087C103.566 69.4775 103.53 69.541 103.483 69.5957C103.435 69.6504 103.378 69.6952 103.313 69.7275C103.249 69.7597 103.178 69.7789 103.106 69.7837L103.068 69.7893Z" fill="#37D2F4"/>
<path d="M149.708 123.723L171.754 145.851V123.723H149.708Z" fill="#37D2F4"/>
<path d="M155.753 114.029L154.657 109.352C154.38 108.126 154.38 106.854 154.657 105.628L156.142 98.9706C156.765 96.1349 156.427 93.1715 155.182 90.5504C153.937 87.9292 151.856 85.8003 149.27 84.501C149.314 84.3745 149.363 84.259 149.396 84.1269C149.578 83.312 149.431 82.4577 148.986 81.752C148.541 81.0462 147.835 80.5469 147.023 80.3637C146.211 80.1806 145.36 80.3287 144.657 80.7755C143.954 81.2222 143.457 81.9311 143.275 82.746C143.247 82.8765 143.231 83.0089 143.225 83.1421C140.333 83.2102 137.546 84.245 135.306 86.0826C133.066 87.9202 131.5 90.4556 130.857 93.2873L129.372 99.9389C129.098 101.166 128.555 102.316 127.783 103.306L124.829 107.075C124.546 107.444 124.36 107.878 124.289 108.338C124.217 108.798 124.261 109.269 124.418 109.707C124.574 110.145 124.838 110.537 125.185 110.846C125.531 111.155 125.95 111.372 126.402 111.476L152.432 117.33C152.887 117.442 153.364 117.435 153.816 117.31C154.267 117.184 154.68 116.944 155.013 116.613C155.346 116.282 155.589 115.87 155.719 115.418C155.848 114.965 155.86 114.487 155.753 114.029Z" fill="white"/>
<path d="M136.096 115.47C135.898 115.427 135.692 115.432 135.497 115.488C135.302 115.543 135.123 115.645 134.977 115.786C134.83 115.927 134.721 116.102 134.658 116.295C134.595 116.489 134.581 116.695 134.616 116.895C134.766 117.779 135.174 118.599 135.789 119.249C136.404 119.9 137.197 120.351 138.069 120.547C138.941 120.743 139.85 120.674 140.683 120.349C141.515 120.024 142.232 119.458 142.743 118.722C142.86 118.556 142.934 118.364 142.959 118.163C142.985 117.961 142.96 117.757 142.888 117.567C142.816 117.377 142.699 117.208 142.546 117.075C142.394 116.941 142.211 116.848 142.014 116.802L136.096 115.47Z" fill="white"/>
<path d="M116.105 106.183C115.969 106.183 115.836 106.15 115.716 106.085C115.597 106.021 115.495 105.928 115.42 105.815C112.832 101.922 111.89 97.1558 112.801 92.5655C113.713 87.9752 116.403 83.9364 120.281 81.3375C120.462 81.2164 120.684 81.1727 120.898 81.216C121.112 81.2594 121.3 81.3862 121.42 81.5686C121.541 81.751 121.585 81.974 121.541 82.1886C121.498 82.4032 121.372 82.5918 121.19 82.7129C117.68 85.0733 115.247 88.736 114.425 92.8964C113.603 97.0568 114.459 101.375 116.806 104.901C116.927 105.083 116.972 105.306 116.93 105.52C116.888 105.735 116.762 105.924 116.582 106.046C116.44 106.139 116.274 106.187 116.105 106.183Z" fill="white"/>
<path d="M119.585 103.862C119.45 103.862 119.318 103.829 119.2 103.766C119.081 103.702 118.98 103.611 118.905 103.499C116.934 100.533 116.216 96.9035 116.909 93.407C117.603 89.9106 119.651 86.8338 122.604 84.8532C122.785 84.7404 123.003 84.7025 123.211 84.7475C123.419 84.7925 123.602 84.917 123.72 85.0946C123.839 85.2722 123.884 85.4892 123.847 85.6997C123.809 85.9102 123.692 86.0979 123.519 86.2232C120.928 87.9599 119.13 90.6586 118.521 93.726C117.912 96.7933 118.541 99.978 120.27 102.58C120.391 102.762 120.435 102.984 120.393 103.199C120.351 103.413 120.226 103.602 120.045 103.724C119.908 103.814 119.748 103.862 119.585 103.862Z" fill="white"/>
<path d="M123.07 101.529C122.935 101.53 122.802 101.497 122.683 101.432C122.564 101.368 122.463 101.274 122.39 101.16C121.719 100.151 121.253 99.0194 121.018 97.8293C120.783 96.6392 120.784 95.4142 121.021 94.2245C121.258 93.0348 121.727 91.9037 122.4 90.8961C123.073 89.8885 123.938 89.024 124.944 88.3523C125.125 88.2394 125.342 88.2015 125.551 88.2465C125.759 88.2915 125.942 88.416 126.06 88.5936C126.179 88.7712 126.224 88.9882 126.187 89.1987C126.149 89.4092 126.032 89.5969 125.859 89.7222C125.033 90.275 124.324 90.9859 123.771 91.8143C123.219 92.6427 122.835 93.5723 122.641 94.5499C122.447 95.5275 122.447 96.5338 122.641 97.5114C122.835 98.489 123.219 99.4186 123.771 100.247C123.891 100.429 123.935 100.651 123.893 100.865C123.851 101.08 123.726 101.268 123.547 101.391C123.405 101.485 123.239 101.533 123.07 101.529Z" fill="white"/>
<path d="M163.496 117.814C163.345 117.814 163.196 117.773 163.067 117.694C162.937 117.616 162.832 117.503 162.761 117.368C162.665 117.175 162.649 116.951 162.715 116.745C162.782 116.539 162.926 116.368 163.118 116.268C166.872 114.321 169.703 110.956 170.987 106.914C172.272 102.872 171.905 98.483 169.968 94.7123C169.879 94.5196 169.868 94.3002 169.937 94.0995C170.005 93.8989 170.148 93.7324 170.336 93.6347C170.523 93.537 170.741 93.5156 170.944 93.5749C171.147 93.6342 171.319 93.7696 171.425 93.9531C172.485 96.0138 173.129 98.2639 173.321 100.575C173.514 102.886 173.251 105.212 172.548 107.421C171.844 109.629 170.714 111.677 169.222 113.448C167.73 115.218 165.905 116.675 163.852 117.737C163.741 117.79 163.619 117.816 163.496 117.814Z" fill="white"/>
<path d="M161.572 114.078C161.389 114.078 161.21 114.015 161.066 113.901C160.921 113.787 160.819 113.628 160.776 113.448C160.732 113.269 160.75 113.08 160.826 112.912C160.901 112.744 161.031 112.607 161.194 112.521C162.565 111.811 163.783 110.836 164.779 109.653C165.774 108.47 166.528 107.102 166.996 105.626C167.465 104.151 167.64 102.597 167.51 101.054C167.381 99.5106 166.949 98.0081 166.241 96.6322C166.141 96.4374 166.122 96.2106 166.188 96.0016C166.255 95.7927 166.401 95.6188 166.595 95.5181C166.789 95.4174 167.015 95.3982 167.223 95.4648C167.431 95.5313 167.604 95.6781 167.704 95.8729C168.512 97.4413 169.004 99.1541 169.152 100.913C169.3 102.673 169.101 104.444 168.567 106.126C168.032 107.808 167.173 109.368 166.038 110.716C164.902 112.065 163.513 113.175 161.95 113.985C161.833 114.045 161.704 114.077 161.572 114.078Z" fill="white"/>
<path d="M159.649 110.343C159.466 110.34 159.289 110.276 159.146 110.161C159.003 110.046 158.901 109.887 158.858 109.708C158.815 109.529 158.832 109.341 158.907 109.173C158.981 109.005 159.109 108.867 159.271 108.78C160.154 108.324 160.938 107.698 161.58 106.937C162.221 106.176 162.707 105.296 163.009 104.346C163.311 103.396 163.423 102.396 163.339 101.403C163.255 100.41 162.977 99.443 162.52 98.5579C162.471 98.4614 162.441 98.3562 162.432 98.2481C162.424 98.1401 162.436 98.0313 162.469 97.9281C162.502 97.8249 162.555 97.7293 162.625 97.6466C162.695 97.564 162.78 97.496 162.877 97.4465C162.973 97.397 163.077 97.367 163.185 97.3582C163.293 97.3494 163.401 97.3619 163.504 97.3951C163.607 97.4284 163.702 97.4816 163.784 97.5517C163.866 97.6219 163.934 97.7077 163.984 97.8041C165.099 99.9831 165.307 102.517 164.564 104.85C163.82 107.184 162.184 109.125 160.016 110.249C159.902 110.308 159.777 110.34 159.649 110.343Z" fill="white"/>
<path d="M111.441 39.002H107.255C107.145 39.006 107.041 39.0485 106.96 39.1219C106.879 39.1953 106.826 39.295 106.811 39.4036L105.934 47.7882C105.928 47.8387 105.932 47.89 105.947 47.9386C105.962 47.9872 105.988 48.032 106.021 48.0701C106.055 48.1081 106.096 48.1384 106.143 48.1591C106.189 48.1797 106.239 48.1902 106.29 48.1898H110.477C110.586 48.1869 110.691 48.1448 110.772 48.0712C110.854 47.9976 110.906 47.8972 110.921 47.7882L111.792 39.4036C111.798 39.3535 111.794 39.3027 111.779 39.2545C111.764 39.2063 111.739 39.1617 111.706 39.1238C111.673 39.0859 111.632 39.0554 111.587 39.0344C111.541 39.0134 111.492 39.0023 111.441 39.002Z" fill="#37D2F4"/>
<path opacity="0.4" d="M111.063 39.0019H107.255C107.145 39.0059 107.041 39.0484 106.96 39.1218C106.879 39.1952 106.826 39.2949 106.811 39.4035L105.934 47.7881C105.928 47.8387 105.932 47.8899 105.947 47.9385C105.962 47.9871 105.988 48.032 106.021 48.07C106.055 48.108 106.096 48.1383 106.143 48.159C106.189 48.1797 106.239 48.1902 106.29 48.1898H110.126C110.235 48.1866 110.339 48.1443 110.419 48.0706C110.5 47.9969 110.551 47.8967 110.564 47.7881L111.441 39.4035C111.449 39.3509 111.445 39.2972 111.429 39.2465C111.413 39.1958 111.385 39.1494 111.349 39.1107C111.313 39.0721 111.268 39.0422 111.219 39.0234C111.169 39.0045 111.116 38.9972 111.063 39.0019Z" fill="white"/>
<path d="M90.4584 194.04C91.0064 194.04 91.5544 193.963 91.7462 193.705C91.7931 193.638 91.8183 193.558 91.8183 193.476C91.8183 193.395 91.7931 193.315 91.7462 193.248C91.7079 193.186 91.6577 193.132 91.5984 193.089C91.5391 193.047 91.472 193.017 91.4009 193.001C90.6556 192.797 89.1432 193.683 89.0774 193.721C89.0599 193.733 89.0463 193.75 89.0384 193.769C89.0306 193.789 89.0289 193.811 89.0336 193.831C89.0376 193.853 89.0482 193.873 89.0638 193.889C89.0795 193.905 89.0995 193.915 89.1212 193.919C89.5628 193.997 90.0101 194.037 90.4584 194.04ZM91.1269 193.177C91.1954 193.177 91.2636 193.186 91.3297 193.204C91.4177 193.223 91.4946 193.277 91.5434 193.353C91.6201 193.479 91.5982 193.545 91.5434 193.584C91.3516 193.87 90.2282 193.881 89.4007 193.76C89.9316 193.452 90.5185 193.253 91.1269 193.177Z" fill="#37D2F4"/>
<path d="M89.1103 193.919C89.1244 193.925 89.14 193.925 89.1541 193.919C89.7021 193.683 90.6995 192.715 90.5954 192.214C90.5954 192.093 90.4803 191.95 90.1898 191.917C90.0866 191.905 89.9821 191.915 89.883 191.947C89.7839 191.978 89.6925 192.03 89.6144 192.098C89.0664 192.566 89.0062 193.749 89.0007 193.815C89 193.834 89.0041 193.853 89.0128 193.871C89.0214 193.888 89.0342 193.903 89.05 193.914C89.0692 193.921 89.0901 193.923 89.1103 193.919ZM90.1186 192.115H90.1789C90.3707 192.115 90.3871 192.214 90.3871 192.236C90.4529 192.539 89.7624 193.298 89.2308 193.622C89.2644 193.119 89.4563 192.639 89.7788 192.252C89.873 192.169 89.993 192.12 90.1186 192.115Z" fill="#37D2F4"/>
<path d="M88.6609 183.499H84.2221V193.815H88.6609V183.499Z" fill="#FF8B7B"/>
<path d="M52.0326 188.896L56.4659 189.381L59.3539 179.362L54.9206 178.883L52.0326 188.896Z" fill="#FF8B7B"/>
<path d="M58.5264 190.393C59.0744 190.536 59.6224 190.596 59.869 190.393C59.9293 190.337 59.9702 190.263 59.986 190.182C60.0017 190.1 59.9915 190.016 59.9567 189.942C59.9342 189.873 59.8983 189.809 59.8513 189.755C59.8043 189.7 59.747 189.655 59.6827 189.623C58.9977 189.243 57.2989 189.716 57.2277 189.738C57.2068 189.744 57.1882 189.756 57.1744 189.773C57.1607 189.789 57.1525 189.81 57.1509 189.832C57.1515 189.853 57.158 189.875 57.1695 189.893C57.1811 189.911 57.1974 189.926 57.2167 189.936C57.6405 190.123 58.0785 190.276 58.5264 190.393ZM59.3923 189.733C59.4595 189.746 59.5242 189.77 59.5841 189.804C59.6653 189.843 59.7282 189.912 59.7594 189.997C59.8033 190.145 59.7594 190.2 59.7594 190.228C59.4964 190.459 58.3949 190.184 57.6113 189.87C58.1903 189.708 58.7953 189.662 59.3923 189.733Z" fill="#37D2F4"/>
<path d="M57.2386 189.942H57.2824C57.8304 189.843 59.0908 189.172 59.1128 188.666C59.1128 188.544 59.0689 188.379 58.7894 188.28C58.6916 188.242 58.5867 188.225 58.4817 188.231C58.3768 188.236 58.2743 188.265 58.1812 188.313C57.5345 188.621 57.1728 189.755 57.1564 189.804C57.1478 189.82 57.1432 189.838 57.1432 189.857C57.1432 189.875 57.1478 189.893 57.1564 189.909C57.1663 189.921 57.179 189.93 57.1933 189.936C57.2077 189.942 57.2232 189.944 57.2386 189.942ZM58.6634 188.462H58.7292C58.91 188.528 58.9045 188.605 58.9045 188.627C58.9045 188.935 58.0277 189.491 57.4249 189.672C57.5767 189.195 57.8762 188.779 58.2798 188.484C58.4008 188.43 58.5371 188.423 58.6634 188.462Z" fill="#37D2F4"/>
<path d="M56.7015 188.968L51.8517 187.57C51.7684 187.545 51.6789 187.55 51.5989 187.584C51.5188 187.619 51.4532 187.68 51.4133 187.758L49.6269 191.312C49.5851 191.402 49.5637 191.501 49.564 191.6C49.5644 191.7 49.5865 191.799 49.6288 191.889C49.6711 191.979 49.7326 192.059 49.809 192.123C49.8853 192.186 49.9747 192.233 50.0707 192.258C51.7695 192.715 52.6189 192.852 54.7507 193.468C56.0604 193.848 58.7291 194.761 60.543 195.284C62.3569 195.807 63.0255 194.096 62.324 193.721C59.1785 192.043 58.1702 190.69 57.3372 189.43C57.1876 189.204 56.9619 189.04 56.7015 188.968Z" fill="#212121"/>
<path d="M88.6116 193.298H83.7673C83.681 193.297 83.5971 193.327 83.5307 193.382C83.4644 193.438 83.42 193.515 83.4056 193.6L82.6987 197.562C82.6828 197.66 82.6883 197.76 82.7149 197.855C82.7415 197.951 82.7885 198.039 82.8527 198.115C82.9168 198.19 82.9966 198.251 83.0864 198.292C83.1762 198.333 83.274 198.354 83.3728 198.354C85.1209 198.354 87.6417 198.222 89.8392 198.222C92.4093 198.222 93.8122 198.365 96.8262 198.365C98.6455 198.365 99.073 196.516 98.3003 196.346C94.7986 195.587 92.7764 195.504 89.6967 193.644C89.3717 193.435 88.9974 193.315 88.6116 193.298Z" fill="#212121"/>
<path opacity="0.2" d="M88.6609 183.499H84.2221V188.819H88.6609V183.499Z" fill="black"/>
<path opacity="0.2" d="M54.9206 178.883L59.3539 179.367L57.7482 184.924L53.43 184.049L54.9206 178.883Z" fill="black"/>
<path d="M81.3616 80.9194C81.3616 80.9194 78.912 114.541 76.72 127.294C74.3033 141.262 60.2416 184.027 60.2416 184.027L52.186 182.553C52.186 182.553 62.3405 142.39 63.4639 128.559C64.6859 113.55 66.1546 82.6085 66.1546 82.6085L81.3616 80.9194Z" fill="#37D2F4"/>
<path opacity="0.3" d="M77.2351 94.8775C77.6735 93.0289 78.6819 95.3561 79.8546 99.3889C78.9668 109.369 77.816 120.928 76.72 127.294C76.4734 128.724 76.1008 130.452 75.624 132.41C76.0295 118.166 76.046 99.873 77.2351 94.8775Z" fill="black"/>
<path d="M89.7295 79.9844C89.7295 79.9844 92.9463 113.804 93.0559 127.387C93.171 141.521 90.272 187.791 90.272 187.791H82.748C82.748 187.791 80.4902 142.347 79.5532 128.466C78.5284 113.336 74.2156 81.7009 74.2156 81.7009L89.7295 79.9844Z" fill="#37D2F4"/>
<path d="M61.924 181.31C61.9569 181.31 60.6581 184.237 60.6581 184.237L51.5942 182.586L52.1422 179.863L61.924 181.31Z" fill="#212121"/>
<path d="M91.5872 184.781C91.6201 184.781 91.2968 187.917 91.2968 187.917H82.1561L81.7835 185.117L91.5872 184.781Z" fill="#212121"/>
<path d="M66.3737 49.8513C65.7709 51.0231 65.1079 52.2555 64.5051 53.4714L62.6638 57.1356C62.0665 58.3569 61.4801 59.5838 60.9157 60.8052C60.3512 62.0266 59.8197 63.259 59.3648 64.4804L59.321 62.5548C59.6423 63.5432 60.0267 64.5099 60.4718 65.4487C60.6855 65.9328 60.9595 66.395 61.1951 66.8736C61.4308 67.3523 61.7431 67.8089 62.0226 68.2601C62.6041 69.1926 63.2333 70.0943 63.9078 70.9614C64.2475 71.396 64.5873 71.8362 64.9489 72.2598C65.3106 72.6835 65.7052 73.1126 66.0449 73.4702L66.1545 73.5912C66.2936 73.7458 66.4009 73.9263 66.4703 74.1226C66.5398 74.3188 66.57 74.5268 66.5593 74.7348C66.5486 74.9428 66.4972 75.1466 66.408 75.3346C66.3188 75.5226 66.1936 75.6911 66.0395 75.8304C65.7935 76.0492 65.4864 76.1866 65.1599 76.224C64.8334 76.2614 64.5034 76.197 64.2146 76.0395C63.6482 75.7192 63.0994 75.3684 62.5706 74.9887C62.0226 74.6201 61.5404 74.2459 61.0472 73.8443C60.0598 73.0294 59.133 72.143 58.2743 71.1925C57.3989 70.2292 56.6018 69.1971 55.8905 68.106C55.1611 66.9917 54.5268 65.8175 53.9944 64.5959C53.7599 64.0775 53.7191 63.4916 53.8793 62.9454L53.9561 62.6868C54.3725 61.2527 54.8383 59.8534 55.3535 58.489C55.8686 57.1246 56.4166 55.7876 56.9975 54.4782C57.5455 53.1578 58.1866 51.8649 58.8278 50.583C59.4689 49.3011 60.1156 48.0412 60.8554 46.7648C61.2642 46.0311 61.9449 45.4891 62.7496 45.2565C63.5542 45.0238 64.4178 45.1194 65.1527 45.5223C65.8876 45.9253 66.4344 46.6031 66.6743 47.4085C66.9142 48.214 66.8279 49.0819 66.434 49.8238L66.3737 49.8513Z" fill="#FF8B7B"/>
<path d="M69.5193 47.9035C69.7385 52.0958 64.9928 59.8092 64.9928 59.8092L55.222 54.9072C56.4094 51.4302 58.247 48.2128 60.6362 45.4277C65.8039 39.6839 69.3165 44.0138 69.5193 47.9035Z" fill="#212121"/>
<path d="M62.8994 75.2527L64.8667 78.5538L68.9603 75.9239C68.2444 74.6396 67.1247 73.6297 65.7764 73.052C65.4644 72.952 65.1271 72.9675 64.8255 73.0956C64.5239 73.2238 64.278 73.4562 64.1324 73.7508L62.8994 75.2527Z" fill="#FF8B7B"/>
<path d="M66.5053 79.9621L68.4068 79.6045C68.5671 79.5741 68.7199 79.5123 68.8563 79.4225C68.9927 79.3327 69.1101 79.2167 69.2018 79.0812C69.2934 78.9458 69.3575 78.7935 69.3904 78.633C69.4232 78.4726 69.4242 78.3073 69.3932 78.1465L68.9603 75.9458L64.8668 78.5756L65.1408 79.2413C65.2536 79.4987 65.4499 79.71 65.6977 79.8409C65.9455 79.9718 66.2302 80.0145 66.5053 79.9621Z" fill="#FF8B7B"/>
<path d="M78.0516 26.7988C78.09 27.1564 78.3147 27.437 78.5448 27.415C78.775 27.3929 78.9284 27.0904 78.8846 26.7327C78.8407 26.3751 78.6215 26.0945 78.3914 26.111C78.1612 26.1275 78.0078 26.4356 78.0516 26.7988Z" fill="#212121"/>
<path d="M78.2818 27.437C78.8352 28.5044 79.5262 29.4941 80.3368 30.3804C79.7888 31.0296 78.6928 30.8426 78.6928 30.8426L78.2818 27.437Z" fill="#FF5652"/>
<path d="M76.5172 24.9009C76.5457 24.9037 76.5744 24.9008 76.6017 24.8923C76.629 24.8838 76.6543 24.8699 76.6761 24.8514C76.8661 24.6727 77.0969 24.5437 77.3482 24.4756C77.5995 24.4075 77.8637 24.4024 78.1174 24.4608C78.1437 24.4682 78.1712 24.4702 78.1982 24.4667C78.2253 24.4632 78.2514 24.4542 78.2749 24.4404C78.2985 24.4265 78.319 24.408 78.3352 24.386C78.3515 24.3639 78.3631 24.3389 78.3695 24.3122C78.3816 24.2583 78.3732 24.2018 78.3458 24.1539C78.3184 24.106 78.274 24.0702 78.2215 24.0536C77.9012 23.9754 77.5666 23.9777 77.2474 24.0602C76.9281 24.1427 76.634 24.303 76.3912 24.5268C76.3622 24.5558 76.3418 24.5924 76.3325 24.6324C76.3231 24.6724 76.3251 24.7143 76.3382 24.7532C76.3513 24.7922 76.3751 24.8266 76.4067 24.8527C76.4383 24.8788 76.4766 24.8955 76.5172 24.9009Z" fill="#212121"/>
<path d="M67.004 30.8096C68.0506 33.9896 69.4426 39.8654 67.4588 42.2147C67.4588 42.2147 68.7631 45.4222 74.7691 44.916C81.3835 44.3658 77.5091 41.3674 77.5091 41.3674C73.7937 40.8172 73.5416 38.1269 73.8485 35.5576L67.004 30.8096Z" fill="#FF8B7B"/>
<path d="M66.0395 43.3537C65.4202 42.3579 64.7297 41.219 65.9025 40.7954C67.1903 40.3277 74.4239 39.5685 76.9995 40.2012C79.5751 40.8339 79.049 42.952 79.049 42.952L66.0395 43.3537Z" fill="#37D2F4"/>
<path d="M87.2197 44.6959C88.1623 45.5652 89.1815 46.5225 90.1953 47.4083C91.2091 48.294 92.2339 49.1908 93.2641 50.0601C94.2944 50.9294 95.3465 51.7491 96.4042 52.5469C97.4618 53.3446 98.5359 54.0654 99.61 54.7201L97.418 54.5165C98.3289 54.2726 99.191 53.8724 99.9662 53.3336C100.869 52.705 101.71 51.9901 102.476 51.199C103.297 50.3507 104.068 49.4541 104.783 48.5141C105.15 48.041 105.517 47.5568 105.879 47.0562C106.241 46.5555 106.57 46.0273 106.871 45.5652L106.931 45.4772C107.14 45.1598 107.454 44.9279 107.819 44.8236C108.183 44.7192 108.572 44.7492 108.916 44.9082C109.26 45.0672 109.536 45.3447 109.693 45.6903C109.851 46.0359 109.88 46.4268 109.775 46.7921C109.567 47.5073 109.348 48.118 109.096 48.7617C108.844 49.4054 108.581 50.0271 108.285 50.6433C107.682 51.8989 106.98 53.104 106.186 54.2469C105.349 55.4573 104.375 56.5652 103.282 57.548C102.072 58.6323 100.668 59.4762 99.1442 60.0347C98.8171 60.1504 98.4705 60.1998 98.1243 60.18C97.7781 60.1601 97.4393 60.0715 97.1275 59.9192L96.9467 59.8257C95.5848 59.1546 94.2636 58.4032 92.9901 57.5755C91.7462 56.7667 90.5406 55.9249 89.3788 55.0282C88.2171 54.1314 87.0936 53.2126 85.9976 52.2773C84.9016 51.342 83.844 50.3297 82.748 49.2348C82.1794 48.6394 81.8625 47.846 81.8639 47.0211C81.8653 46.1962 82.1848 45.4039 82.7554 44.8103C83.326 44.2168 84.1034 43.8682 84.9245 43.8376C85.7456 43.8071 86.5466 44.0969 87.1594 44.6464L87.2197 44.6959Z" fill="#FF8B7B"/>
<path d="M83.8714 41.8408C83.8714 41.8408 89.3952 47.227 90.0364 80.5069C81.2026 82.6526 72.7032 83.4503 66.1381 82.6086C65.8258 78.4383 65.36 63.9467 61.1404 48.6629C60.9582 48.0194 60.9116 47.3449 61.0033 46.6822C61.095 46.0196 61.3231 45.3834 61.6731 44.8142C62.0231 44.2449 62.4874 43.755 63.0362 43.3757C63.5851 42.9964 64.2067 42.736 64.8613 42.611C65.6997 42.4459 66.582 42.2974 67.4588 42.1764C70.7901 41.7025 74.1457 41.4196 77.5091 41.3291C79.6394 41.3451 81.7657 41.5161 83.8714 41.8408Z" fill="#212121"/>
<path d="M79.586 47.6394C80.134 51.8042 87.258 59.8092 87.258 59.8092L95.7137 51.0064C93.2012 48.358 90.4857 45.9114 87.5923 43.6891C81.3944 39.0622 79.0928 43.7771 79.586 47.6394Z" fill="#212121"/>
<path d="M109.227 48.2558L112.055 45.6645L108.668 42.1709C107.548 43.1286 106.777 44.4331 106.476 45.8791C106.438 46.21 106.52 46.5437 106.707 46.8187C106.895 47.0938 107.175 47.2915 107.496 47.3755L109.227 48.2558Z" fill="#FF8B7B"/>
<path d="M113.096 43.7554L112.367 41.9564C112.305 41.803 112.212 41.6637 112.095 41.5466C111.978 41.4296 111.839 41.3371 111.686 41.2746C111.533 41.2121 111.369 41.1809 111.203 41.1827C111.038 41.1845 110.875 41.2193 110.723 41.2851L108.646 42.1599L112.055 45.6645L112.647 45.2574C112.884 45.0983 113.058 44.8615 113.14 44.5874C113.222 44.3134 113.207 44.0192 113.096 43.7554Z" fill="#FF8B7B"/>
<path d="M66.16 26.9587C66.9546 31.3601 67.1957 33.9679 69.6617 36.0641C73.3717 39.2166 78.49 36.7628 78.9777 32.2624C79.4381 28.2186 78.0626 21.6991 73.6019 20.2741C69.1411 18.8492 65.3654 22.5573 66.16 26.9587Z" fill="#FF8B7B"/>
<path d="M74.802 28.5652C76.3419 28.9228 77.542 27.1347 77.7064 26.6286C76.9556 26.7001 75.624 26.3095 75.361 25.9739C76.183 26.0454 76.9776 25.0276 77.0762 24.6369C76.2025 24.4681 75.4295 23.9626 74.9226 23.2285C76.2542 23.2285 77.8544 20.8517 76.3912 18.7446C74.928 16.6374 68.8124 18.4035 67.941 16.896C66.6587 17.6497 67.7986 18.6455 67.7986 18.6455C67.7986 18.6455 59.1456 20.2961 63.1351 23.6411C60.2088 23.9107 59.7978 27.3823 62.2364 29.1429C64.675 30.9034 64.801 32.0753 63.831 31.9267C64.2201 32.6805 65.9573 32.7795 66.0559 32.0478C66.4669 33.5772 67.6506 35.6404 70.3796 35.2993C73.1087 34.9582 75.7939 31.14 74.802 28.5652Z" fill="#212121"/>
<path d="M63.9023 23.1347C61.8418 23.4208 60.9047 22.2544 61.4198 21.2256C58.8661 22.557 61.6555 25.4289 63.9023 23.1347Z" fill="#212121"/>
<path d="M72.6703 27.8994C73.0249 28.82 73.6523 29.6092 74.4677 30.1606C75.5637 30.8868 76.5556 30.1606 76.3693 29.0603C76.1994 28.048 75.4267 26.447 74.2869 26.1609C74.0502 26.0823 73.7961 26.0735 73.5546 26.1355C73.3131 26.1975 73.0943 26.3277 72.9242 26.5106C72.7541 26.6935 72.6398 26.9216 72.5948 27.1677C72.5498 27.4138 72.576 27.6678 72.6703 27.8994Z" fill="#FF8B7B"/>
<path d="M211.955 182.965C207.9 173.359 206.262 162.059 210.903 162.532C215.665 162.994 215.106 180.027 215.879 181.898C214.394 183.207 211.955 182.965 211.955 182.965Z" fill="#37D2F4"/>
<path d="M213.271 164.744C212.273 168.402 211.216 174.069 210.41 178.867C210.87 180.242 211.391 181.617 211.955 182.971C211.955 182.971 214.389 183.18 215.885 181.898C215.271 180.424 215.49 169.508 213.271 164.744Z" fill="#212121"/>
<path d="M213.293 181.211C212.021 160.794 215.485 141.879 224.603 142.731C232.429 143.469 221.019 177.832 221.239 181.794C217.655 183.208 213.293 181.211 213.293 181.211Z" fill="#37D2F4"/>
<path d="M219.2 181.073C220.63 166.405 228.341 149.284 231.651 155.006C235.854 162.262 225.075 179.565 224.784 182.41C222.088 182.987 219.2 181.073 219.2 181.073Z" fill="#37D2F4"/>
<path d="M217.759 148.178C216.833 148.029 216.318 147.446 216.378 146.632C216.444 145.708 217.2 144.789 217.901 144.778C218.241 144.778 218.811 144.948 218.953 146.225L218.405 146.285C218.34 145.686 218.159 145.328 217.918 145.328C217.545 145.328 216.975 146.01 216.931 146.67C216.893 147.221 217.2 147.529 217.852 147.639L217.759 148.178Z" fill="#37D2F4"/>
<path d="M227.601 151.881C227.203 151.846 226.823 151.699 226.505 151.457L226.801 151C227.31 151.331 227.705 151.419 227.858 151.226C228.089 150.934 227.93 150.065 227.453 149.608C227.069 149.234 226.62 149.267 226.121 149.702L225.765 149.289C225.893 149.145 226.049 149.027 226.224 148.944C226.398 148.862 226.588 148.815 226.781 148.807C226.973 148.8 227.166 148.831 227.346 148.9C227.527 148.968 227.692 149.073 227.831 149.207C228.5 149.845 228.724 151.017 228.286 151.573C228.205 151.676 228.1 151.757 227.981 151.811C227.862 151.865 227.731 151.889 227.601 151.881Z" fill="#37D2F4"/>
<path d="M214.169 160.183C213.838 160.207 213.509 160.108 213.244 159.906C212.98 159.703 212.798 159.41 212.734 159.083C212.514 158.186 212.953 157.075 213.621 156.849C213.934 156.739 214.537 156.734 215.063 157.905L214.558 158.131C214.312 157.581 214.01 157.289 213.797 157.366C213.446 157.487 213.112 158.313 213.249 158.951C213.375 159.473 213.797 159.688 214.421 159.589L214.504 160.139C214.393 160.161 214.282 160.176 214.169 160.183Z" fill="#37D2F4"/>
<path d="M208.333 171.577C208.065 171.583 207.802 171.507 207.578 171.36C207.354 171.212 207.18 171 207.078 170.752C206.695 169.915 206.919 168.744 207.528 168.392C207.818 168.226 208.41 168.105 209.144 169.156L208.695 169.475C208.344 168.975 208.01 168.749 207.802 168.87C207.478 169.057 207.303 169.926 207.577 170.521C207.802 171.01 208.229 171.142 208.848 170.922L209.029 171.445C208.806 171.527 208.571 171.571 208.333 171.577Z" fill="#37D2F4"/>
<path d="M218.044 154.967C217.987 154.967 217.932 154.95 217.885 154.918C217.548 154.724 217.291 154.416 217.158 154.049C217.026 153.683 217.027 153.281 217.161 152.915C217.321 152.55 217.593 152.246 217.937 152.048C218.281 151.85 218.68 151.768 219.074 151.815C219.414 151.881 220.208 152.184 220.263 153.647C220.263 153.72 220.234 153.79 220.183 153.842C220.131 153.893 220.062 153.922 219.989 153.922C219.916 153.922 219.847 153.893 219.795 153.842C219.744 153.79 219.715 153.72 219.715 153.647C219.682 152.882 219.425 152.42 218.975 152.338C218.703 152.316 218.43 152.38 218.195 152.521C217.96 152.662 217.775 152.873 217.666 153.124C217.468 153.592 217.666 154.065 218.214 154.456C218.262 154.489 218.298 154.538 218.316 154.593C218.335 154.649 218.336 154.709 218.318 154.765C218.3 154.821 218.265 154.87 218.218 154.904C218.17 154.939 218.113 154.957 218.055 154.956L218.044 154.967Z" fill="white"/>
<path d="M224.537 169.816C224.475 169.817 224.414 169.795 224.365 169.755C224.317 169.715 224.285 169.658 224.274 169.596C224.266 169.561 224.265 169.525 224.272 169.489C224.278 169.454 224.291 169.42 224.31 169.39C224.33 169.36 224.355 169.334 224.385 169.313C224.414 169.293 224.448 169.279 224.483 169.272C225.228 169.118 225.639 168.776 225.65 168.325C225.624 168.051 225.515 167.792 225.338 167.583C225.16 167.373 224.923 167.223 224.658 167.153C224.165 167.038 223.726 167.307 223.436 167.913C223.42 167.945 223.398 167.974 223.371 167.998C223.344 168.022 223.313 168.041 223.279 168.052C223.244 168.064 223.208 168.069 223.172 168.067C223.136 168.064 223.101 168.055 223.069 168.039C223.036 168.023 223.008 168.001 222.984 167.974C222.96 167.947 222.941 167.915 222.93 167.881C222.918 167.847 222.913 167.811 222.915 167.775C222.918 167.738 222.927 167.703 222.943 167.671C223.071 167.302 223.329 166.992 223.667 166.799C224.006 166.606 224.403 166.542 224.784 166.62C225.171 166.715 225.518 166.933 225.773 167.241C226.027 167.549 226.176 167.931 226.198 168.331C226.198 168.677 226.023 169.514 224.598 169.811L224.537 169.816Z" fill="white"/>
<path d="M232.242 165.178C231.925 165.178 231.503 164.991 231.031 164.282L231.486 163.974C231.826 164.48 232.149 164.711 232.363 164.595C232.692 164.414 232.911 163.55 232.621 162.945C232.412 162.45 231.985 162.307 231.36 162.516L231.19 161.993C232.078 161.696 232.801 161.993 233.125 162.725C233.492 163.577 233.245 164.738 232.626 165.079C232.509 165.146 232.377 165.18 232.242 165.178Z" fill="#37D2F4"/>
<path d="M230.609 186.465C230.614 183.529 229.565 180.689 227.656 178.465C227.842 178.436 228.012 178.341 228.137 178.198C228.261 178.055 228.331 177.873 228.335 177.684C228.334 177.468 228.248 177.262 228.096 177.11C227.944 176.957 227.739 176.871 227.524 176.87H209.177C208.963 176.871 208.758 176.957 208.607 177.11C208.456 177.263 208.372 177.469 208.372 177.684C208.374 177.875 208.444 178.059 208.57 178.202C208.695 178.345 208.868 178.439 209.057 178.465C207.857 179.865 206.986 181.518 206.51 183.302C206.035 185.086 205.966 186.955 206.308 188.769C206.651 190.584 207.397 192.297 208.491 193.782C209.584 195.267 210.997 196.486 212.624 197.347C212.447 197.439 212.305 197.588 212.223 197.77C212.14 197.952 212.121 198.157 212.168 198.351C212.216 198.546 212.327 198.719 212.484 198.842C212.642 198.965 212.836 199.032 213.035 199.031H223.661C223.86 199.032 224.054 198.965 224.211 198.842C224.368 198.719 224.48 198.546 224.527 198.351C224.575 198.157 224.556 197.952 224.473 197.77C224.39 197.588 224.249 197.439 224.072 197.347C226.045 196.302 227.697 194.737 228.849 192.819C230.001 190.901 230.61 188.704 230.609 186.465Z" fill="#212121"/>
</g>
<defs>
<clipPath id="clip0_153_5867">
<rect width="274" height="205" fill="white"/>
</clipPath>
</defs>
</svg>
