<svg width="16" height="16" viewBox="0 0 16 16" fill="none" xmlns="http://www.w3.org/2000/svg">
<g clip-path="url(#clip0_77_3906)">
<path d="M6 10L10 6" stroke="#37D2F4" stroke-linecap="round" stroke-linejoin="round"/>
<path d="M6.33333 6.66667C6.51743 6.66667 6.66667 6.51743 6.66667 6.33333C6.66667 6.14924 6.51743 6 6.33333 6C6.14924 6 6 6.14924 6 6.33333C6 6.51743 6.14924 6.66667 6.33333 6.66667Z" fill="#37D2F4" stroke="#37D2F4" stroke-linecap="round" stroke-linejoin="round"/>
<path d="M9.66683 9.99992C9.85092 9.99992 10.0002 9.85068 10.0002 9.66659C10.0002 9.48249 9.85092 9.33325 9.66683 9.33325C9.48273 9.33325 9.3335 9.48249 9.3335 9.66659C9.3335 9.85068 9.48273 9.99992 9.66683 9.99992Z" fill="#37D2F4" stroke="#37D2F4" stroke-linecap="round" stroke-linejoin="round"/>
<path d="M3.33315 4.80006C3.33315 4.41108 3.48768 4.03803 3.76273 3.76297C4.03778 3.48792 4.41083 3.3334 4.79982 3.3334H5.46649C5.85375 3.33318 6.22521 3.1798 6.49982 2.90673L6.96649 2.44006C7.10278 2.303 7.26483 2.19422 7.44331 2.12C7.62179 2.04578 7.81319 2.00757 8.00649 2.00757C8.19979 2.00757 8.39118 2.04578 8.56966 2.12C8.74814 2.19422 8.91019 2.303 9.04649 2.44006L9.51315 2.90673C9.78776 3.1798 10.1592 3.33318 10.5465 3.3334H11.2132C11.6021 3.3334 11.9752 3.48792 12.2502 3.76297C12.5253 4.03803 12.6798 4.41108 12.6798 4.80006V5.46673C12.68 5.854 12.8334 6.22546 13.1065 6.50006L13.5732 6.96673C13.7102 7.10303 13.819 7.26508 13.8932 7.44356C13.9674 7.62204 14.0056 7.81343 14.0056 8.00673C14.0056 8.20003 13.9674 8.39142 13.8932 8.5699C13.819 8.74838 13.7102 8.91043 13.5732 9.04673L13.1065 9.5134C12.8334 9.788 12.68 10.1595 12.6798 10.5467V11.2134C12.6798 11.6024 12.5253 11.9754 12.2502 12.2505C11.9752 12.5255 11.6021 12.6801 11.2132 12.6801H10.5465C10.1592 12.6803 9.78776 12.8337 9.51315 13.1067L9.04649 13.5734C8.91019 13.7105 8.74814 13.8192 8.56966 13.8935C8.39118 13.9677 8.19979 14.0059 8.00649 14.0059C7.81319 14.0059 7.62179 13.9677 7.44331 13.8935C7.26483 13.8192 7.10278 13.7105 6.96649 13.5734L6.49982 13.1067C6.22521 12.8337 5.85375 12.6803 5.46649 12.6801H4.79982C4.41083 12.6801 4.03778 12.5255 3.76273 12.2505C3.48768 11.9754 3.33315 11.6024 3.33315 11.2134V10.5467C3.33293 10.1595 3.17955 9.788 2.90649 9.5134L2.43982 9.04673C2.30275 8.91043 2.19398 8.74838 2.11976 8.5699C2.04553 8.39142 2.00732 8.20003 2.00732 8.00673C2.00732 7.81343 2.04553 7.62204 2.11976 7.44356C2.19398 7.26508 2.30275 7.10303 2.43982 6.96673L2.90649 6.50006C3.17955 6.22546 3.33293 5.854 3.33315 5.46673V4.80006Z" stroke="#37D2F4" stroke-linecap="round" stroke-linejoin="round"/>
</g>
<defs>
<clipPath id="clip0_77_3906">
<rect width="16" height="16" fill="white"/>
</clipPath>
</defs>
</svg>
