<svg width="24" height="24" viewBox="0 0 24 24" fill="none" xmlns="http://www.w3.org/2000/svg">
<path d="M20.749 11.9999L21.853 10.0919C21.9857 9.86238 22.0218 9.58952 21.9533 9.33336C21.8849 9.07721 21.7175 8.85872 21.488 8.72594L19.578 7.62194V5.42194C19.578 5.15672 19.4727 4.90237 19.2851 4.71483C19.0976 4.52729 18.8432 4.42194 18.578 4.42194H16.379L15.276 2.51294C15.1428 2.28385 14.9247 2.11644 14.669 2.04694C14.5422 2.01255 14.4098 2.00369 14.2795 2.02085C14.1492 2.03802 14.0236 2.08087 13.91 2.14694L12 3.25094L10.09 2.14594C9.86033 2.01333 9.58739 1.9774 9.33121 2.04604C9.07504 2.11467 8.85662 2.28226 8.72401 2.51194L7.62001 4.42194H5.42101C5.15579 4.42194 4.90144 4.52729 4.7139 4.71483C4.52637 4.90237 4.42101 5.15672 4.42101 5.42194V7.62094L2.51101 8.72494C2.39704 8.79049 2.29715 8.87792 2.21708 8.9822C2.137 9.08648 2.07832 9.20555 2.0444 9.33258C2.01048 9.4596 2.002 9.59208 2.01944 9.72239C2.03687 9.85271 2.07989 9.97829 2.14601 10.0919L3.25001 11.9999L2.14601 13.9079C2.014 14.1377 1.97818 14.4104 2.04637 14.6664C2.11456 14.9225 2.28121 15.1412 2.51001 15.2749L4.42001 16.3789V18.5779C4.42001 18.8432 4.52537 19.0975 4.7129 19.285C4.90044 19.4726 5.15479 19.5779 5.42001 19.5779H7.62001L8.72401 21.4879C8.81254 21.6393 8.93895 21.765 9.09079 21.8526C9.24263 21.9403 9.41468 21.9869 9.59001 21.9879C9.76401 21.9879 9.93701 21.9419 10.091 21.8529L11.999 20.7489L13.909 21.8529C14.1386 21.9854 14.4114 22.0213 14.6675 21.9529C14.9236 21.8844 15.142 21.7172 15.275 21.4879L16.378 19.5779H18.577C18.8422 19.5779 19.0966 19.4726 19.2841 19.285C19.4717 19.0975 19.577 18.8432 19.577 18.5779V16.3789L21.487 15.2749C21.6008 15.2092 21.7005 15.1217 21.7804 15.0174C21.8603 14.9131 21.9189 14.794 21.9528 14.6671C21.9867 14.5401 21.9953 14.4077 21.978 14.2775C21.9607 14.1472 21.9179 14.0216 21.852 13.9079L20.749 11.9999ZM9.49901 6.98994C9.89697 6.99007 10.2786 7.14828 10.5599 7.42978C10.8412 7.71127 10.9991 8.09298 10.999 8.49094C10.9989 8.88889 10.8407 9.2705 10.5592 9.5518C10.2777 9.83311 9.89597 9.99107 9.49801 9.99094C9.10005 9.9908 8.71845 9.83259 8.43714 9.5511C8.15584 9.2696 7.99788 8.88789 7.99801 8.48994C7.99814 8.09198 8.15636 7.71037 8.43785 7.42907C8.71934 7.14776 9.10105 6.9898 9.49901 6.98994ZM9.79901 16.5899L8.19901 15.3909L14.199 7.39094L15.799 8.58994L9.79901 16.5899ZM14.499 16.9899C14.302 16.9899 14.1069 16.951 13.9248 16.8755C13.7428 16.8001 13.5774 16.6895 13.4381 16.5501C13.2989 16.4107 13.1884 16.2453 13.113 16.0632C13.0377 15.8811 12.9989 15.686 12.999 15.4889C12.9991 15.2919 13.038 15.0968 13.1134 14.9148C13.1889 14.7327 13.2995 14.5674 13.4389 14.4281C13.5782 14.2888 13.7437 14.1783 13.9258 14.103C14.1078 14.0276 14.303 13.9889 14.5 13.9889C14.898 13.9891 15.2796 14.1473 15.5609 14.4288C15.8422 14.7103 16.0001 15.092 16 15.4899C15.9999 15.8879 15.8417 16.2695 15.5602 16.5508C15.2787 16.8321 14.897 16.9901 14.499 16.9899Z" fill="white"/>
</svg>
