<svg width="32" height="32" viewBox="0 0 32 32" fill="none" xmlns="http://www.w3.org/2000/svg">
<circle cx="16" cy="16" r="16" fill="white"/>
<circle cx="16" cy="16" r="15.75" stroke="#D6D6D6" stroke-opacity="0.5" stroke-width="0.5"/>
<path d="M12.8 10.3996H19.2C19.4122 10.3996 19.6157 10.4839 19.7657 10.6339C19.9157 10.784 20 10.9874 20 11.1996V15.2172C20.2707 15.2417 20.5385 15.2913 20.8 15.3652V11.1996C20.8 10.7753 20.6314 10.3683 20.3314 10.0682C20.0313 9.76818 19.6244 9.59961 19.2 9.59961H12.8C12.3757 9.59961 11.9687 9.76818 11.6686 10.0682C11.3686 10.3683 11.2 10.7753 11.2 11.1996V20.7996C11.2 21.224 11.3686 21.6309 11.6686 21.931C11.9687 22.231 12.3757 22.3996 12.8 22.3996H16.2056C16.0019 22.1528 15.8256 21.8846 15.68 21.5996H12.8C12.5878 21.5996 12.3844 21.5153 12.2343 21.3653C12.0843 21.2153 12 21.0118 12 20.7996H15.3656C15.2916 20.5381 15.242 20.2703 15.2176 19.9996H12V11.1996C12 10.9874 12.0843 10.784 12.2343 10.6339C12.3844 10.4839 12.5878 10.3996 12.8 10.3996ZM13.6 11.1996C13.3878 11.1996 13.1844 11.2839 13.0343 11.4339C12.8843 11.584 12.8 11.7874 12.8 11.9996V12.7996C12.8 13.0118 12.8843 13.2153 13.0343 13.3653C13.1844 13.5153 13.3878 13.5996 13.6 13.5996H18.4C18.6122 13.5996 18.8157 13.5153 18.9657 13.3653C19.1157 13.2153 19.2 13.0118 19.2 12.7996V11.9996C19.2 11.7874 19.1157 11.584 18.9657 11.4339C18.8157 11.2839 18.6122 11.1996 18.4 11.1996H13.6ZM18.4 11.9996V12.7996H13.6V11.9996H18.4ZM23.2 19.5996C23.2 20.5544 22.8207 21.4701 22.1456 22.1452C21.4705 22.8203 20.5548 23.1996 19.6 23.1996C18.6452 23.1996 17.7296 22.8203 17.0544 22.1452C16.3793 21.4701 16 20.5544 16 19.5996C16 18.6448 16.3793 17.7292 17.0544 17.054C17.7296 16.3789 18.6452 15.9996 19.6 15.9996C20.5548 15.9996 21.4705 16.3789 22.1456 17.054C22.8207 17.7292 23.2 18.6448 23.2 19.5996ZM19.216 18.0268C19.1641 17.9912 19.1039 17.9697 19.0411 17.9645C18.9784 17.9593 18.9154 17.9706 18.8584 17.9972C18.8119 18.0177 18.7698 18.047 18.7344 18.0836C18.6599 18.16 18.6182 18.2625 18.6184 18.3692V20.8292C18.6179 20.8822 18.6279 20.9348 18.6478 20.984C18.6677 21.0331 18.6972 21.0779 18.7344 21.1156C18.7709 21.1519 18.8134 21.1817 18.86 21.2036C18.9412 21.2408 19.0333 21.2465 19.1184 21.2196C19.1553 21.2075 19.1903 21.1902 19.2224 21.1684L21.0592 19.9148C21.1151 19.878 21.1601 19.8269 21.1896 19.7668C21.22 19.7063 21.2356 19.6394 21.2352 19.5717C21.2348 19.504 21.2183 19.4373 21.1872 19.3772C21.1559 19.318 21.1099 19.2679 21.0536 19.2316L19.216 18.0268Z" fill="#37D2F4"/>
</svg>
