<svg width="22" height="22" viewBox="0 0 22 22" fill="none" xmlns="http://www.w3.org/2000/svg">
<path fill-rule="evenodd" clip-rule="evenodd" d="M15.4 14.3C15.4 14.905 14.905 15.4 14.3 15.4C13.695 15.4 13.2 14.905 13.2 14.3V7.7C13.2 7.095 13.695 6.6 14.3 6.6C14.905 6.6 15.4 7.095 15.4 7.7V14.3ZM8.8 14.3C8.8 14.905 8.305 15.4 7.7 15.4C7.095 15.4 6.6 14.905 6.6 14.3V7.7C6.6 7.095 7.095 6.6 7.7 6.6C8.305 6.6 8.8 7.095 8.8 7.7V14.3ZM11 0C4.9346 0 0 4.9346 0 11C0 17.0654 4.9346 22 11 22C17.0665 22 22 17.0654 22 11C22 4.9346 17.0665 0 11 0Z" fill="#37D2F4"/>
</svg>
