<svg width="32" height="32" viewBox="0 0 32 32" fill="none" xmlns="http://www.w3.org/2000/svg">
<g clip-path="url(#clip0_482_5930)">
<path d="M14.0974 19.7866C15.365 19.7866 19.324 19.7866 19.324 19.7866C20.3738 19.7866 21.2244 18.936 21.2244 17.8862C21.2244 16.8364 20.3738 15.9858 19.324 15.9858C18.3738 15.9858 16.4734 15.9858 11.7224 15.9858C6.97048 15.9858 5.46654 17.9653 3.80348 19.6284L0.78592 22.2642C0.590607 22.4341 0.477295 22.6812 0.477295 22.94V31.6998C0.477295 31.817 0.54567 31.9234 0.652107 31.9722C0.758545 32.0201 0.883545 32.0035 0.97242 31.9273L6.80448 26.9273C7.01054 26.7525 7.28398 26.6783 7.54961 26.7261L16.6375 28.3785C17.2713 28.4937 17.9246 28.3482 18.451 27.9761C18.451 27.9761 30.0515 19.9107 30.907 19.1977C31.7235 18.4487 31.7137 17.3618 30.9647 16.5453C30.2147 15.727 28.8162 15.9008 27.8836 16.5912C27.0291 17.3041 21.1912 21.141 21.1912 21.141H14.0975L14.075 21.1508C13.701 21.139 13.409 20.8256 13.4207 20.4525C13.4344 20.0785 13.7469 19.7855 14.12 19.7982L14.0974 19.7866Z" fill="#37D2F4"/>
<path d="M22.6687 -0.000488281C20.9402 -0.000488281 19.4304 0.923324 18.5955 2.30226C21.2654 3.28176 23.1795 5.84232 23.1795 8.8472C23.1795 9.06889 23.1668 9.28764 23.1463 9.50445C25.5535 9.2642 27.4334 7.23395 27.4334 4.76326C27.4334 2.13232 25.3006 -0.000488281 22.6687 -0.000488281Z" fill="#B61EEF"/>
<path d="M16.3738 7.57568H15.6228V9.08837H16.3738C16.8494 9.08837 17.2361 8.7485 17.2361 8.33156C17.2361 7.91556 16.8494 7.57568 16.3738 7.57568Z" fill="#B61EEF"/>
<path d="M16.2029 3.40186C13.1961 3.40186 10.7576 5.84035 10.7576 8.84717C10.7576 11.855 13.1961 14.2925 16.2029 14.2925C19.2097 14.2925 21.6482 11.855 21.6482 8.84717C21.6482 5.84035 19.2098 3.40186 16.2029 3.40186ZM16.3738 9.92823H15.6228V11.0288C15.6228 11.2407 15.4509 11.4116 15.24 11.4116H15.0476C14.8357 11.4116 14.6648 11.2407 14.6648 11.0288V7.11867C14.6648 6.90773 14.8357 6.73586 15.0476 6.73586H16.3738C17.3787 6.73586 18.1951 7.45167 18.1951 8.33154C18.1951 9.21242 17.3787 9.92823 16.3738 9.92823Z" fill="#B61EEF"/>
</g>
<defs>
<clipPath id="clip0_482_5930">
<rect width="32" height="32" fill="white" transform="translate(0 -0.000488281)"/>
</clipPath>
</defs>
</svg>
