<svg width="32" height="32" viewBox="0 0 32 32" fill="none" xmlns="http://www.w3.org/2000/svg">
<circle opacity="0.15" cx="16" cy="16" r="16" fill="#37D2F4"/>
<path fill-rule="evenodd" clip-rule="evenodd" d="M14.3333 9.33398H17.6666C20.8091 9.33398 22.3808 9.33398 23.3566 10.3107C24.06 11.0132 24.2566 12.0248 24.3116 13.709H7.68829C7.74329 12.0248 7.93996 11.0132 8.64329 10.3107C9.61913 9.33398 11.1908 9.33398 14.3333 9.33398ZM17.6666 22.6673H14.3333C11.1908 22.6673 9.61913 22.6673 8.64329 21.6906C7.66663 20.7148 7.66663 19.1432 7.66663 16.0007C7.66663 15.6323 7.66663 15.2857 7.66829 14.959H24.3316C24.3333 15.2857 24.3333 15.6323 24.3333 16.0007C24.3333 19.1432 24.3333 20.7148 23.3566 21.6906C22.3808 22.6673 20.8091 22.6673 17.6666 22.6673ZM11 18.709C10.8342 18.709 10.6752 18.7748 10.558 18.892C10.4408 19.0093 10.375 19.1682 10.375 19.334C10.375 19.4997 10.4408 19.6587 10.558 19.7759C10.6752 19.8931 10.8342 19.959 11 19.959H14.3333C14.4991 19.959 14.658 19.8931 14.7752 19.7759C14.8924 19.6587 14.9583 19.4997 14.9583 19.334C14.9583 19.1682 14.8924 19.0093 14.7752 18.892C14.658 18.7748 14.4991 18.709 14.3333 18.709H11ZM16.4166 18.709C16.2509 18.709 16.0919 18.7748 15.9747 18.892C15.8575 19.0093 15.7916 19.1682 15.7916 19.334C15.7916 19.4997 15.8575 19.6587 15.9747 19.7759C16.0919 19.8931 16.2509 19.959 16.4166 19.959H17.6666C17.8324 19.959 17.9914 19.8931 18.1086 19.7759C18.2258 19.6587 18.2916 19.4997 18.2916 19.334C18.2916 19.1682 18.2258 19.0093 18.1086 18.892C17.9914 18.7748 17.8324 18.709 17.6666 18.709H16.4166Z" fill="#37D2F4"/>
</svg>
