<svg width="30" height="36" viewBox="0 0 30 36" fill="none" xmlns="http://www.w3.org/2000/svg">
<g clip-path="url(#clip0_143_7962)">
<path d="M25.4494 2.80206C23.8165 0.908837 20.8648 0.097168 17.0887 0.097168H6.12931C5.7557 0.097182 5.39435 0.232769 5.11022 0.479551C4.82609 0.726334 4.63783 1.06812 4.57927 1.44347L0.0159922 30.8832C-0.0747109 31.4638 0.367203 31.9895 0.945641 31.9895H7.71158L9.4108 21.026L9.35806 21.3694C9.47912 20.5944 10.1307 20.0228 10.9022 20.0228H14.1174C20.4336 20.0228 25.3792 17.4132 26.8239 9.86402C26.8668 9.64074 26.904 9.42343 26.9361 9.21113C26.7537 9.1129 26.7537 9.1129 26.9361 9.21113C27.3663 6.42089 26.9331 4.52159 25.4494 2.80206Z" fill="#27346A"/>
<path d="M11.9997 8.20599C12.1847 8.1164 12.387 8.06997 12.5919 8.07009H21.1838C22.2012 8.07009 23.1502 8.13745 24.0174 8.27942C24.2601 8.31878 24.5015 8.36577 24.7413 8.42032C25.0812 8.49661 25.4171 8.58998 25.7479 8.70009C26.1742 8.84493 26.5713 9.0136 26.9362 9.21113C27.3663 6.41982 26.9331 4.52159 25.4494 2.80206C23.8156 0.908837 20.8648 0.097168 17.0887 0.097168H6.12838C5.3567 0.097168 4.70021 0.668638 4.57927 1.44347L0.0159928 30.8822C-0.0747103 31.4637 0.367204 31.9886 0.944704 31.9886H7.71158L11.2369 9.24784C11.2716 9.02432 11.3591 8.81271 11.492 8.63122C11.6249 8.44973 11.7991 8.3038 11.9997 8.20599Z" fill="#27346A"/>
<path d="M26.8239 9.86431C25.3792 17.4124 20.4336 20.0231 14.1173 20.0231H10.9012C10.1297 20.0231 9.47799 20.5947 9.35811 21.3697L7.24417 35.0014C7.16518 35.5094 7.55143 35.9698 8.05674 35.9698H13.7603C14.087 35.9697 14.4029 35.851 14.6513 35.6352C14.8997 35.4193 15.0642 35.1203 15.1153 34.792L15.1708 34.4964L16.2458 27.5663L16.3151 27.1833C16.3661 26.8551 16.5306 26.5561 16.779 26.3402C17.0274 26.1243 17.3433 26.0057 17.67 26.0055H18.5236C24.0486 26.0055 28.3748 23.7223 29.639 17.1188C30.1667 14.3592 29.8937 12.0552 28.4978 10.4369C28.0744 9.94668 27.5485 9.54186 26.936 9.21143C26.9028 9.4248 26.8669 9.64104 26.8239 9.86431Z" fill="#2790C3"/>
<path d="M25.424 8.59828C25.1987 8.53137 24.9714 8.47213 24.7422 8.42066C24.5023 8.367 24.2609 8.32033 24.0183 8.28071C23.1502 8.13779 22.2019 8.07032 21.1836 8.07032H12.5927C12.3877 8.06984 12.1852 8.11667 12.0005 8.20728C11.7997 8.3048 11.6253 8.45064 11.4923 8.63218C11.3594 8.81372 11.272 9.02549 11.2376 9.24914L9.41162 21.0264L9.35889 21.3697C9.479 20.5947 10.1306 20.0232 10.9022 20.0232H14.1183C20.4345 20.0232 25.3801 17.4135 26.8247 9.86436C26.8678 9.64108 26.9038 9.42473 26.937 9.21147C26.5712 9.01502 26.1752 8.84527 25.7487 8.70139C25.6411 8.6651 25.5329 8.63073 25.4241 8.59828" fill="#1F264F"/>
</g>
<defs>
<clipPath id="clip0_143_7962">
<rect width="30" height="36" fill="white"/>
</clipPath>
</defs>
</svg>
