<svg width="32" height="32" viewBox="0 0 32 32" fill="none" xmlns="http://www.w3.org/2000/svg">
<path d="M16 2.6665C8.66666 2.6665 2.66666 8.6665 2.66666 15.9998C2.66666 23.3332 8.66666 29.3332 16 29.3332C23.3333 29.3332 29.3333 23.3332 29.3333 15.9998C29.3333 8.6665 23.3333 2.6665 16 2.6665ZM11.7733 9.39984C13.08 9.39984 14.1333 10.4532 14.1333 11.7732C14.1333 13.0798 13.08 14.1332 11.7733 14.1332C10.4533 14.1332 9.39999 13.0798 9.39999 11.7732C9.39999 10.4532 10.4533 9.39984 11.7733 9.39984ZM20.2933 22.6665C18.9867 22.6665 17.9333 21.5998 17.9333 20.2932C17.9333 18.9865 18.9867 17.9332 20.2933 17.9332C21.6 17.9332 22.6667 18.9865 22.6667 20.2932C22.6667 21.5998 21.6 22.6665 20.2933 22.6665ZM11.3333 22.7065L9.33332 20.7065L20.7067 9.33317L22.7067 11.3332L11.3333 22.7065Z" fill="#37D2F4"/>
</svg>
