<svg width="32" height="32" viewBox="0 0 32 32" fill="none" xmlns="http://www.w3.org/2000/svg">
<circle cx="16" cy="16" r="16" fill="#37D2F4"/>
<path fill-rule="evenodd" clip-rule="evenodd" d="M12.3117 9.61333C12.54 9.27089 12.8493 8.9901 13.2121 8.79588C13.5749 8.60166 13.9801 8.50003 14.3917 8.5H17.6084C18.0199 8.50003 18.4251 8.60166 18.7879 8.79588C19.1508 8.9901 19.4601 9.27089 19.6884 9.61333L20.365 10.6292C20.4411 10.7433 20.5443 10.8368 20.6652 10.9015C20.7861 10.9662 20.9212 11 21.0584 11H21.8334C22.4964 11 23.1323 11.2634 23.6011 11.7322C24.07 12.2011 24.3334 12.837 24.3334 13.5V21C24.3334 21.663 24.07 22.2989 23.6011 22.7678C23.1323 23.2366 22.4964 23.5 21.8334 23.5H10.1667C9.50365 23.5 8.86776 23.2366 8.39892 22.7678C7.93008 22.2989 7.66669 21.663 7.66669 21V13.5C7.66669 12.837 7.93008 12.2011 8.39892 11.7322C8.86776 11.2634 9.50365 11 10.1667 11H10.9417C11.0788 11 11.2139 10.9662 11.3348 10.9015C11.4558 10.8368 11.5589 10.7433 11.635 10.6292L12.3117 9.61333ZM14.3334 16.8333C14.3334 16.3913 14.5089 15.9674 14.8215 15.6548C15.1341 15.3423 15.558 15.1667 16 15.1667C16.442 15.1667 16.866 15.3423 17.1785 15.6548C17.4911 15.9674 17.6667 16.3913 17.6667 16.8333C17.6667 17.2754 17.4911 17.6993 17.1785 18.0118C16.866 18.3244 16.442 18.5 16 18.5C15.558 18.5 15.1341 18.3244 14.8215 18.0118C14.5089 17.6993 14.3334 17.2754 14.3334 16.8333ZM16 13.5C15.116 13.5 14.2681 13.8512 13.643 14.4763C13.0179 15.1014 12.6667 15.9493 12.6667 16.8333C12.6667 17.7174 13.0179 18.5652 13.643 19.1904C14.2681 19.8155 15.116 20.1667 16 20.1667C16.8841 20.1667 17.7319 19.8155 18.357 19.1904C18.9822 18.5652 19.3334 17.7174 19.3334 16.8333C19.3334 15.9493 18.9822 15.1014 18.357 14.4763C17.7319 13.8512 16.8841 13.5 16 13.5Z" fill="white"/>
</svg>
