<svg width="76" height="76" viewBox="0 0 76 76" fill="none" xmlns="http://www.w3.org/2000/svg">
<circle opacity="0.15" cx="38" cy="38" r="38" fill="#37D2F4"/>
<path d="M21.3878 53.1546C21.3878 55.747 19.2863 57.8485 16.6939 57.8485C14.1015 57.8485 12 55.747 12 53.1546C12 50.5622 14.1015 48.4607 16.6939 48.4607C19.2863 48.4607 21.3878 50.5622 21.3878 53.1546Z" fill="#37D2F4"/>
<path d="M64.4754 58.8899H12.8452C12.5856 58.8899 12.3758 59.1001 12.3758 59.3593C12.3758 59.6184 12.5856 59.8287 12.8452 59.8287H64.4754C64.7349 59.8287 64.9447 59.6184 64.9447 59.3593C64.9447 59.1001 64.7349 58.8899 64.4754 58.8899Z" fill="#37D2F4"/>
<path d="M20.9632 41.7586L23.44 42.7838L26.237 43.9416C26.645 44.1102 27.0915 44.1048 27.4961 43.9272C27.9 43.7488 28.2057 43.422 28.3561 43.0068C28.6191 42.2808 28.3267 41.4701 27.6608 41.0793L24.0326 38.9495C23.3835 38.5685 23.1556 37.7518 23.5137 37.0896L23.8405 36.4857C23.9501 36.2846 24.1824 36.2046 24.3924 36.2705C24.4206 36.2793 24.4497 36.2817 24.4767 36.2963C24.705 36.4195 24.7899 36.7045 24.6665 36.9325L24.3396 37.5365C24.2233 37.7512 24.297 38.0164 24.5075 38.14L28.1356 40.2699C29.1922 40.8897 29.6561 42.1752 29.2389 43.3266C29.0001 43.9853 28.5157 44.5038 27.8747 44.7864C27.5452 44.9315 27.1977 45.0042 26.8503 45.0042C26.5211 45.0042 26.192 44.9391 25.8777 44.8091L23.4607 43.8085C23.4586 45.4161 23.3369 47.0223 23.0827 48.6117L23.0631 48.7336C23.9098 47.822 25.0381 47.1666 26.3307 46.9233C26.8497 46.8257 27.3659 46.7802 27.9551 46.7802C28.4202 46.7802 28.9369 46.8077 29.581 46.867L29.6084 46.8695L29.6355 46.8736L37.1252 48.007C36.9297 46.6067 36.827 45.1964 36.8262 43.7835L34.3484 44.8091C34.0339 44.9394 33.7044 45.0043 33.3758 45.0043C33.0279 45.0043 32.6805 44.9314 32.3508 44.7861C31.7098 44.5032 31.2254 43.985 30.987 43.3267C30.5839 42.2138 31.0093 40.9815 31.9911 40.3404L31.4682 39.4368L31.4642 39.4387C31.0244 39.6934 30.4613 39.5432 30.2069 39.1033L29.6516 38.144C29.1578 37.2909 29.4492 36.1988 30.3023 35.7049L31.2299 37.3077L32.2127 39.0055L32.7277 39.8952L35.7177 38.1399C35.9281 38.0163 36.0019 37.7511 35.8855 37.5363L35.5587 36.9324C35.4355 36.7044 35.5201 36.4194 35.7484 36.2962C35.7754 36.2815 35.8045 36.2792 35.8329 36.2702C36.0435 36.2037 36.2759 36.2847 36.3846 36.4855L36.7114 37.0894C37.0693 37.7517 36.8417 38.5684 36.1926 38.9494L32.5644 41.0792C31.8988 41.47 31.6064 42.2807 31.8695 43.007C32.0199 43.4221 32.3252 43.7488 32.7291 43.927C33.1333 44.1054 33.5808 44.1107 33.9888 43.9417L39.2625 41.7585C40.5844 41.2112 41.4242 39.9334 41.4013 38.5031C41.3949 38.1123 41.3235 37.7288 41.1891 37.364L39.2441 32.0678C38.8036 30.8691 37.9963 29.874 36.9798 29.1861C36.0117 28.5312 34.8539 28.1546 33.6376 28.1546H33.1305C32.8445 28.1777 32.5685 28.2722 32.3329 28.4386L30.6744 29.6101C30.356 29.8348 29.9308 29.8348 29.6124 29.6101L27.9539 28.4386C27.7092 28.2659 27.4211 28.1699 27.1236 28.1521C27.1191 28.1523 27.1154 28.1546 27.1111 28.1546H26.5878C25.4268 28.1546 24.32 28.4991 23.3797 29.0999C22.3007 29.7893 21.4413 30.8171 20.9817 32.0676L19.0363 37.3633C18.9019 37.73 18.8305 38.1131 18.8245 38.5025C18.8012 39.9338 19.641 41.2116 20.9631 41.7587L20.9632 41.7586Z" fill="#37D2F4"/>
<path d="M56.3018 38.9296C56.5126 38.9296 56.7043 38.7866 56.7569 38.5727L57.3303 36.2498C57.3927 35.9981 57.2386 35.7436 56.9871 35.6816C56.7373 35.6192 56.4815 35.7733 56.4191 36.0246L55.8457 38.3475C55.7833 38.5993 55.9374 38.8537 56.1889 38.9157C56.2265 38.9251 56.2646 38.9296 56.3018 38.9296Z" fill="#37D2F4"/>
<path d="M50.3647 36.2016C50.5215 36.2016 50.6745 36.1232 50.7635 35.9804L52.3082 33.5018C52.4453 33.2818 52.3784 32.9923 52.1583 32.8552C51.9379 32.7183 51.6486 32.785 51.5116 33.0055L49.9669 35.484C49.8298 35.704 49.8967 35.9935 50.1167 36.1306C50.1941 36.1787 50.28 36.2016 50.3647 36.2016Z" fill="#37D2F4"/>
<path d="M45.7089 31.6343L48.164 29.6116C48.3642 29.4465 48.3928 29.151 48.2277 28.9508C48.0636 28.7509 47.7679 28.7219 47.5673 28.8868L45.1122 30.9095C44.9119 31.0745 44.8834 31.37 45.0484 31.5703C45.1409 31.6832 45.2753 31.7412 45.411 31.7412C45.5159 31.7412 45.6213 31.7062 45.7089 31.6343Z" fill="#37D2F4"/>
<path d="M60.0994 35.5571C60.5907 35.5571 60.9885 35.4286 61.2692 35.1583C61.4632 34.9714 61.5882 34.7232 61.6546 34.4273C64.647 28.3755 63.0129 20.9034 62.4714 18.8501C62.3828 18.5147 62.1146 18.2567 61.7767 18.1783C51.6499 15.8294 47.0396 17.5966 45.6958 18.3183C45.5348 18.3815 45.3903 18.4658 45.2696 18.579C45.2659 18.5825 45.261 18.5847 45.2573 18.5884C43.7701 20.0208 46.149 24.8915 50.5705 29.4667C54.1577 33.1788 57.9876 35.557 60.0995 35.557L60.0994 35.5571ZM60.6179 34.482C60.5009 34.5945 60.2713 34.6181 60.0994 34.6181C58.4865 34.6181 54.9274 32.6246 51.2454 28.8148C47.6012 25.0438 45.7239 21.4302 45.7529 19.8095C45.7556 19.6593 45.7793 19.3886 45.908 19.2646C46.025 19.1522 46.2546 19.1285 46.4265 19.1285C48.0394 19.1285 51.5985 21.122 55.2805 24.9319C58.9247 28.7028 60.802 32.3164 60.773 33.9371C60.7702 34.0873 60.7466 34.358 60.6179 34.482Z" fill="#37D2F4"/>
<path d="M58.312 32.7293C58.4041 32.8239 58.5265 32.8717 58.649 32.8717C58.7667 32.8717 58.8846 32.8277 58.9758 32.7389C59.162 32.5586 59.1665 32.2613 58.9859 32.0751L58.071 31.1326C57.8899 30.9468 57.5929 30.9421 57.4072 31.123C57.2211 31.3033 57.2166 31.6006 57.3971 31.7868L58.312 32.7293Z" fill="#37D2F4"/>
<path d="M54.9935 29.3124L55.9088 30.2551C56.0009 30.3498 56.1234 30.3975 56.2458 30.3975C56.3635 30.3975 56.4815 30.3535 56.5726 30.2647C56.7588 30.0842 56.7633 29.7871 56.5828 29.6009L55.6675 28.6582C55.4864 28.4724 55.1893 28.4677 55.0037 28.6486C54.8175 28.8292 54.8128 29.1262 54.9935 29.3124Z" fill="#37D2F4"/>
<path d="M53.2656 26.1847C53.0845 25.9991 52.7866 25.9944 52.6018 26.1751C52.4156 26.3556 52.4111 26.6529 52.5916 26.8389L53.5069 27.7814C53.599 27.8761 53.7215 27.9238 53.8439 27.9238C53.9616 27.9238 54.08 27.8798 54.1707 27.791C54.3569 27.6105 54.3614 27.3132 54.1809 27.1272L53.2656 26.1847Z" fill="#37D2F4"/>
<path d="M50.8634 23.7111C50.6823 23.5257 50.3852 23.5206 50.1996 23.7015C50.0134 23.8818 50.0089 24.1791 50.1894 24.3653L51.1043 25.3078C51.1964 25.4024 51.3189 25.4501 51.4413 25.4501C51.559 25.4501 51.677 25.4061 51.7681 25.3174C51.9543 25.137 51.9588 24.8397 51.7783 24.6535L50.8634 23.7111Z" fill="#37D2F4"/>
<path d="M48.4611 21.2374C48.28 21.052 47.9829 21.0469 47.7973 21.2278C47.6111 21.4084 47.6066 21.7055 47.7872 21.8916L48.7024 22.8343C48.7946 22.929 48.917 22.9767 49.0394 22.9767C49.1572 22.9767 49.2751 22.9327 49.3662 22.8439C49.5524 22.6634 49.5569 22.3663 49.3764 22.1801L48.4611 21.2374Z" fill="#37D2F4"/>
<path d="M41.8867 26.3477C41.9444 26.3477 42.0031 26.3369 42.0596 26.3144L44.9602 25.1644C45.2014 25.0688 45.3191 24.7961 45.2239 24.555C45.1284 24.3136 44.8534 24.1963 44.6146 24.2917L41.714 25.4417C41.4728 25.5374 41.3551 25.81 41.4504 26.0512C41.5233 26.2354 41.7001 26.3477 41.8867 26.3477Z" fill="#37D2F4"/>
<path d="M61.3662 57.8393C62.7761 57.8393 63.9191 56.6964 63.9191 55.2865C63.9191 54.024 62.9963 52.9512 62.2758 52.7623L29.4937 47.8017C28.8929 47.7463 28.3942 47.7188 27.954 47.7188C27.4087 47.7188 26.9528 47.7612 26.5031 47.8457C24.7497 48.1756 23.3535 49.3913 22.7379 50.9775C22.5208 51.5369 22.3987 52.1412 22.395 52.7704C22.3792 55.5652 24.6405 57.8393 27.4354 57.8393H41.2972C42.0918 57.658 42.6878 56.9486 42.6878 56.0998C42.6878 55.2135 42.0259 54.4527 41.148 54.3298L29.3259 52.6764C29.0693 52.6406 28.8903 52.4034 28.9261 52.1466C28.9613 51.89 29.1976 51.7079 29.4559 51.7468L41.278 53.4002C42.6169 53.5874 43.6263 54.7481 43.6263 56.1C43.6263 56.7606 43.3897 57.367 42.9972 57.8395L61.3662 57.8393Z" fill="#37D2F4"/>
<path d="M24.5331 27.3436C25.0815 27.3242 25.9264 27.146 26.9416 26.4518C27.7781 27.2239 28.8927 27.6996 30.1211 27.6996C31.349 27.6996 32.4632 27.2243 33.2997 26.4526C34.3143 27.1463 35.159 27.3243 35.7072 27.3438C36.082 27.3571 36.3914 27.0577 36.3914 26.6828C36.3914 26.497 36.3118 26.3247 36.1758 26.1981C35.568 25.6321 34.9189 22.9484 34.7268 22.1051C34.7131 22.0446 34.7018 21.9948 34.693 21.9549C34.6783 21.889 34.6685 21.8442 34.6685 21.8442C34.6687 21.8493 34.6681 21.8542 34.6683 21.8592C34.1559 19.8223 32.3175 18.312 30.1214 18.312C27.9229 18.312 26.0829 19.8256 25.5728 21.8658C25.573 21.8586 25.5722 21.8514 25.5724 21.8441C25.5724 21.8441 25.5599 21.9032 25.5366 22.0069C25.5321 22.0274 25.5253 22.0565 25.5198 22.0806C25.335 22.895 24.6788 25.6264 24.065 26.1981C23.9291 26.3246 23.8495 26.4969 23.8495 26.6827C23.8489 27.0575 24.1584 27.3569 24.5331 27.3436ZM30.0025 20.6685C30.5175 21.2869 31.5957 22.0563 33.7613 22.1013C33.802 22.265 33.8353 22.4314 33.8537 22.6028L31.8015 23.6955C31.779 23.7076 31.7643 23.7274 31.7446 23.7422L30.7007 23.3086C30.3596 23.1672 29.9824 23.1643 29.6387 23.3012L28.4956 23.7573C28.4708 23.7363 28.4502 23.7113 28.4203 23.6953L26.3867 22.6126C26.4053 22.4342 26.4403 22.2609 26.4831 22.0907C28.1928 22.027 29.3053 21.3646 30.0025 20.6685ZM30.1209 26.7608C29.4439 26.7608 28.8103 26.5781 28.2613 26.2636V25.3231C28.2613 25.0428 28.4295 24.7946 28.6904 24.6908L29.9867 24.1735C30.1017 24.1279 30.2278 24.1283 30.3411 24.1758L31.5609 24.6826C31.8157 24.7888 31.9808 25.0354 31.9808 25.3112V26.2636C31.4316 26.5781 30.7977 26.7608 30.1209 26.7608ZM32.9194 25.5007V25.3112C32.9194 24.9507 32.798 24.6135 32.5908 24.3387L33.8107 23.6892C33.6833 24.3774 33.3677 24.9986 32.9194 25.5007ZM27.6508 24.3493C27.4436 24.6237 27.3226 24.9609 27.3226 25.3231V25.5009C26.8768 25.0016 26.5618 24.3847 26.4331 23.701L27.6508 24.3493Z" fill="#37D2F4"/>
</svg>
