<svg width="32" height="32" viewBox="0 0 32 32" fill="none" xmlns="http://www.w3.org/2000/svg">
<circle opacity="0.15" cx="16" cy="16" r="16" fill="#37D2F4"/>
<path d="M15.1666 20.167H16.8333V15.167H15.1666V20.167ZM15.9999 13.5003C16.236 13.5003 16.4341 13.4203 16.5941 13.2603C16.7541 13.1003 16.8338 12.9025 16.8333 12.667C16.8333 12.4309 16.7533 12.2328 16.5933 12.0728C16.4333 11.9128 16.2355 11.8331 15.9999 11.8337C15.7638 11.8337 15.5658 11.9137 15.4058 12.0737C15.2458 12.2337 15.166 12.4314 15.1666 12.667C15.1666 12.9031 15.2466 13.1012 15.4066 13.2612C15.5666 13.4212 15.7644 13.5009 15.9999 13.5003ZM15.9999 24.3337C14.0694 23.8475 12.4755 22.7398 11.2183 21.0103C9.96103 19.2809 9.3327 17.3609 9.33325 15.2503V10.167L15.9999 7.66699L22.6666 10.167V15.2503C22.6666 17.3614 22.038 19.2817 20.7808 21.0112C19.5235 22.7406 17.9299 23.8481 15.9999 24.3337Z" fill="#37D2F4"/>
</svg>
