<svg width="66" height="76" viewBox="0 0 66 76" fill="none" xmlns="http://www.w3.org/2000/svg">
<path d="M37.5176 49.2727L38.4268 48.2368H36.5684L37.5176 49.2727Z" fill="white"/>
<path d="M3.22705 3.23364V72.4951H42.2683V62.622C42.2712 62.1947 42.4426 61.7857 42.7451 61.4844C43.0476 61.1831 43.4567 61.0139 43.8832 61.0135H54.151V39.1734L39.7595 55.5722C39.4891 55.88 39.1572 56.1273 38.7853 56.2981C38.4133 56.469 38.0097 56.5595 37.6005 56.5638C37.1914 56.5681 36.7859 56.4861 36.4105 56.3232C36.035 56.1602 35.698 55.92 35.4212 55.618L28.6627 48.2367H9.15111V43.436H42.563V43.5262L45.4165 40.2772H9.14973V35.4752H48.0983V37.2224L54.151 30.3292V3.23364H3.22705ZM48.0983 32.3163H9.14973V27.5157H48.0983V32.3163ZM48.0983 24.3568H14.8247V19.552H48.0983V24.3568Z" fill="white"/>
<path d="M54.151 61.0136H43.8832C43.4555 61.014 43.0453 61.1842 42.7427 61.487C42.44 61.7898 42.2694 62.2005 42.2683 62.6291V72.5022H3.22703V3.23372H54.151V30.3293L57.3794 26.6546V1.61686C57.3794 1.18828 57.2096 0.77724 56.9073 0.47406C56.605 0.170879 56.195 0.000369949 55.7673 2.38692e-06H1.61352C1.40153 -0.000362931 1.19155 0.041209 0.995621 0.122334C0.799696 0.20346 0.621678 0.322543 0.471777 0.472755C0.321876 0.622967 0.203039 0.801353 0.122081 0.997685C0.0411238 1.19402 -0.00036218 1.40443 2.38198e-06 1.61686V74.1121C-0.00036218 74.3245 0.0411238 74.5349 0.122081 74.7313C0.203039 74.9276 0.321876 75.106 0.471777 75.2562C0.621678 75.4064 0.799696 75.5255 0.995621 75.6066C1.19155 75.6877 1.40153 75.7293 1.61352 75.7289H45.8952C46.3208 75.7291 46.7292 75.5606 47.0313 75.2602L52.013 70.3071H52.0199L56.9075 65.3871C57.2094 65.0843 57.3791 64.6739 57.3794 64.2459V35.4988L54.151 39.1735V61.0136ZM45.4967 72.5604V64.2404H54.0929L45.4967 72.5604Z" fill="#B61EEF"/>
<path d="M45.498 72.5535L54.0928 64.239H45.498V72.5535Z" fill="white"/>
<path d="M48.0983 19.5564H14.8247V24.3571H48.0983V19.5564Z" fill="#37D2F4"/>
<path d="M48.0984 27.5159H9.1499V32.3165H48.0984V27.5159Z" fill="#37D2F4"/>
<path d="M9.1499 35.4753V40.2774H45.4166L48.0984 37.2225V35.4753H9.1499Z" fill="#37D2F4"/>
<path d="M9.1499 43.4363V48.2369H28.6615L27.5005 46.9695L26.0724 45.4095C25.9673 45.2943 25.8978 45.1509 25.8725 44.9968C25.8472 44.8427 25.8672 44.6845 25.9299 44.5416C25.9927 44.3986 26.0955 44.277 26.226 44.1916C26.3564 44.1061 26.5089 44.0605 26.6647 44.0603L26.857 44.0839L34.2645 45.9115C34.4177 45.9504 34.5563 46.0333 34.6631 46.15L36.5741 48.2369H38.4326L42.5688 43.5223V43.4321L9.1499 43.4363Z" fill="#37D2F4"/>
<path d="M65.696 24.8076L62.5258 22.0106C62.3796 21.8808 62.191 21.8093 61.9958 21.8096H61.9446C61.8385 21.8163 61.7348 21.8444 61.6397 21.892C61.5447 21.9396 61.4601 22.0059 61.391 22.0869L57.378 26.6629L54.1496 30.3376L48.0968 37.2308L45.415 40.2814L42.5616 43.5304L38.4254 48.2451L37.5163 49.2809L36.567 48.2451L34.656 46.1581C34.5491 46.0414 34.4106 45.9585 34.2574 45.9196L26.8458 44.0837L26.6534 44.0601C26.4976 44.0603 26.3452 44.1059 26.2147 44.1914C26.0842 44.2768 25.9814 44.3984 25.9186 44.5414C25.8559 44.6843 25.836 44.8425 25.8613 44.9966C25.8866 45.1507 25.956 45.2941 26.0612 45.4093L27.4892 46.9694L28.6503 48.2368L35.4087 55.618C35.6855 55.92 36.0225 56.1603 36.398 56.3232C36.7734 56.4862 37.1789 56.5682 37.588 56.5639C37.9972 56.5595 38.4008 56.469 38.7728 56.2982C39.1447 56.1274 39.4766 55.88 39.747 55.5723L54.151 39.1735L57.3794 35.4988L65.7694 25.9419C65.8392 25.8627 65.8927 25.7705 65.9268 25.6705C65.9609 25.5706 65.9749 25.4648 65.9681 25.3594C65.9613 25.254 65.9337 25.151 65.887 25.0563C65.8404 24.9616 65.7754 24.877 65.696 24.8076Z" fill="#198754"/>
</svg>
