<svg width="32" height="32" viewBox="0 0 32 32" fill="none" xmlns="http://www.w3.org/2000/svg">
<circle opacity="0.15" cx="16" cy="16" r="16" fill="#37D2F4"/>
<g clip-path="url(#clip0_110_4439)">
<path d="M21.5556 7.11133H10.4445C10.1498 7.11133 9.86718 7.22839 9.65881 7.43676C9.45044 7.64514 9.33337 7.92775 9.33337 8.22244V23.778C9.33337 24.0727 9.45044 24.3553 9.65881 24.5637C9.86718 24.772 10.1498 24.8891 10.4445 24.8891H21.5556C21.8503 24.8891 22.1329 24.772 22.3413 24.5637C22.5496 24.3553 22.6667 24.0727 22.6667 23.778V8.22244C22.6667 7.92775 22.5496 7.64514 22.3413 7.43676C22.1329 7.22839 21.8503 7.11133 21.5556 7.11133ZM13.2223 20.4447H12.1112V19.3336H13.2223V20.4447ZM13.2223 18.2224H12.1112V17.1113H13.2223V18.2224ZM13.2223 16.0002H12.1112V14.8891H13.2223V16.0002ZM13.2223 13.778H12.1112V12.6669H13.2223V13.778ZM13.2223 11.5558H12.1112V10.4447H13.2223V11.5558ZM19.8889 20.4447H14.3334V19.3336H19.8889V20.4447ZM19.8889 18.2224H14.3334V17.1113H19.8889V18.2224ZM19.8889 16.0002H14.3334V14.8891H19.8889V16.0002ZM19.8889 13.778H14.3334V12.6669H19.8889V13.778ZM19.8889 11.5558H14.3334V10.4447H19.8889V11.5558Z" fill="#37D2F4"/>
</g>
<defs>
<clipPath id="clip0_110_4439">
<rect width="20" height="20" fill="white" transform="translate(6 6)"/>
</clipPath>
</defs>
</svg>
