<svg width="32" height="32" viewBox="0 0 32 32" fill="none" xmlns="http://www.w3.org/2000/svg">
<circle opacity="0.15" cx="16" cy="16" r="16" fill="#37D2F4"/>
<path d="M10.1667 11.417C10.8571 11.417 11.4167 10.8573 11.4167 10.167C11.4167 9.47664 10.8571 8.91699 10.1667 8.91699C9.47639 8.91699 8.91675 9.47664 8.91675 10.167C8.91675 10.8573 9.47639 11.417 10.1667 11.417Z" fill="#37D2F4" stroke="#37D2F4" stroke-linecap="round"/>
<path d="M10.1667 17.25C10.8571 17.25 11.4167 16.6904 11.4167 16C11.4167 15.3096 10.8571 14.75 10.1667 14.75C9.47639 14.75 8.91675 15.3096 8.91675 16C8.91675 16.6904 9.47639 17.25 10.1667 17.25Z" fill="#37D2F4" stroke="#37D2F4" stroke-linecap="round"/>
<path d="M10.1667 23.084C10.8571 23.084 11.4167 22.5243 11.4167 21.834C11.4167 21.1436 10.8571 20.584 10.1667 20.584C9.47639 20.584 8.91675 21.1436 8.91675 21.834C8.91675 22.5243 9.47639 23.084 10.1667 23.084Z" fill="#37D2F4" stroke="#37D2F4" stroke-linecap="round"/>
<path d="M21.8334 8.91699H15.1667C14.4764 8.91699 13.9167 9.47664 13.9167 10.167C13.9167 10.8573 14.4764 11.417 15.1667 11.417H21.8334C22.5238 11.417 23.0834 10.8573 23.0834 10.167C23.0834 9.47664 22.5238 8.91699 21.8334 8.91699Z" fill="#37D2F4" stroke="#37D2F4" stroke-linecap="round"/>
<path d="M21.8334 14.75H15.1667C14.4764 14.75 13.9167 15.3096 13.9167 16C13.9167 16.6904 14.4764 17.25 15.1667 17.25H21.8334C22.5238 17.25 23.0834 16.6904 23.0834 16C23.0834 15.3096 22.5238 14.75 21.8334 14.75Z" fill="#37D2F4" stroke="#37D2F4" stroke-linecap="round"/>
<path d="M21.8334 20.584H15.1667C14.4764 20.584 13.9167 21.1436 13.9167 21.834C13.9167 22.5243 14.4764 23.084 15.1667 23.084H21.8334C22.5238 23.084 23.0834 22.5243 23.0834 21.834C23.0834 21.1436 22.5238 20.584 21.8334 20.584Z" fill="#37D2F4" stroke="#37D2F4" stroke-linecap="round"/>
</svg>
