<svg width="32" height="32" viewBox="0 0 32 32" fill="none" xmlns="http://www.w3.org/2000/svg">
<circle opacity="0.15" cx="16" cy="16" r="16" fill="#37D2F4"/>
<path d="M21 19.3998C20.3667 19.3998 19.8 19.6498 19.3667 20.0415L13.425 16.5832C13.4667 16.3915 13.5 16.1998 13.5 15.9998C13.5 15.7998 13.4667 15.6082 13.425 15.4165L19.3 11.9915C19.75 12.4082 20.3417 12.6665 21 12.6665C22.3833 12.6665 23.5 11.5498 23.5 10.1665C23.5 8.78317 22.3833 7.6665 21 7.6665C19.6167 7.6665 18.5 8.78317 18.5 10.1665C18.5 10.3665 18.5333 10.5582 18.575 10.7498L12.7 14.1748C12.25 13.7582 11.6583 13.4998 11 13.4998C9.61667 13.4998 8.5 14.6165 8.5 15.9998C8.5 17.3832 9.61667 18.4998 11 18.4998C11.6583 18.4998 12.25 18.2415 12.7 17.8248L18.6333 21.2915C18.5917 21.4665 18.5667 21.6498 18.5667 21.8332C18.5667 23.1748 19.6583 24.2665 21 24.2665C22.3417 24.2665 23.4333 23.1748 23.4333 21.8332C23.4333 20.4915 22.3417 19.3998 21 19.3998Z" fill="#37D2F4"/>
</svg>
