<svg width="40" height="40" viewBox="0 0 40 40" fill="none" xmlns="http://www.w3.org/2000/svg">
<circle opacity="0.15" cx="20" cy="20" r="20" fill="#37D2F4"/>
<path d="M30.9439 25.6834C30.7304 26.1886 29.8269 26.5605 28.1822 26.8194C28.0717 27.1452 27.9825 27.4781 27.9153 27.8158C27.8892 27.9272 27.8247 28.0255 27.7336 28.0931C27.6424 28.1606 27.5305 28.1931 27.4179 28.1845H27.4055C27.0187 28.1845 26.618 28.0049 25.8127 28.0049C24.9632 27.9727 24.1351 28.2801 23.5067 28.8608C22.6637 29.5994 21.5859 30.0039 20.4719 30C19.3757 29.9846 18.3191 29.5817 17.4843 28.8608C16.8561 28.2797 16.0279 27.9723 15.1783 28.0049C14.6444 28.0423 14.1127 28.1078 13.5855 28.201C13.4705 28.2097 13.3562 28.1767 13.263 28.1079C13.1697 28.039 13.1036 27.9389 13.0765 27.8252C13.0096 27.485 12.9202 27.1498 12.8088 26.8218C11.9579 26.6884 10.0494 26.351 10.0007 25.488C9.99466 25.3793 10.0284 25.2722 10.0956 25.1872C10.1627 25.1022 10.2584 25.0453 10.3643 25.0275C13.2172 24.5513 14.5022 21.5802 14.5555 21.4547L14.5656 21.4335C14.6369 21.3186 14.6829 21.1894 14.7004 21.0548C14.7179 20.9202 14.7065 20.7834 14.6669 20.6537C14.4596 20.1594 13.5654 19.9813 13.1886 19.8307C12.2162 19.4384 12.0809 18.9936 12.1389 18.6868C12.186 18.5544 12.2584 18.4328 12.3519 18.3288C12.4454 18.2248 12.5583 18.1406 12.6839 18.0809C12.8096 18.0212 12.9457 17.9872 13.0843 17.981C13.2229 17.9747 13.3614 17.9962 13.4919 18.0443C13.7914 18.2009 14.1207 18.2903 14.4573 18.3063C14.5988 18.3118 14.7393 18.2807 14.8658 18.2161C14.7822 16.7254 14.5749 14.5868 15.0978 13.3943C15.5377 12.375 16.2639 11.5097 17.1856 10.9062C18.1073 10.3028 19.1838 9.98801 20.2808 10.0011H20.6955C21.7949 9.97902 22.876 10.2888 23.8015 10.8912C24.7269 11.4935 25.455 12.3612 25.8932 13.3841C26.4169 14.575 26.2111 16.7019 26.1253 18.2075C26.2346 18.2639 26.3553 18.2943 26.478 18.2961C26.7935 18.2694 27.1008 18.181 27.3831 18.0356C27.6521 17.9242 27.9535 17.9242 28.2224 18.0356C28.391 18.0785 28.5426 18.1727 28.6568 18.3055C28.7711 18.4383 28.8425 18.6034 28.8614 18.7786C28.8692 19.1842 28.5118 19.5341 27.8001 19.8189C27.7134 19.8534 27.6074 19.888 27.4953 19.924C27.0938 20.0535 26.4896 20.2488 26.3218 20.6419C26.2821 20.7716 26.2705 20.9084 26.2879 21.043C26.3052 21.1776 26.3511 21.3068 26.4223 21.4217C26.4223 21.4288 26.4293 21.4359 26.4324 21.4429C26.4858 21.5692 27.7699 24.5387 30.6236 25.0157C30.6946 25.0273 30.7617 25.056 30.8194 25.0994C30.877 25.1428 30.9235 25.1996 30.9549 25.2651C30.9864 25.3306 31.0018 25.4028 30.9998 25.4756C30.9979 25.5484 30.9787 25.6197 30.9439 25.6834Z" fill="#37D2F4"/>
</svg>
