<svg width="80" height="80" viewBox="0 0 80 80" fill="none" xmlns="http://www.w3.org/2000/svg">
<circle opacity="0.15" cx="40" cy="40" r="40" fill="#37D2F4"/>
<path d="M54.0775 30.6869L33.6941 16.016C33.1748 15.6265 32.4607 15.7564 32.1361 16.2757C31.8116 16.795 31.8765 17.5091 32.3958 17.8336L40.64 23.8058L31.1624 37.1135L22.7234 32.7642C22.1392 32.5045 21.49 32.6992 21.1655 33.2835C20.9058 33.8677 21.1005 34.5169 21.6848 34.8414L39.4716 43.9296C39.0172 44.9682 38.4329 46.7859 38.1083 49.1228C38.0434 49.6421 37.9785 50.1614 37.9136 50.6808C37.7189 53.8616 38.0434 57.8214 39.7961 62.3006C39.9909 62.755 40.3804 63.0147 40.8348 63.0147C40.9646 63.0147 41.0944 63.0147 41.2243 62.9497C41.8085 62.6901 42.0682 62.0409 41.8734 61.4567C40.64 58.4057 40.1856 55.5494 40.1207 53.0826H53.4933V62.0409C53.4933 62.6901 54.0126 63.2094 54.6617 63.2094C55.3109 63.2094 55.8302 62.6901 55.8302 62.0409V50.7457V49.4474C55.8951 49.3825 55.8951 49.2526 55.96 49.1877C56.5443 48.0192 57.7777 45.2928 58.1022 41.6575C58.1672 41.0084 58.9461 34.1274 54.0775 30.6869ZM33.3046 38.1521L42.5226 25.1042L43.8858 26.0779L34.7977 38.9311L33.3046 38.1521ZM53.5582 49.1228V50.7457H40.2505C40.3155 50.1614 40.3804 49.5772 40.4453 49.0579L53.5582 49.1228ZM55.8302 41.3979V41.4628C55.8302 41.7225 55.7653 42.047 55.7653 42.3067C55.7653 42.3716 55.7653 42.4365 55.7653 42.5014C55.7653 42.6962 55.7004 42.8909 55.7004 43.0857C55.7004 43.1506 55.7004 43.2155 55.6355 43.2804C55.5705 43.4752 55.5705 43.6699 55.5056 43.8647C55.5056 43.9296 55.5056 43.9296 55.5056 43.9945C55.4407 44.1892 55.3758 44.384 55.3758 44.5787C55.3758 44.6436 55.3758 44.6436 55.3758 44.7086C51.416 44.1892 48.3 40.8136 48.3 36.6591C48.3 34.387 49.2089 32.3747 50.7019 30.9465L52.8441 32.5045C56.6092 35.2959 55.8302 41.333 55.8302 41.3979Z" fill="#37D2F4"/>
</svg>
