<svg width="32" height="32" viewBox="0 0 32 32" fill="none" xmlns="http://www.w3.org/2000/svg">
<circle opacity="0.15" cx="16" cy="16" r="16" fill="#37D2F4"/>
<g clip-path="url(#clip0_1203_8271)">
<path fill-rule="evenodd" clip-rule="evenodd" d="M21 7.66602C21.6631 7.66602 22.2989 7.92941 22.7678 8.39825C23.2366 8.86709 23.5 9.50297 23.5 10.166V20.9994C23.5 21.6624 23.2366 22.2983 22.7678 22.7671C22.2989 23.236 21.6631 23.4994 21 23.4994H18.5V18.4994C18.5 17.8363 18.2366 17.2004 17.7678 16.7316C17.2989 16.2627 16.6631 15.9993 16 15.9993H15.1667C14.5036 15.9993 13.8678 16.2627 13.3989 16.7316C12.9301 17.2004 12.6667 17.8363 12.6667 18.4994V23.4994H10.1667C9.50365 23.4994 8.86776 23.236 8.39892 22.7671C7.93008 22.2983 7.66669 21.6624 7.66669 20.9994V10.166C7.66669 9.50297 7.93008 8.86709 8.39892 8.39825C8.86776 7.92941 9.50365 7.66602 10.1667 7.66602H21ZM16 17.666C16.2041 17.666 16.4011 17.741 16.5537 17.8766C16.7062 18.0122 16.8036 18.1991 16.8275 18.4019L16.8334 18.4994V23.4994H14.3334V18.4994C14.3334 18.2952 14.4083 18.0982 14.544 17.9457C14.6796 17.7932 14.8665 17.6957 15.0692 17.6719L15.1667 17.666H16ZM21 9.33268H10.1667C9.96258 9.33271 9.76557 9.40765 9.61304 9.54328C9.46051 9.67891 9.36307 9.86581 9.33919 10.0685L9.33335 10.166V10.9993C9.33258 11.4063 9.48072 11.7995 9.74985 12.1047C10.019 12.41 10.3905 12.6062 10.7943 12.6564C11.1982 12.7067 11.6064 12.6074 11.9421 12.3774C12.2778 12.1473 12.5178 11.8024 12.6167 11.4077L12.6434 11.2785C12.6738 11.0965 12.7638 10.9298 12.8993 10.8045C13.0347 10.6791 13.2079 10.6023 13.3917 10.586L13.5 10.5827C13.7041 10.5827 13.9011 10.6576 14.0537 10.7933C14.2062 10.9289 14.3036 11.1158 14.3275 11.3185L14.3334 11.416C14.3335 11.737 14.4572 12.0457 14.6787 12.278C14.9002 12.5103 15.2026 12.6485 15.5233 12.664C15.8439 12.6794 16.1582 12.5709 16.401 12.3609C16.6438 12.1509 16.7965 11.8555 16.8275 11.536L16.8334 11.416C16.8334 11.2119 16.9083 11.0149 17.044 10.8624C17.1796 10.7098 17.3665 10.6124 17.5692 10.5885L17.6817 10.5827C17.8657 10.5784 18.046 10.6352 18.1943 10.7442C18.3427 10.8532 18.4507 11.0083 18.5017 11.1852L18.5234 11.2785C18.5909 11.6804 18.8034 12.0436 19.1207 12.2995C19.4379 12.5553 19.8379 12.6861 20.245 12.667C20.6521 12.6479 21.0381 12.4803 21.33 12.1959C21.6219 11.9115 21.7995 11.53 21.8292 11.1235L21.8334 10.9993V10.166C21.8333 9.9619 21.7584 9.7649 21.6228 9.61237C21.4871 9.45984 21.3002 9.3624 21.0975 9.33852L21 9.33268Z" fill="#37D2F4"/>
</g>
<defs>
<clipPath id="clip0_1203_8271">
<rect width="20" height="20" fill="white" transform="translate(6 6)"/>
</clipPath>
</defs>
</svg>
