<svg version="1.1" id="Layer_1" xmlns="http://www.w3.org/2000/svg" xmlns:xlink="http://www.w3.org/1999/xlink" x="0px" y="0px"
	 width="100%" viewBox="0 0 256 240" enable-background="new 0 0 256 240" xml:space="preserve">
<path fill="#000000" opacity="1.000000" stroke="none" 
	d="
M164.343201,169.983704 
	C131.744827,157.830338 120.879051,120.868065 141.936417,94.934372 
	C153.595993,80.574745 173.592361,74.384392 191.516968,79.585526 
	C210.055786,84.964905 222.860504,100.470398 225.459229,119.331467 
	C229.866028,151.314880 198.492981,180.220703 164.343201,169.983704 
z"/>
<path fill="#000000" opacity="1.000000" stroke="none" 
	d="
M50.435646,84.317169 
	C67.095924,75.351181 83.515221,75.345039 99.081970,85.355934 
	C114.886230,95.519569 122.465218,110.669792 121.172859,129.489807 
	C120.140686,144.521027 111.217110,155.176865 99.738457,164.000427 
	C97.809441,165.483246 96.166885,165.143417 94.381104,163.665756 
	C73.350075,146.263565 52.307186,128.875580 31.215755,111.546722 
	C28.777040,109.543053 29.498468,107.624344 30.613491,105.392395 
	C35.057476,96.496796 41.737301,89.713112 50.435646,84.317169 
z"/>
</svg>