<svg width="40" height="40" viewBox="0 0 40 40" fill="none" xmlns="http://www.w3.org/2000/svg">
<circle opacity="0.15" cx="20" cy="20" r="20" fill="#37D2F4"/>
<path d="M28.0443 15.9865C28.0566 16.1615 28.0566 16.3366 28.0566 16.5116C28.0667 18.0232 27.7871 19.5219 27.2339 20.9205C26.6808 22.319 25.8651 23.5897 24.8344 24.6585C23.8037 25.7274 22.5785 26.5732 21.2299 27.1468C19.8813 27.7204 18.4363 28.0103 16.9787 27.9997C14.8591 28.0055 12.783 27.3762 11 26.1874C11.3121 26.223 11.626 26.2396 11.9399 26.2372C13.6922 26.2419 15.395 25.6343 16.7736 24.5124C15.9614 24.4969 15.1741 24.2187 14.5218 23.7168C13.8694 23.2148 13.3844 22.5141 13.1346 21.7125C13.3779 21.7524 13.6238 21.7734 13.8701 21.7751C14.2158 21.7741 14.5599 21.728 14.8945 21.6378C14.013 21.4525 13.2206 20.9565 12.6518 20.234C12.083 19.5115 11.773 18.607 11.7742 17.6743V17.6245C12.3138 17.9367 12.9168 18.1122 13.5341 18.1368C12.7073 17.5658 12.1218 16.689 11.8972 15.6854C11.6726 14.6819 11.8258 13.6272 12.3255 12.7369C13.3036 13.9851 14.5237 15.0062 15.9067 15.7339C17.2897 16.4617 18.8048 16.8798 20.3537 16.9613C20.2911 16.6572 20.2586 16.3472 20.2569 16.0363C20.2579 15.2268 20.4932 14.4362 20.9325 13.7671C21.3717 13.0979 21.9946 12.581 22.7204 12.2833C23.4463 11.9855 24.2416 11.9207 25.0034 12.0972C25.7651 12.2738 26.4582 12.6834 26.9928 13.2732C27.8649 13.0992 28.7011 12.7694 29.4642 12.2984C29.1746 13.2314 28.5667 14.0228 27.7547 14.5243C28.529 14.4334 29.2858 14.2229 30 13.8996C29.467 14.7044 28.8068 15.4102 28.0473 15.9873L28.0443 15.9865Z" fill="#37D2F4"/>
</svg>
