<svg width="56" height="17" viewBox="0 0 56 17" fill="none" xmlns="http://www.w3.org/2000/svg">
<g clip-path="url(#clip0_143_7975)">
<path d="M28.9618 5.41309C28.9299 7.77179 31.2069 9.08796 32.9221 9.87057C34.6843 10.6735 35.2763 11.1884 35.2693 11.9065C35.2562 13.0053 33.8636 13.4903 32.5605 13.5092C30.287 13.5422 28.9651 12.9345 27.9142 12.4749L27.0952 16.0631C28.1496 16.518 30.102 16.9147 32.1265 16.9321C36.8788 16.9321 39.9879 14.7356 40.0048 11.3301C40.0234 7.00802 33.6199 6.76879 33.6637 4.83694C33.6788 4.25115 34.2757 3.62605 35.5838 3.46711C36.2313 3.38682 38.0187 3.32537 40.0452 4.19913L40.8406 0.727444C39.7508 0.355902 38.3502 0.0001297 36.6063 0.0001297C32.1333 0.0001297 28.9872 2.22651 28.9618 5.41309ZM48.4833 0.299166C47.6155 0.299166 46.8843 0.773117 46.5579 1.50043L39.7694 16.6771H44.5182L45.4632 14.2318H51.2663L51.8144 16.6771H56L52.3475 0.299166H48.4833ZM49.1477 4.72347L50.5181 10.8736H46.7648L49.1477 4.72347ZM23.2041 0.299372L19.4609 16.6769H23.9862L27.7277 0.298962H23.2041M16.5097 0.298962L11.7996 11.4467L9.89428 1.96824C9.67072 0.910143 8.78784 0.299166 7.80741 0.299166H0.107844L0 0.774755C1.58069 1.09591 3.37663 1.6139 4.46469 2.16814C5.13056 2.50671 5.32044 2.80267 5.53919 3.6072L9.14791 16.6771H13.93L21.2616 0.299166L16.5097 0.298962Z" fill="url(#paint0_linear_143_7975)"/>
</g>
<defs>
<linearGradient id="paint0_linear_143_7975" x1="2574.54" y1="50.8977" x2="2620.44" y2="-1688.21" gradientUnits="userSpaceOnUse">
<stop stop-color="#222357"/>
<stop offset="1" stop-color="#254AA5"/>
</linearGradient>
<clipPath id="clip0_143_7975">
<rect width="56" height="17" fill="white"/>
</clipPath>
</defs>
</svg>
