<svg width="32" height="32" viewBox="0 0 32 32" fill="none" xmlns="http://www.w3.org/2000/svg">
<circle opacity="0.15" cx="16" cy="16" r="16" fill="#37D2F4"/>
<path d="M21.0001 9.33203H11.0001C9.15841 9.33203 7.66675 10.8237 7.66675 12.6654V19.332C7.66675 21.1737 9.15841 22.6654 11.0001 22.6654H21.0001C22.8417 22.6654 24.3334 21.1737 24.3334 19.332V12.6654C24.3334 10.8237 22.8417 9.33203 21.0001 9.33203ZM19.4501 17.4737C19.2501 17.6404 18.9751 17.707 18.7167 17.6404L9.45841 15.3737C9.70841 14.7654 10.3001 14.332 11.0001 14.332H21.0001C21.5584 14.332 22.0501 14.6154 22.3584 15.032L19.4501 17.4737ZM11.0001 10.9987H21.0001C21.9167 10.9987 22.6667 11.7487 22.6667 12.6654V13.1237C22.1751 12.8404 21.6084 12.6654 21.0001 12.6654H11.0001C10.3917 12.6654 9.82508 12.8404 9.33341 13.1237V12.6654C9.33341 11.7487 10.0834 10.9987 11.0001 10.9987Z" fill="#37D2F4"/>
</svg>
