<svg width="32" height="32" viewBox="0 0 32 32" fill="none" xmlns="http://www.w3.org/2000/svg">
<circle opacity="0.15" cx="16" cy="16" r="16" fill="#37D2F4"/>
<path d="M6.625 19.75C6.62552 20.2471 6.82323 20.7237 7.17475 21.0753C7.52626 21.4268 8.00288 21.6245 8.5 21.625H13.7297L13.5734 22.875H11.625C11.4592 22.875 11.3003 22.9408 11.1831 23.0581C11.0658 23.1753 11 23.3342 11 23.5C11 23.6658 11.0658 23.8247 11.1831 23.9419C11.3003 24.0592 11.4592 24.125 11.625 24.125H20.375C20.5408 24.125 20.6997 24.0592 20.8169 23.9419C20.9342 23.8247 21 23.6658 21 23.5C21 23.3342 20.9342 23.1753 20.8169 23.0581C20.6997 22.9408 20.5408 22.875 20.375 22.875H18.4266L18.2703 21.625H23.5C23.9971 21.6245 24.4737 21.4268 24.8253 21.0753C25.1768 20.7237 25.3745 20.2471 25.375 19.75V17.875H6.625V19.75ZM16 19.125C16.1236 19.125 16.2445 19.1617 16.3472 19.2303C16.45 19.299 16.5301 19.3966 16.5774 19.5108C16.6247 19.625 16.6371 19.7507 16.613 19.8719C16.5889 19.9932 16.5294 20.1045 16.4419 20.1919C16.3545 20.2794 16.2432 20.3389 16.1219 20.363C16.0007 20.3871 15.875 20.3747 15.7608 20.3274C15.6466 20.2801 15.549 20.2 15.4803 20.0972C15.4117 19.9945 15.375 19.8736 15.375 19.75C15.375 19.5842 15.4408 19.4253 15.5581 19.3081C15.6753 19.1908 15.8342 19.125 16 19.125ZM25.375 9.75C25.3745 9.25288 25.1768 8.77626 24.8253 8.42475C24.4737 8.07323 23.9971 7.87552 23.5 7.875H8.5C8.00288 7.87552 7.52626 8.07323 7.17475 8.42475C6.82323 8.77626 6.62552 9.25288 6.625 9.75V17.25H25.375V9.75Z" fill="#37D2F4"/>
</svg>
