<svg width="40" height="40" viewBox="0 0 40 40" fill="none" xmlns="http://www.w3.org/2000/svg">
<circle opacity="0.15" cx="20" cy="20" r="20" fill="#37D2F4"/>
<path d="M20.218 8.00009C17.1053 7.98811 14.1153 9.21309 11.9057 11.4056C9.69621 13.598 8.44808 16.5784 8.43592 19.6911C8.43218 21.8204 9.01606 23.9094 10.1233 25.7281L8 32L14.5232 29.9279C16.3122 30.909 18.3249 31.4096 20.365 31.3808C22.4051 31.3521 24.4029 30.7949 26.1635 29.7637C27.924 28.7324 29.3872 27.2624 30.4101 25.4971C31.433 23.7317 31.9808 21.7313 32 19.6911C31.9878 16.5784 30.7397 13.598 28.5302 11.4056C26.3206 9.21309 23.3307 7.98811 20.218 8.00009ZM26.0765 24.1309C25.8433 24.488 25.5376 24.7922 25.1793 25.0236C24.821 25.255 24.418 25.4085 23.9965 25.4742C23.4436 25.5037 23.428 25.9023 20.4156 24.5937C17.4031 23.285 15.5909 20.1019 15.4488 19.8973C14.7796 18.985 14.393 17.8963 14.3369 16.7662C14.3466 16.3005 14.4536 15.8421 14.6511 15.4203C14.8486 14.9985 15.1321 14.6227 15.4835 14.317C15.59 14.2082 15.7169 14.1216 15.857 14.0621C15.9971 14.0026 16.1476 13.9714 16.2999 13.9704C16.5373 13.9704 16.6907 13.9634 16.8666 13.9704C17.0426 13.9773 17.3052 13.934 17.534 14.5406C17.7628 15.1473 18.3079 16.6379 18.3772 16.7939C18.4212 16.8733 18.4448 16.9624 18.4457 17.0532C18.4466 17.144 18.4248 17.2336 18.3824 17.3139C18.2998 17.4903 18.1924 17.654 18.0635 17.8001C17.9066 17.9691 17.7324 18.1771 17.5929 18.3062C17.436 18.4492 17.2731 18.6043 17.4378 18.9128C17.8597 19.6976 18.3956 20.4155 19.0281 21.043C19.7185 21.6984 20.5176 22.2289 21.3897 22.6108C21.6852 22.772 21.8611 22.7538 22.0448 22.5614C22.2286 22.369 22.8248 21.7182 23.0415 21.427C23.2582 21.1358 23.4523 21.193 23.7244 21.3022C23.9965 21.4114 25.4473 22.1887 25.7428 22.3499C26.0383 22.5111 26.2351 22.5926 26.3061 22.72C26.3701 23.2026 26.2902 23.6934 26.0765 24.1309Z" fill="#37D2F4"/>
</svg>
