<svg width="76" height="76" viewBox="0 0 76 76" fill="none" xmlns="http://www.w3.org/2000/svg">
<circle opacity="0.15" cx="38" cy="38" r="38" fill="#37D2F4"/>
<path d="M57 52.956V60.6261C56.9997 60.7252 56.9611 60.8201 56.8926 60.8902C56.8242 60.9602 56.7314 60.9997 56.6346 61H19.3655C19.2686 60.9997 19.1758 60.9602 19.1074 60.8902C19.0389 60.8201 19.0003 60.7252 19 60.6261V52.956C19.0059 51.3524 19.5917 49.8077 20.6446 48.6197C21.6974 47.4317 23.1428 46.6843 24.7022 46.5217C25.6957 46.4157 26.6811 46.2414 27.6518 46C27.3991 47.1602 27.2863 48.3477 27.3158 49.536C27.3306 49.7664 27.4148 49.9865 27.5569 50.1659C27.6989 50.3454 27.8918 50.4755 28.1091 50.5382C28.2074 50.5682 28.3095 50.5834 28.4122 50.5834C28.5872 50.5826 28.7596 50.5395 28.9153 50.4576C29.0709 50.3757 29.2055 50.2573 29.308 50.1121C30.1569 48.8868 31.0727 47.7113 32.0508 46.5913C32.1514 46.4757 32.2743 46.3829 32.4119 46.3188C32.5494 46.2546 32.6985 46.2205 32.8497 46.2185H32.8899C33.036 46.2187 33.1805 46.2489 33.315 46.3073C33.4494 46.3658 33.5709 46.4513 33.6724 46.5588C33.7999 46.6933 33.9279 46.8243 34.0452 46.9518L34.0594 46.9663C35.5217 48.5372 36.9875 50.4518 37.1156 50.6182L37.1377 50.6483C37.24 50.7823 37.3709 50.8907 37.5203 50.9652C37.6697 51.0397 37.8338 51.0784 38 51.0784C38.1662 51.0784 38.3303 51.0397 38.4797 50.9652C38.6291 50.8907 38.76 50.7823 38.8624 50.6483L38.8844 50.6182C39.0125 50.4536 40.4346 48.5894 41.8636 47.0434L41.8709 47.0359C41.8958 47.0139 41.9191 46.99 41.9406 46.9646C42.0721 46.8225 42.2001 46.6915 42.3316 46.5588C42.432 46.451 42.5528 46.3653 42.6866 46.3068C42.8205 46.2483 42.9645 46.2183 43.1101 46.2185H43.156C43.3069 46.2207 43.4558 46.2551 43.5931 46.3195C43.7303 46.3839 43.853 46.4768 43.9532 46.5924C44.9296 47.7105 45.8436 48.8841 46.6909 50.1075C46.7923 50.255 46.927 50.3752 47.0835 50.458C47.2401 50.5408 47.4139 50.5836 47.5901 50.5828C47.6941 50.5831 47.7975 50.5679 47.8972 50.5376C48.1148 50.4715 48.3073 50.3385 48.4485 50.1566C48.5897 49.9747 48.6728 49.7527 48.6864 49.5209C48.7155 48.3382 48.6027 47.1563 48.3505 46.0017C49.3211 46.2431 50.3066 46.4174 51.3001 46.5234C52.8588 46.6866 54.3034 47.4339 55.3557 48.6215C56.408 49.8091 56.9937 51.353 57 52.956Z" fill="#37D2F4"/>
<path d="M38.8637 43.8697C39.2799 44.4051 39.6593 44.9619 40 45.537C39.8352 45.4946 39.6636 45.4763 39.492 45.4828C39.2572 45.4874 39.026 45.5345 38.8128 45.6211C38.5997 45.7077 38.4091 45.832 38.253 45.9861C37.318 46.9048 36.4426 47.8689 35.6309 48.874C35.5894 48.9246 35.5312 48.9628 35.4641 48.9832C35.397 49.0037 35.3244 49.0055 35.2561 48.9884C35.1878 48.9712 35.1272 48.9361 35.0825 48.8876C35.0379 48.8391 35.0113 48.7797 35.0064 48.7175C35.0032 48.6572 34.6601 42.9697 39.468 41C39.439 41.6317 39.2198 42.2454 38.8329 42.7786C38.7107 42.9304 38.6443 43.1114 38.6425 43.2973C38.6407 43.4832 38.7036 43.6651 38.8228 43.8188L38.8605 43.8655L38.8637 43.8697Z" fill="#37D2F4"/>
<path d="M39.9936 48.7169C39.9892 48.7794 39.9627 48.8391 39.9178 48.8878C39.8729 48.9364 39.8118 48.9716 39.743 48.9883C39.7131 48.9965 39.6818 49.0004 39.6505 49C39.5954 49.0003 39.5411 48.989 39.4921 48.967C39.4431 48.9449 39.4009 48.9128 39.369 48.8734C38.5574 47.8686 37.682 46.9047 36.747 45.9864C36.5909 45.8323 36.4003 45.708 36.1872 45.6215C35.974 45.5349 35.7428 45.4879 35.508 45.4832C35.3364 45.4768 35.1648 45.4951 35 45.5374C35.3408 44.9626 35.7203 44.406 36.1363 43.8706L36.1395 43.8646L36.1772 43.8179C36.2964 43.6643 36.3593 43.4824 36.3575 43.2965C36.3557 43.1107 36.2893 42.9297 36.1671 42.778C35.7817 42.2444 35.5626 41.6313 35.532 41C40.3399 42.9728 39.9968 48.6561 39.9936 48.7169Z" fill="#37D2F4"/>
<path d="M42.9404 43.855C42.2755 44.8734 41.7122 45.9629 41.2597 47.1057C41.2444 47.151 41.2198 47.192 41.1877 47.2258C39.7426 48.8401 38.2838 50.8367 38.2706 50.8587C38.2387 50.9026 38.1978 50.9382 38.151 50.9627C38.1042 50.9873 38.0527 51 38.0005 51C37.9483 51 37.8969 50.9873 37.8501 50.9627C37.8032 50.9382 37.7623 50.9026 37.7305 50.8587C37.7172 50.8367 36.2584 48.8401 34.8134 47.2258C34.7812 47.192 34.7566 47.151 34.7414 47.1057C34.2888 45.9629 33.7256 44.8734 33.0607 43.855C33.0205 43.7927 32.9994 43.7188 33 43.6433C33.0007 43.5678 33.0232 43.4943 33.0644 43.4328C33.5067 42.7038 33.766 41.8662 33.8174 41C35.0006 42.019 36.4764 42.5749 37.9984 42.5749C39.5204 42.5749 40.9962 42.019 42.1794 41C42.2314 41.8664 42.4914 42.704 42.9345 43.4328C42.9761 43.494 42.9989 43.5674 43 43.6429C43.001 43.7185 42.9802 43.7925 42.9404 43.855Z" fill="#37D2F4"/>
<path d="M37.5943 28.1723C37.4606 28.051 37.3009 27.9909 37.1393 28.0011C37.2021 28.6498 37.2342 29.303 37.2354 29.957C37.2356 30.9794 37.1567 31.9991 37 33C38.0255 31.9312 37.9937 29.681 37.9929 29.6554C38.0137 29.3843 37.9887 29.1105 37.9197 28.8539C37.8508 28.5973 37.7396 28.3644 37.5943 28.1723Z" fill="#37D2F4"/>
<path d="M44.8588 27.2965C41.7651 26.75 40.35 23.0118 40.0205 22.0018C38.2494 21.9623 36.522 22.5633 35.1464 23.6978C32.3149 25.9614 30.5832 30.1699 30 36.2075C31.5541 39.2095 34.0584 41 36.7084 41C41.2789 41 45 35.8038 45 29.4172C44.9984 28.7079 44.9512 27.9995 44.8588 27.2965Z" fill="#37D2F4"/>
<path d="M45.5193 17.4992C44.7467 16.5967 43.7652 15.8974 42.6606 15.4622C41.3071 14.9238 39.8128 14.8537 38.4149 15.2629C38.1425 15.344 37.8525 15.344 37.5801 15.2629C36.1834 14.8537 34.6902 14.9238 33.3379 15.4622C32.2322 15.8972 31.2496 16.5966 30.4757 17.4992C24.8267 23.8762 26.1069 33.3958 26.1622 33.7869C26.607 37.7729 28.3292 39.7739 29.9402 40.7796C30.585 40.1409 31.3355 39.6192 32.1586 39.2377L32.2361 39.2012C31.4024 38.3598 30.7059 37.3924 30.1723 36.3344C30.1457 36.2813 30.1318 36.2226 30.1318 36.1631C30.1317 36.1514 30.1328 36.1397 30.1353 36.1283C30.7386 29.7952 32.6039 25.3632 35.6794 22.9539C37.2814 21.623 39.3381 20.9694 41.4134 21.1317C41.4831 21.143 41.5482 21.174 41.601 21.2211C41.6538 21.2681 41.6922 21.3292 41.7116 21.3972C41.7265 21.4412 43.0694 26.0536 46.3142 26.4551C46.5736 26.3942 46.8427 26.3876 47.1047 26.4357C47.3668 26.4839 47.616 26.5857 47.8369 26.7349C48.3997 27.1404 48.6923 27.881 48.7202 28.9346C48.7236 29.078 48.7898 32.4752 46.2994 33.6099C45.7495 35.7091 44.673 37.6328 43.1721 39.1983L43.2571 39.2389C44.1737 39.6637 44.9999 40.2617 45.6904 41C47.4052 40.0823 49.3731 38.0967 49.8368 33.7978C49.8949 33.3958 51.1718 23.8762 45.5193 17.4992Z" fill="#37D2F4"/>
</svg>
