<svg width="82" height="82" viewBox="0 0 82 82" fill="none" xmlns="http://www.w3.org/2000/svg">
<g clip-path="url(#clip0_118_2654)">
<path d="M41 82C63.6437 82 82 63.6437 82 41C82 18.3563 63.6437 0 41 0C18.3563 0 0 18.3563 0 41C0 63.6437 18.3563 82 41 82Z" fill="#32D6EF" fill-opacity="0.15"/>
<mask id="mask0_118_2654" style="mask-type:luminance" maskUnits="userSpaceOnUse" x="20" y="20" width="43" height="43">
<path d="M62.1205 20.3758H20.375V62.1212H62.1205V20.3758Z" fill="white"/>
</mask>
<g mask="url(#mask0_118_2654)">
<path d="M45.1344 38.0524L60.3411 20.3758H56.7371L43.5337 35.7237L32.9878 20.3758H20.8242L36.7716 43.5849L20.8242 62.1212H24.428L38.3717 45.9132L49.5086 62.1212H61.672L45.1334 38.0524H45.1344ZM40.1987 43.7891L38.5827 41.4781L25.7264 23.0886H31.2616L41.6363 37.9297L43.252 40.2407L56.7386 59.5315H51.2043L40.1987 43.7901V43.7891Z" fill="#32D6EF"/>
</g>
</g>
<defs>
<clipPath id="clip0_118_2654">
<rect width="82" height="82" fill="white"/>
</clipPath>
</defs>
</svg>
